<?xml version="1.0" encoding="utf-8"?>
<!-- Generator: Adobe Illustrator 24.1.2, SVG Export Plug-In . SVG Version: 6.00 Build 0)  -->
<svg version="1.1" id="Layer_1" xmlns="http://www.w3.org/2000/svg" xmlns:xlink="http://www.w3.org/1999/xlink" x="0px" y="0px"
	 viewBox="0 0 56.7 56.7" style="enable-background:new 0 0 56.7 56.7;" xml:space="preserve">
<style type="text/css">
	.st0{fill:none;}
	.st1{fill:#7C7C7C;}
</style>
<g>
	<rect x="-1" y="-1" class="st0" width="582" height="402"/>
</g>
<g>
	<path class="st1" d="M43.8,30.1c-0.1-7.2,5.9-10.6,6.1-10.8c-3.3-4.9-8.5-5.5-10.4-5.6c-4.4-0.4-8.6,2.6-10.9,2.6
		c-2.2,0-5.7-2.5-9.4-2.5c-4.8,0.1-9.3,2.8-11.7,7.1c-5,8.7-1.3,21.5,3.6,28.6c2.4,3.4,5.2,7.3,8.9,7.2c3.6-0.1,4.9-2.3,9.3-2.3
		s5.6,2.3,9.4,2.3c3.9-0.1,6.3-3.5,8.7-7c2.7-4,3.9-7.9,3.9-8.1C51.3,41.6,43.9,38.7,43.8,30.1z"/>
	<path class="st1" d="M36.7,9.1c2-2.4,3.3-5.7,3-9.1c-2.9,0.1-6.3,1.9-8.4,4.3c-1.8,2.1-3.4,5.5-3,8.8C31.5,13.3,34.7,11.4,36.7,9.1
		z"/>
</g>
</svg>
