<?xml version="1.0" encoding="utf-8"?>
<!-- Generator: Adobe Illustrator 24.1.2, SVG Export Plug-In . SVG Version: 6.00 Build 0)  -->
<svg version="1.1" id="Layer_1" xmlns="http://www.w3.org/2000/svg" xmlns:xlink="http://www.w3.org/1999/xlink" x="0px" y="0px"
	 viewBox="0 0 128 128" style="enable-background:new 0 0 128 128;" xml:space="preserve">
<style type="text/css">
	.st0{fill:#FBBC05;}
	.st1{fill:#EB4335;}
	.st2{fill:#34A853;}
	.st3{fill:#4285F4;}
</style>
<g>
	<path class="st0" d="M26.4,63.9c0-4.8,0.8-9.1,2.1-13L7.8,35.4C4,43.5,1.8,53,1.8,64s2.3,20.5,6.1,28.4l20.6-15.7
		C27.1,72.9,26.4,68.6,26.4,63.9z"/>
	<path class="st1" d="M64,24.7c10.4,0,18.9,3.4,25.2,9.1l17.9-17.7C96.6,6.1,82,0,64,0C45,0,19.3,11,7.8,35.4L28.5,51
		C34.3,33.6,51.5,24.7,64,24.7z"/>
	<path class="st2" d="M64,103.2c-11,0-29.5-8.4-35.6-26.5L7.9,92.4C19.9,117.7,47.2,128,64,128c17.3,0,31.8-6,42.4-15.8L87.1,96.5
		C81,100.8,73.2,103.2,64,103.2z"/>
	<path class="st3" d="M125.4,52.4h-2.7h-22.5H64.9v23.3h35.4h0.1c-2.1,8.9-6.5,15.9-13,20.6c-0.1,0-0.1,0.1-0.2,0.1l19.3,15.7
		l0.1-0.1c12.6-11.7,19.7-28.9,19.7-48.1C126.2,60,125.9,56.2,125.4,52.4z"/>
</g>
</svg>
