<?xml version="1.0" encoding="utf-8"?>
<!-- Generator: Adobe Illustrator 24.1.2, SVG Export Plug-In . SVG Version: 6.00 Build 0)  -->
<svg version="1.1" id="Layer_1" xmlns="http://www.w3.org/2000/svg" xmlns:xlink="http://www.w3.org/1999/xlink" x="0px" y="0px"
	 viewBox="0 0 1792 1792" style="enable-background:new 0 0 1792 1792;" xml:space="preserve">
<style type="text/css">
	.st0{fill:none;}
	.st1{fill:#4A089F;}
</style>
<g>
	<rect x="-1" y="-1" class="st0" width="582" height="402"/>
</g>
<g>
	<path class="st1" d="M993.5,1030l13.9,757.6c-44.3-7.9-81.8-11.8-112.5-11.8c-29.3,0-66.8,3.9-112.5,11.8l13.9-757.6
		c-28.6-49.3-88.8-154.8-180.6-316.7S446.6,417.7,383.8,312S256.2,103.7,189.8,4.4c41.4,10.7,80,16.1,115.7,16.1
		c30.7,0,70.4-5.4,118.9-16.1c45,79.3,92.7,161.3,143.1,245.9s110,183.4,179,296.3s118.4,194,148.4,243.3
		c26.4-43.6,65.5-107,117.3-190.2c51.8-83.2,93.8-151.1,125.9-203.6c32.1-52.5,69.7-115.4,112.5-188.6s81.1-140.9,114.7-203.1
		c38.6,10,76.8,15,114.7,15c40,0,80.7-5,122.2-15c-20,27.9-41.4,59.5-64.3,94.8c-22.9,35.4-40.5,63.4-53,84.1
		c-12.5,20.7-32.7,55-60.5,102.9s-45.4,77.9-52.5,90C1267.5,553.4,1141.4,771.3,993.5,1030z"/>
</g>
</svg>
