<svg width="27" height="22" viewBox="0 0 27 22" fill="none" xmlns="http://www.w3.org/2000/svg">
<path fill-rule="evenodd" clip-rule="evenodd" d="M1.65945 21.3358C0.553149 18.1749 0 15.0404 0 11.9322C0 8.34992 0.948256 5.46565 2.84477 3.27939C4.74128 1.09313 7.50703 0 11.142 0V4.97835C8.34992 4.97836 6.95388 6.76951 6.95388 10.3518V11.5371H12.0112V21.3358H1.65945ZM16.5945 21.3358C15.5408 18.1222 15.014 14.9877 15.014 11.9322C15.014 8.34992 15.9491 5.46565 17.8193 3.27939C19.6895 1.09313 22.442 0 26.077 0V4.97835C23.3376 4.97836 21.9679 6.76951 21.9679 10.3518V11.5371H26.9462V21.3358H16.5945Z" fill="#48A8B9"/>
</svg>
