<?xml version="1.0" encoding="utf-8"?>
<!-- Generator: Adobe Illustrator 25.0.1, SVG Export Plug-In . SVG Version: 6.00 Build 0)  -->
<svg version="1.1" id="Layer_1" xmlns="http://www.w3.org/2000/svg" xmlns:xlink="http://www.w3.org/1999/xlink" x="0px" y="0px"
	 viewBox="0 0 274 179.9" style="enable-background:new 0 0 274 179.9;" xml:space="preserve">
<style type="text/css">
	.st0{fill-rule:evenodd;clip-rule:evenodd;fill:url(#SVGID_1_);}
	.st1{fill-rule:evenodd;clip-rule:evenodd;fill:#FF6B02;}
	.st2{fill-rule:evenodd;clip-rule:evenodd;fill:url(#SVGID_2_);}
</style>
<rect width="274" height="179.9"/>
<linearGradient id="SVGID_1_" gradientUnits="userSpaceOnUse" x1="14.3" y1="95.412" x2="261.5" y2="95.412" gradientTransform="matrix(1 0 0 -1 0 182)">
	<stop  offset="0" style="stop-color:#FF6602"/>
	<stop  offset="0.83" style="stop-color:#FEB024"/>
</linearGradient>
<path class="st0" d="M191,13.7L191,13.7c31.6,11.5,48,46.5,36.7,78.2l-7,19.4l-4.9,13.5l0,0l-0.1,0.3l-0.2,0.6l0,0
	c-2.2,4.5-7.4,6.7-12.1,5l-3.9,10.7c-2.4,6.5-9.5,9.9-16.1,7.5l-4.5-1.6l20.6-56.9l4.4,1.6c6.5,2.4,9.8,9.5,7.5,16l6.1-16.8
	c9.5-26.7-4.2-56-30.8-65.7l0,0c-26.7-9.5-56,4.2-65.7,30.8l-6.1,16.8c2.4-6.5,9.5-9.8,16-7.5l4.5,1.6l-20.6,56.9l-4.5-1.6
	c-6.5-2.4-9.9-9.5-7.5-16l3.9-10.7c-4.7-1.7-7.3-6.7-6.1-11.6l0,0c0.1-0.2,0.1-0.4,0.2-0.6l0.1-0.3l4.9-13.5l7-19.4
	C124.3,18.7,159.3,2.3,191,13.7z M96.8,136.4l0.1,0.5l24.3,15.9c0.4,0.2,0.7,0.5,1,0.8c1.2,1,1.9,2.5,1.9,4.1l0,0
	c0,3-2.4,5.5-5.5,5.5H58.6c-24.4-0.1-44.2-19.9-44.3-44.3l0,0c0.1-24.4,19.9-44.2,44.3-44.3h7.6c3.8-18.3,19.9-31.4,38.6-31.4
	c2,0,3.9,0.1,5.9,0.4c-1.1,2.2-2.1,4.5-3,6.9l-1.3,3.6c-0.5,0-1,0-1.6,0c-14.9,0-27.3,11.5-28.4,26.4L76,85.4H58.6
	c-18.4,0.1-33.3,15-33.4,33.4l0,0c0.1,18.4,15,33.3,33.4,33.4h41.9l-14.4-9.4c-2.5-1.6-3.2-5-1.6-7.5c1.4-2.5,2.5-5.1,3.2-7.8
	c0.8-2.8,1.1-5.7,1.1-8.6c0-3.5-0.6-7-1.7-10.4l-0.2-0.5c-1.2-3.5-3-6.8-5.2-9.7c-1.9-2.3-1.7-5.7,0.6-7.7c2.3-1.9,5.7-1.7,7.7,0.6
	c0.1,0.1,0.2,0.2,0.3,0.3c8.6,10.9,11.5,25.3,7.9,38.7c-0.6,2.1-1.3,4.1-2.1,6.1l0.8,0.5C96.9,136.8,96.8,136.4,96.8,136.4z
	 M40.4,113.6c3.2,0,5.8,2.6,5.8,5.8c0,3.2-2.6,5.8-5.8,5.8s-5.8-2.6-5.8-5.8l0,0C34.6,116.2,37.2,113.6,40.4,113.6z M73.3,113.6
	c3.2,0,5.8,2.6,5.8,5.8c0,3.2-2.6,5.8-5.8,5.8c-3.2,0-5.8-2.6-5.8-5.8c0,0,0,0,0,0C67.5,116.2,70.1,113.6,73.3,113.6z M56.9,113.6
	c3.2,0,5.8,2.6,5.8,5.8c0,3.2-2.6,5.8-5.8,5.8s-5.8-2.6-5.8-5.8l0,0C51.1,116.2,53.7,113.6,56.9,113.6z M126.9,152.2h90.3
	c18.4-0.1,33.3-15,33.4-33.4l0,0c0-8.8-3.5-17.3-9.8-23.6c-2.1-2.1-4.6-4-7.2-5.5c1.2-3.6,2-7.3,2.5-11.1
	c15.5,7.3,25.4,22.9,25.5,40.1l0,0c-0.1,24.4-19.9,44.2-44.3,44.3h-90.3c1.7-1.3,2.7-3.3,2.7-5.5l0,0
	C129.6,155.5,128.6,153.5,126.9,152.2z M181,41.3L181,41.3c14.2,5.1,21.9,20.3,17,33.7l-0.8,2.1l-13.7-4.9c-2.1-0.7-4.3,0.3-5.1,2.4
	l0,0c-0.7,2.1,0.3,4.4,2.4,5.1l13.7,4.9l-4.3,11.9l-13.7-4.9c-2.1-0.7-4.3,0.3-5.1,2.4l0,0c-0.7,2.1,0.3,4.3,2.4,5.1l13.7,5
	l-4.3,11.9l-13.7-4.9c-2.1-0.7-4.3,0.3-5.1,2.4l0,0c-0.7,2.1,0.3,4.4,2.4,5.1l13.7,4.9l-0.8,2.1c-4.8,13.3-20.4,20.1-34.6,14.9l0,0
	c-14.2-5.1-21.9-20.3-17.1-33.6l0.8-2.1l13.7,5c2.1,0.7,4.3-0.3,5.1-2.4l0,0c0.7-2.1-0.3-4.3-2.4-5.1l-13.7-5l4.3-11.9l13.7,4.9
	c2.1,0.7,4.3-0.3,5.1-2.4l0,0c0.7-2.1-0.3-4.4-2.4-5.1l-13.7-4.9l4.3-11.9l13.7,4.9c2.1,0.7,4.3-0.3,5.1-2.4l0,0
	c0.7-2.1-0.3-4.3-2.4-5.1l-13.7-5l0.8-2.1C151.2,42.9,166.7,36.2,181,41.3L181,41.3z"/>
<path class="st1" d="M40.4,113.6c3.2,0,5.8,2.6,5.8,5.8c0,3.2-2.6,5.8-5.8,5.8s-5.8-2.6-5.8-5.8l0,0
	C34.6,116.2,37.2,113.6,40.4,113.6z M73.3,113.6c3.2,0,5.8,2.6,5.8,5.8c0,3.2-2.6,5.8-5.8,5.8c-3.2,0-5.8-2.6-5.8-5.8c0,0,0,0,0,0
	C67.5,116.2,70.1,113.6,73.3,113.6z M56.9,113.6c3.2,0,5.8,2.6,5.8,5.8c0,3.2-2.6,5.8-5.8,5.8s-5.8-2.6-5.8-5.8l0,0
	C51.1,116.2,53.7,113.6,56.9,113.6z"/>
<linearGradient id="SVGID_2_" gradientUnits="userSpaceOnUse" x1="126.6501" y1="91.123" x2="199.46" y2="91.123" gradientTransform="matrix(1 0 0 -1 0 182)">
	<stop  offset="0" style="stop-color:#FF6602"/>
	<stop  offset="1" style="stop-color:#FEB024"/>
</linearGradient>
<path class="st2" d="M181,41.3L181,41.3c14.2,5.1,21.9,20.3,17,33.7l-0.8,2.1l-13.7-4.9c-2.1-0.7-4.3,0.3-5.1,2.4l0,0
	c-0.7,2.1,0.3,4.4,2.4,5.1l13.7,4.9l-4.3,11.9l-13.7-4.9c-2.1-0.7-4.3,0.3-5.1,2.4l0,0c-0.7,2.1,0.3,4.3,2.4,5.1l13.7,5l-4.3,11.9
	l-13.7-4.9c-2.1-0.7-4.3,0.3-5.1,2.4l0,0c-0.7,2.1,0.3,4.4,2.4,5.1l13.7,4.9l-0.8,2.1c-4.8,13.3-20.4,20.1-34.6,14.9l0,0
	c-14.2-5.1-21.9-20.3-17.1-33.6l0.8-2.1l13.7,5c2.1,0.7,4.3-0.3,5.1-2.4l0,0c0.7-2.1-0.3-4.3-2.4-5.1l-13.7-5l4.3-11.9l13.7,4.9
	c2.1,0.7,4.3-0.3,5.1-2.4l0,0c0.7-2.1-0.3-4.4-2.4-5.1l-13.7-4.9l4.3-11.9l13.7,4.9c2.1,0.7,4.3-0.3,5.1-2.4l0,0
	c0.7-2.1-0.3-4.3-2.4-5.1l-13.7-5l0.8-2.1C151.2,42.9,166.7,36.2,181,41.3L181,41.3z"/>
</svg>
