<svg width="127" height="35" viewBox="0 0 127 35" fill="none" xmlns="http://www.w3.org/2000/svg">
<path d="M40.6279 27.426L42.2141 23.4327C43.9283 24.8193 46.2053 25.5403 48.4567 25.5403C50.1196 25.5403 51.1686 24.847 51.1686 23.7932C51.143 20.8537 41.2164 23.1554 41.1396 15.7789C41.114 12.0352 44.1841 9.15112 48.5334 9.15112C51.1174 9.15112 53.7014 9.8444 55.5434 11.4251L54.0596 15.5016C52.371 14.3369 50.2731 13.5049 48.2776 13.5049C46.9216 13.5049 46.0262 14.1982 46.0262 15.0856C46.0518 17.9697 56.0551 16.389 56.1575 23.4327C56.1575 27.2596 53.1641 29.9495 48.866 29.9495C45.7192 29.9495 42.8282 29.1453 40.6279 27.426Z" fill="white"/>
<path d="M101.493 21.9907C100.699 23.4882 99.2155 24.5142 97.5014 24.5142C94.9685 24.5142 92.9218 22.2957 92.9218 19.5503C92.9218 16.8049 94.9685 14.5864 97.5014 14.5864C99.2155 14.5864 100.699 15.6125 101.493 17.11L105.867 14.4755C104.23 11.3142 101.083 9.15112 97.5014 9.15112C92.2054 9.15112 87.9072 13.81 87.9072 19.5503C87.9072 25.2907 92.2054 29.9495 97.5014 29.9495C101.109 29.9495 104.23 27.8142 105.867 24.6251L101.493 21.9907Z" fill="white"/>
<path d="M63.8324 0.526855H58.3574V29.5614H63.8324V0.526855Z" fill="white"/>
<path d="M108.017 0.526855V29.5614H113.492V20.8538L119.99 29.5614H127L118.736 19.2177L126.386 9.56722H119.683L113.492 17.5815V0.526855H108.017Z" fill="white"/>
<path d="M80.1043 22.0461C79.3112 23.4604 77.6738 24.5142 75.8318 24.5142C73.2989 24.5142 71.2522 22.2957 71.2522 19.5503C71.2522 16.8049 73.2989 14.5864 75.8318 14.5864C77.6738 14.5864 79.3112 15.6957 80.1043 17.1377V22.0461ZM80.1043 9.56709V11.9242C79.2089 10.2881 76.9831 9.15112 74.6549 9.15112C69.8451 9.15112 66.0586 13.7545 66.0586 19.5226C66.0586 25.2907 69.8451 29.9495 74.6549 29.9495C76.9831 29.9495 79.2089 28.8126 80.1043 27.1764V29.5336H85.5793V9.56709H80.1043Z" fill="white"/>
<path d="M6.77966 22.0189C6.77966 24.0433 5.27019 25.6794 3.40253 25.6794C1.53487 25.6794 0.0253906 24.0433 0.0253906 22.0189C0.0253906 19.9945 1.53487 18.3584 3.40253 18.3584H6.77966V22.0189Z" fill="#E01E5A"/>
<path d="M8.46875 22.0189C8.46875 19.9945 9.9782 18.3584 11.8458 18.3584C13.7135 18.3584 15.2229 19.9945 15.2229 22.0189V31.1702C15.2229 33.1946 13.7135 34.8307 11.8458 34.8307C9.9782 34.8307 8.46875 33.1946 8.46875 31.1702V22.0189Z" fill="#E01E5A"/>
<path d="M11.8458 7.32104C9.9782 7.32104 8.46875 5.6849 8.46875 3.66052C8.46875 1.63614 9.9782 0 11.8458 0C13.7135 0 15.2229 1.63614 15.2229 3.66052V7.32104H11.8458Z" fill="#36C5F0"/>
<path d="M11.8455 9.1792C13.7132 9.1792 15.2227 10.8153 15.2227 12.8397C15.2227 14.8641 13.7132 16.5002 11.8455 16.5002H3.37713C1.50947 16.5002 0 14.8641 0 12.8397C0 10.8153 1.50947 9.1792 3.37713 9.1792H11.8455Z" fill="#36C5F0"/>
<path d="M25.3789 12.8397C25.3789 10.8153 26.8884 9.1792 28.756 9.1792C30.6237 9.1792 32.1332 10.8153 32.1332 12.8397C32.1332 14.8641 30.6237 16.5002 28.756 16.5002H25.3789V12.8397Z" fill="#2EB67D"/>
<path d="M23.6908 12.8395C23.6908 14.8639 22.1813 16.5001 20.3137 16.5001C18.446 16.5001 16.9365 14.8639 16.9365 12.8395V3.66052C16.9365 1.63614 18.446 0 20.3137 0C22.1813 0 23.6908 1.63614 23.6908 3.66052V12.8395Z" fill="#2EB67D"/>
<path d="M20.3137 27.5098C22.1813 27.5098 23.6908 29.1459 23.6908 31.1703C23.6908 33.1947 22.1813 34.8308 20.3137 34.8308C18.446 34.8308 16.9365 33.1947 16.9365 31.1703V27.5098H20.3137Z" fill="#ECB22E"/>
<path d="M20.3137 25.6794C18.446 25.6794 16.9365 24.0433 16.9365 22.0189C16.9365 19.9945 18.446 18.3584 20.3137 18.3584H28.7821C30.6497 18.3584 32.1592 19.9945 32.1592 22.0189C32.1592 24.0433 30.6497 25.6794 28.7821 25.6794H20.3137Z" fill="#ECB22E"/>
</svg>
