<svg id="Layer_1" data-name="Layer 1" xmlns="http://www.w3.org/2000/svg" viewBox="0 0 523.4 334.87"><defs><style>.cls-1{fill:#f4e9de;opacity:0.6;}.cls-2{fill:#05a0b5;}.cls-3{fill:#fff;}.cls-4{fill:#586163;}.cls-5{fill:#ffa13b;}.cls-6{fill:#ed8d2e;}.cls-7{fill:#ffdeb6;}.cls-8{fill:#f2cca2;}.cls-9{fill:#c66e17;}.cls-10{fill:#a0530d;}</style></defs><circle class="cls-1" cx="222.37" cy="174" r="143"/><circle class="cls-1" cx="360.37" cy="140" r="91"/><circle class="cls-2" cx="375.67" cy="57.25" r="57.25"/><path class="cls-3" d="M384.36,43.05l-4.51-1a20.89,20.89,0,0,0-2.25-5.42l2.47-3.92a1,1,0,0,0,0-1.35l-4.57-4.57a1,1,0,0,0-1.36,0l-3.91,2.46A20.45,20.45,0,0,0,364.8,27l-1-4.51a1,1,0,0,0-1-1h-6.46a1,1,0,0,0-1,1l-1,4.51A20.45,20.45,0,0,0,349,29.22L345,26.76a1,1,0,0,0-1.36,0l-4.57,4.57a1,1,0,0,0,0,1.35l2.47,3.92A20.22,20.22,0,0,0,339.33,42l-4.51,1a1,1,0,0,0-1,1v6.46a1,1,0,0,0,1,1l4.51,1a20.42,20.42,0,0,0,2.25,5.43l-2.47,3.91a1,1,0,0,0,0,1.36l4.57,4.56a1,1,0,0,0,1.36,0L349,65.25a20.81,20.81,0,0,0,5.43,2.25l1,4.51a1,1,0,0,0,1,1h6.46a1,1,0,0,0,1-1l1-4.51a21,21,0,0,0,5.43-2.25l3.91,2.46a1,1,0,0,0,1.36,0l4.57-4.56a1,1,0,0,0,0-1.36l-2.47-3.91a21.1,21.1,0,0,0,2.25-5.43l4.51-1a1,1,0,0,0,1-1V44A1,1,0,0,0,384.36,43.05ZM359.59,57.71a10.47,10.47,0,1,1,10.47-10.47A10.47,10.47,0,0,1,359.59,57.71Z"/><path class="cls-3" d="M415.26,57.28l-3.11.29a13.78,13.78,0,0,0-2.58-3l.75-3a.64.64,0,0,0-.29-.86l-3.89-2a.64.64,0,0,0-.86.29l-2,2.4a14.07,14.07,0,0,0-4-.29l-1.61-2.67a.64.64,0,0,0-.82-.41l-4.13,1.36a.65.65,0,0,0-.42.82l.3,3.1a14.1,14.1,0,0,0-3,2.59l-3-.76a.65.65,0,0,0-.87.29l-2,3.89a.65.65,0,0,0,.29.87l2.4,2a14.14,14.14,0,0,0-.29,4l-2.67,1.6a.66.66,0,0,0-.42.82l1.37,4.14a.64.64,0,0,0,.81.41l3.11-.3a14.11,14.11,0,0,0,2.58,3l-.75,3a.65.65,0,0,0,.29.87l3.89,2a.65.65,0,0,0,.87-.28l2-2.41a14.1,14.1,0,0,0,3.95.3l1.61,2.67a.65.65,0,0,0,.82.41L407.78,81a.65.65,0,0,0,.41-.82l-.3-3.11a13.83,13.83,0,0,0,3-2.58l3,.75a.65.65,0,0,0,.87-.28l2-3.9a.65.65,0,0,0-.28-.86l-2.41-2a14.07,14.07,0,0,0,.29-4L417,62.64a.64.64,0,0,0,.41-.81l-1.37-4.14A.63.63,0,0,0,415.26,57.28ZM402.49,71.89A7.06,7.06,0,1,1,407,63,7.05,7.05,0,0,1,402.49,71.89Z"/><path class="cls-3" d="M383.08,76.58l-2,.19a9.4,9.4,0,0,0-1.69-2l.49-2a.43.43,0,0,0-.19-.57L377.12,71a.42.42,0,0,0-.57.18l-1.3,1.58a8.92,8.92,0,0,0-2.58-.2l-1.06-1.74a.41.41,0,0,0-.53-.27l-2.71.89a.41.41,0,0,0-.26.53l.19,2a9.4,9.4,0,0,0-2,1.69l-2-.49a.43.43,0,0,0-.57.19l-1.28,2.54a.42.42,0,0,0,.18.57l1.58,1.3a8.92,8.92,0,0,0-.2,2.58l-1.74,1.06a.41.41,0,0,0-.27.53l.89,2.71a.41.41,0,0,0,.53.26l2-.19a9.4,9.4,0,0,0,1.69,2l-.49,2a.43.43,0,0,0,.19.57l2.54,1.28a.42.42,0,0,0,.57-.18l1.3-1.57a9.28,9.28,0,0,0,2.58.19L375,92.7a.41.41,0,0,0,.53.27l2.71-.89a.41.41,0,0,0,.26-.53l-.19-2a9.4,9.4,0,0,0,2-1.69l2,.49a.43.43,0,0,0,.57-.19l1.28-2.54a.42.42,0,0,0-.18-.57l-1.57-1.3a9.28,9.28,0,0,0,.19-2.58l1.74-1.06a.41.41,0,0,0,.27-.53l-.89-2.71A.41.41,0,0,0,383.08,76.58Zm-8.35,9.56a4.62,4.62,0,1,1,2.94-5.84A4.63,4.63,0,0,1,374.73,86.14Z"/><circle class="cls-2" cx="69.28" cy="240.65" r="57.25"/><ellipse class="cls-3" cx="69.28" cy="219.72" rx="30.14" ry="13.2"/><path class="cls-3" d="M69.28,236.65c-16.54,0-30-5.84-30.13-13.07h0v10.67h0c.61,7.41,13.85,13.33,30.11,13.33s29.5-5.92,30.11-13.33h0V223.58h0C99.25,230.81,85.82,236.65,69.28,236.65Z"/><path class="cls-3" d="M69.28,250.25c-16.54,0-30-5.84-30.13-13.07h0v10.67h0c.61,7.41,13.85,13.33,30.11,13.33s29.5-5.92,30.11-13.33h0V237.18h0C99.25,244.41,85.82,250.25,69.28,250.25Z"/><path class="cls-3" d="M69.28,263.85c-16.54,0-30-5.84-30.13-13.07h0v10.67h0c.61,7.41,13.85,13.34,30.11,13.34s29.5-5.93,30.11-13.34h0V250.78h0C99.25,258,85.82,263.85,69.28,263.85Z"/><circle class="cls-2" cx="146.19" cy="57.25" r="57.25"/><path class="cls-3" d="M182.1,76.91c-5.78,0-10.3-2.26-10.3-5.14a3.73,3.73,0,0,1,1.79-2.94l.09-.07a6.72,6.72,0,1,0-6.9,0l.1.07a3.74,3.74,0,0,1,1.79,2.94c0,2.88-4.53,5.14-10.31,5.14a19.06,19.06,0,0,1-4.77-.58,13.61,13.61,0,0,1-2.61-1,.51.51,0,0,1-.27-.56,18.16,18.16,0,0,0,.44-4.08,14.31,14.31,0,0,0-2-7.87,2.36,2.36,0,0,0-4.34,0l0,0a7.65,7.65,0,0,1-6.57,3.69,7.73,7.73,0,1,1,6.57-11.76l0,0a2.36,2.36,0,0,0,4.34,0c1.24-1.74,2-4.68,2-7.86a18.29,18.29,0,0,0-.32-3.52,11.07,11.07,0,0,0-1.65-4.33.48.48,0,0,1-.09-.29v-.12a.51.51,0,0,1,.3-.46.71.71,0,0,1,.2,0,.49.49,0,0,1,.34.14c1.56,1.48,4.87,2.44,8.43,2.44,4,0,7.54-1.16,8.84-2.89a2.12,2.12,0,0,0,.47-1.25,2.92,2.92,0,0,0-1.45-2.17l0,0a7.72,7.72,0,0,1,4-14.3,7.72,7.72,0,0,1,4,14.3l0,0a2.91,2.91,0,0,0-1.44,2.17,2.05,2.05,0,0,0,.47,1.25c1.29,1.73,4.84,2.89,8.83,2.89,3.56,0,6.87-1,8.43-2.44a.49.49,0,0,1,.34-.14.65.65,0,0,1,.2,0,.51.51,0,0,1,.3.46V73.83a.51.51,0,0,1-.15.37C189.46,75.87,186,76.91,182.1,76.91Z"/><path class="cls-2" d="M170.23,20.68a7.22,7.22,0,0,1,3.71,13.42h0a3.31,3.31,0,0,0-1.65,2.58,2.56,2.56,0,0,0,.57,1.55c1.34,1.8,5,3.09,9.23,3.09,3.85,0,7.17-1,8.77-2.58V73.83c-1.6,1.53-4.92,2.58-8.77,2.58-5.41,0-9.8-2.08-9.8-4.64A3.31,3.31,0,0,1,174,69.19h0a7.22,7.22,0,1,0-7.42,0h0a3.29,3.29,0,0,1,1.66,2.58c0,2.56-4.39,4.64-9.81,4.64a19,19,0,0,1-4.64-.56,12.76,12.76,0,0,1-2.52-.92,19,19,0,0,0,.45-4.19,14.78,14.78,0,0,0-2.06-8.15,2.83,2.83,0,0,0-5.16,0v0a7.23,7.23,0,1,1,0-7.41h0a2.84,2.84,0,0,0,5.16,0A14.8,14.8,0,0,0,151.65,47a19.55,19.55,0,0,0-.32-3.61,11.85,11.85,0,0,0-1.74-4.53v-.12c1.61,1.53,4.93,2.58,8.77,2.58,4.27,0,7.89-1.29,9.24-3.09a2.62,2.62,0,0,0,.57-1.55,3.29,3.29,0,0,0-1.66-2.58h0a7.22,7.22,0,0,1,3.71-13.42m0-1A8.23,8.23,0,0,0,162,27.9a8.13,8.13,0,0,0,3.9,7l0,0a2.49,2.49,0,0,1,1.23,1.77,1.66,1.66,0,0,1-.37,1c-1,1.29-4,2.69-8.44,2.69-3.44,0-6.61-.9-8.08-2.3a1,1,0,0,0-.69-.28,1,1,0,0,0-.39.08,1,1,0,0,0-.61.92v.12a1,1,0,0,0,.18.58,10.65,10.65,0,0,1,1.57,4.13,18.16,18.16,0,0,1,.31,3.43,13.77,13.77,0,0,1-1.88,7.57,1.87,1.87,0,0,1-3.52,0l0,0a8.15,8.15,0,0,0-7-3.9,8.23,8.23,0,1,0,0,16.45,8.13,8.13,0,0,0,7-3.9l0,0a1.87,1.87,0,0,1,3.52,0,13.83,13.83,0,0,1,1.88,7.58,18.3,18.3,0,0,1-.42,4,1,1,0,0,0,.52,1.11,13.24,13.24,0,0,0,2.72,1,19.5,19.5,0,0,0,4.89.6c6.16,0,10.81-2.42,10.81-5.64a4.11,4.11,0,0,0-2-3.32.57.57,0,0,0-.15-.12,6.22,6.22,0,0,1,3.19-11.56,6.22,6.22,0,0,1,3.19,11.56.79.79,0,0,0-.15.12,4.09,4.09,0,0,0-2,3.32c0,3.22,4.64,5.64,10.8,5.64,4,0,7.61-1.09,9.46-2.85a1,1,0,0,0,.31-.73V38.74a1,1,0,0,0-.6-.92,1.1,1.1,0,0,0-.4-.08,1,1,0,0,0-.69.28c-1.47,1.4-4.64,2.3-8.08,2.3-4.41,0-7.46-1.4-8.43-2.69a1.59,1.59,0,0,1-.37-1,2.46,2.46,0,0,1,1.23-1.77l0,0a8.14,8.14,0,0,0,3.91-7,8.23,8.23,0,0,0-8.23-8.22Z"/><path class="cls-3" d="M136.42,94.32a7.11,7.11,0,0,1-7.11-7.1,7,7,0,0,1,3.39-6l0,0a2.11,2.11,0,0,0,0-3.9,13.06,13.06,0,0,0-7.16-1.79,17.58,17.58,0,0,0-3.21.29,10.37,10.37,0,0,0-3.94,1.5.48.48,0,0,1-.29.09H118a.49.49,0,0,1-.46-.3.51.51,0,0,1,.1-.54c1.35-1.42,2.22-4.43,2.22-7.67,0-3.64-1-6.87-2.63-8a1.86,1.86,0,0,0-1.11-.42,2.62,2.62,0,0,0-2,1.3l0,0a7.1,7.1,0,1,1,0-7.43l0,0a2.62,2.62,0,0,0,2,1.3,1.86,1.86,0,0,0,1.11-.42c1.58-1.17,2.63-4.41,2.63-8,0-3.24-.87-6.25-2.22-7.67a.51.51,0,0,1-.1-.54.5.5,0,0,1,.46-.31H150.1a.52.52,0,0,1,.36.16C152,40.39,153,43.59,153,47.13c0,5.31-2.08,9.46-4.74,9.46a3.45,3.45,0,0,1-2.72-1.65l-.07-.09a6.1,6.1,0,1,0,0,6.26l.07-.09a3.45,3.45,0,0,1,2.72-1.65c2.66,0,4.74,4.15,4.74,9.46a17.79,17.79,0,0,1-.53,4.37,11.94,11.94,0,0,1-.88,2.4.49.49,0,0,1-.44.27H151a16.73,16.73,0,0,0-3.73-.4,13.09,13.09,0,0,0-7.16,1.79,2.11,2.11,0,0,0,0,3.9l0,0a7.1,7.1,0,0,1-3.71,13.15Z"/><path class="cls-2" d="M150.1,39.11c1.39,1.47,2.35,4.51,2.35,8,0,4.95-1.9,9-4.24,9a3,3,0,0,1-2.36-1.51h0a6.6,6.6,0,1,0,0,6.78h0a3,3,0,0,1,2.36-1.51c2.34,0,4.24,4,4.24,9a16.86,16.86,0,0,1-.52,4.24,11.64,11.64,0,0,1-.83,2.3,17.73,17.73,0,0,0-3.84-.41,13.58,13.58,0,0,0-7.45,1.88,2.6,2.6,0,0,0,0,4.72h0a6.61,6.61,0,1,1-6.78,0h0a2.6,2.6,0,0,0,0-4.72A13.56,13.56,0,0,0,125.57,75a17.23,17.23,0,0,0-3.3.3,10.92,10.92,0,0,0-4.14,1.58H118c1.4-1.46,2.36-4.5,2.36-8,0-3.9-1.18-7.21-2.83-8.44a2.36,2.36,0,0,0-1.41-.52,3,3,0,0,0-2.36,1.51h0a6.6,6.6,0,1,1,0-6.78h0a3,3,0,0,0,2.36,1.51,2.36,2.36,0,0,0,1.41-.52c1.65-1.23,2.83-4.54,2.83-8.44,0-3.51-1-6.55-2.36-8H150.1m0-1H118a1,1,0,0,0-.72,1.69c1.26,1.33,2.08,4.21,2.08,7.33,0,4-1.26,6.77-2.43,7.64a1.4,1.4,0,0,1-.81.32c-.67,0-1.26-.68-1.55-1.09v0a7.6,7.6,0,1,0,0,8v0c.29-.4.88-1.08,1.55-1.08a1.33,1.33,0,0,1,.81.32c1.17.87,2.43,3.64,2.43,7.64,0,3.12-.82,6-2.08,7.33a1,1,0,0,0,.72,1.68h.11a1,1,0,0,0,.58-.18,9.88,9.88,0,0,1,3.74-1.42,16.61,16.61,0,0,1,3.12-.28,12.59,12.59,0,0,1,6.87,1.7c.41.29,1.09.87,1.09,1.54s-.68,1.26-1.09,1.54l0,0a7.6,7.6,0,1,0,8,0l0,0c-.4-.28-1.09-.87-1.09-1.54s.69-1.25,1.09-1.54a12.61,12.61,0,0,1,6.87-1.7,16.39,16.39,0,0,1,3.62.39l.22,0a1,1,0,0,0,.89-.54,12.43,12.43,0,0,0,.91-2.51,17.82,17.82,0,0,0,.55-4.49c0-5.68-2.25-10-5.24-10a3.84,3.84,0,0,0-3.11,1.83l-.11.15a5.6,5.6,0,1,1,0-5.74l.11.15a3.85,3.85,0,0,0,3.11,1.83c3,0,5.24-4.28,5.24-10,0-3.66-1-7-2.63-8.71a1,1,0,0,0-.72-.31Z"/><circle class="cls-2" cx="466.12" cy="239.87" r="57.25"/><path class="cls-3" d="M500.32,216.78l-8.79,8.79a3.32,3.32,0,0,1-4.67,0l-6.15-6.15a3.3,3.3,0,0,1,0-4.67l8.87-8.88a14.91,14.91,0,0,0-3.5-.42A14.61,14.61,0,0,0,472.33,225a23.45,23.45,0,0,0-4.84,3.88l-32.35,28.05c-4.36,4.35-4.82,11-1,14.8h0c3.79,3.79,10.46,3.33,14.81-1l28-32.35a23.64,23.64,0,0,0,3.79-4.69,14.6,14.6,0,0,0,19.94-13.6A14.79,14.79,0,0,0,500.32,216.78Z"/><path class="cls-4" d="M333.69,122.85a5.59,5.59,0,0,0-4.46,1.88,7.58,7.58,0,0,0-1.63,5.15,7.77,7.77,0,0,0,1.57,5.2,5.61,5.61,0,0,0,4.5,1.83,15.81,15.81,0,0,0,4.09-.64V138a12.53,12.53,0,0,1-4.4.67,7.44,7.44,0,0,1-5.84-2.3,9.45,9.45,0,0,1-2.06-6.53,10.32,10.32,0,0,1,1-4.64,7.2,7.2,0,0,1,2.86-3.07,8.77,8.77,0,0,1,4.4-1.07,10.54,10.54,0,0,1,4.71,1l-.84,1.71A9.06,9.06,0,0,0,333.69,122.85Z"/><path class="cls-4" d="M352.29,132a7.14,7.14,0,0,1-1.58,4.91,5.61,5.61,0,0,1-4.38,1.76,5.77,5.77,0,0,1-3.05-.81,5.32,5.32,0,0,1-2.07-2.32,8.17,8.17,0,0,1-.72-3.54,7.06,7.06,0,0,1,1.57-4.89,5.54,5.54,0,0,1,4.36-1.75,5.42,5.42,0,0,1,4.28,1.79A7,7,0,0,1,352.29,132Zm-9.79,0a6.07,6.07,0,0,0,1,3.75,3.4,3.4,0,0,0,2.89,1.29,3.46,3.46,0,0,0,2.9-1.28,6.09,6.09,0,0,0,1-3.76,6,6,0,0,0-1-3.72,4,4,0,0,0-5.81,0A6.1,6.1,0,0,0,342.5,132Z"/><path class="cls-4" d="M372.07,138.44v-8.35a3.45,3.45,0,0,0-.66-2.3,2.52,2.52,0,0,0-2-.77,3.3,3.3,0,0,0-2.68,1,5,5,0,0,0-.87,3.21v7.17h-1.94v-8.35a3.45,3.45,0,0,0-.66-2.3,2.53,2.53,0,0,0-2.05-.77,3.18,3.18,0,0,0-2.68,1.09,6,6,0,0,0-.85,3.6v6.73H355.7V125.6h1.58l.32,1.76h.09a3.86,3.86,0,0,1,1.55-1.47,4.78,4.78,0,0,1,2.25-.52c2,0,3.32.72,3.93,2.18h.1a4.07,4.07,0,0,1,1.66-1.6,5.2,5.2,0,0,1,2.49-.58,4.33,4.33,0,0,1,3.26,1.12,5,5,0,0,1,1.08,3.58v8.37Z"/><path class="cls-4" d="M384,138.68a5.67,5.67,0,0,1-2.29-.46,4.36,4.36,0,0,1-1.74-1.43h-.14a18,18,0,0,1,.14,2.14v5.28h-2V125.6h1.58l.27,1.76h.1a4.53,4.53,0,0,1,1.74-1.52,5.24,5.24,0,0,1,2.29-.47,4.74,4.74,0,0,1,3.94,1.74,9.31,9.31,0,0,1,0,9.82A4.75,4.75,0,0,1,384,138.68ZM383.72,127a3.44,3.44,0,0,0-2.85,1.09,5.55,5.55,0,0,0-.9,3.47V132a6.4,6.4,0,0,0,.9,3.87,3.43,3.43,0,0,0,2.89,1.17,3,3,0,0,0,2.61-1.35,6.37,6.37,0,0,0,.94-3.71,6.17,6.17,0,0,0-.94-3.69A3.11,3.11,0,0,0,383.72,127Z"/><path class="cls-4" d="M394.56,125.6v8.33a3.35,3.35,0,0,0,.71,2.35,2.94,2.94,0,0,0,2.24.77,3.68,3.68,0,0,0,2.95-1.1,5.57,5.57,0,0,0,.93-3.6V125.6h1.94v12.84h-1.6l-.28-1.72h-.11a3.93,3.93,0,0,1-1.66,1.46,5.63,5.63,0,0,1-2.42.5,4.93,4.93,0,0,1-3.51-1.11,4.79,4.79,0,0,1-1.16-3.57v-8.4Z"/><path class="cls-4" d="M411.61,137.07a6.41,6.41,0,0,0,1-.07,7.69,7.69,0,0,0,.77-.16v1.49a4,4,0,0,1-.94.25,6.59,6.59,0,0,1-1.1.1q-3.74,0-3.73-3.93v-7.64h-1.84v-.93l1.84-.81.82-2.75h1.12v3h3.73v1.51h-3.73v7.56a2.58,2.58,0,0,0,.56,1.78A1.88,1.88,0,0,0,411.61,137.07Z"/><path class="cls-4" d="M421.36,138.68a5.91,5.91,0,0,1-4.5-1.74,6.73,6.73,0,0,1-1.64-4.81,7.47,7.47,0,0,1,1.53-4.94,5.08,5.08,0,0,1,4.1-1.82,4.85,4.85,0,0,1,3.82,1.58,6.09,6.09,0,0,1,1.41,4.19v1.23h-8.85a5.07,5.07,0,0,0,1.15,3.44,4,4,0,0,0,3.05,1.17,10.31,10.31,0,0,0,4.1-.87v1.74a11,11,0,0,1-1.95.64A11.77,11.77,0,0,1,421.36,138.68ZM420.83,127a3.2,3.2,0,0,0-2.47,1,4.69,4.69,0,0,0-1.08,2.79H424a4.29,4.29,0,0,0-.82-2.82A2.87,2.87,0,0,0,420.83,127Z"/><path class="cls-4" d="M81.11,138.44V121.31h2v17.13Z"/><path class="cls-4" d="M96.3,138.44v-8.3a3.4,3.4,0,0,0-.71-2.35,3,3,0,0,0-2.24-.77,3.67,3.67,0,0,0-2.95,1.09,5.47,5.47,0,0,0-.94,3.6v6.73H87.51V125.6H89.1l.31,1.76h.1a3.93,3.93,0,0,1,1.67-1.47,5.41,5.41,0,0,1,2.4-.52,4.89,4.89,0,0,1,3.5,1.12,4.76,4.76,0,0,1,1.17,3.58v8.37Z"/><path class="cls-4" d="M106.39,137.07a6.45,6.45,0,0,0,1-.07,7.4,7.4,0,0,0,.76-.16v1.49a3.76,3.76,0,0,1-.93.25,6.61,6.61,0,0,1-1.11.1c-2.48,0-3.73-1.31-3.73-3.93v-7.64h-1.84v-.93l1.84-.81.82-2.75h1.13v3h3.73v1.51h-3.73v7.56a2.58,2.58,0,0,0,.55,1.78A1.9,1.9,0,0,0,106.39,137.07Z"/><path class="cls-4" d="M116.14,138.68a5.88,5.88,0,0,1-4.49-1.74,6.69,6.69,0,0,1-1.65-4.81,7.47,7.47,0,0,1,1.53-4.94,5.1,5.1,0,0,1,4.11-1.82,4.87,4.87,0,0,1,3.82,1.58,6.08,6.08,0,0,1,1.4,4.19v1.23H112a5.12,5.12,0,0,0,1.14,3.44,4,4,0,0,0,3,1.17,10.31,10.31,0,0,0,4.1-.87v1.74a10.54,10.54,0,0,1-2,.64A11.62,11.62,0,0,1,116.14,138.68ZM115.61,127a3.16,3.16,0,0,0-2.46,1,4.63,4.63,0,0,0-1.09,2.79h6.72A4.35,4.35,0,0,0,118,128,2.9,2.9,0,0,0,115.61,127Z"/><path class="cls-4" d="M134.69,125.6v1.23l-2.38.28a4,4,0,0,1,.59,1.08,4.08,4.08,0,0,1,.26,1.49,3.79,3.79,0,0,1-1.29,3,5.21,5.21,0,0,1-3.54,1.13,6.19,6.19,0,0,1-1.08-.1,1.91,1.91,0,0,0-1.24,1.65.82.82,0,0,0,.43.78,3.14,3.14,0,0,0,1.49.26h2.27a5.15,5.15,0,0,1,3.21.87,3.06,3.06,0,0,1,1.12,2.56,3.64,3.64,0,0,1-1.71,3.25,9.13,9.13,0,0,1-5,1.12,6.8,6.8,0,0,1-3.89-.94,3,3,0,0,1-1.36-2.65,3,3,0,0,1,.75-2,3.8,3.8,0,0,1,2.1-1.16,2.08,2.08,0,0,1-.82-.69,1.88,1.88,0,0,1-.34-1.09,2.06,2.06,0,0,1,.38-1.23,3.7,3.7,0,0,1,1.18-1,3.52,3.52,0,0,1-1.62-1.4,4.6,4.6,0,0,1,.64-5.5,5.16,5.16,0,0,1,3.58-1.14,6.38,6.38,0,0,1,1.82.23Zm-10.24,15a1.73,1.73,0,0,0,.88,1.58,4.84,4.84,0,0,0,2.52.54,7,7,0,0,0,3.63-.73,2.25,2.25,0,0,0,1.17-2,1.56,1.56,0,0,0-.64-1.44,5,5,0,0,0-2.43-.41h-2.33a3.07,3.07,0,0,0-2.06.63A2.29,2.29,0,0,0,124.45,140.6Zm1-10.89a2.61,2.61,0,0,0,.77,2,3,3,0,0,0,2.12.69q2.85,0,2.85-2.76a2.56,2.56,0,0,0-2.89-2.9,2.88,2.88,0,0,0-2.11.74A3,3,0,0,0,125.5,129.71Z"/><path class="cls-4" d="M143.19,125.37a7.12,7.12,0,0,1,1.53.14l-.27,1.8a6.39,6.39,0,0,0-1.4-.17,3.44,3.44,0,0,0-2.67,1.26,4.63,4.63,0,0,0-1.11,3.15v6.89h-1.94V125.6h1.6l.23,2.38h.09a5.61,5.61,0,0,1,1.72-1.93A3.85,3.85,0,0,1,143.19,125.37Z"/><path class="cls-4" d="M155,138.44l-.38-1.82h-.1a5.42,5.42,0,0,1-1.91,1.63,5.77,5.77,0,0,1-2.39.43,4.26,4.26,0,0,1-3-1,3.59,3.59,0,0,1-1.08-2.8q0-3.88,6.22-4.07l2.18-.07V130a3.26,3.26,0,0,0-.65-2.23,2.69,2.69,0,0,0-2.08-.72,8.47,8.47,0,0,0-3.64,1l-.59-1.49a9.38,9.38,0,0,1,2.08-.81,9.22,9.22,0,0,1,2.26-.29,4.89,4.89,0,0,1,3.41,1,4.25,4.25,0,0,1,1.11,3.27v8.76Zm-4.39-1.37a4,4,0,0,0,2.85-1,3.71,3.71,0,0,0,1-2.79v-1.16l-1.94.08a7.21,7.21,0,0,0-3.35.72,2.19,2.19,0,0,0-1,2,2,2,0,0,0,.64,1.6A2.64,2.64,0,0,0,150.63,137.07Z"/><path class="cls-4" d="M164.62,137.07a6.45,6.45,0,0,0,1-.07,7.4,7.4,0,0,0,.76-.16v1.49a3.76,3.76,0,0,1-.93.25,6.61,6.61,0,0,1-1.11.1c-2.48,0-3.73-1.31-3.73-3.93v-7.64h-1.84v-.93l1.84-.81.82-2.75h1.13v3h3.73v1.51h-3.73v7.56a2.58,2.58,0,0,0,.55,1.78A1.9,1.9,0,0,0,164.62,137.07Z"/><path class="cls-4" d="M168.78,122.12a1.3,1.3,0,0,1,.33-1,1.21,1.21,0,0,1,1.63,0,1.24,1.24,0,0,1,.34,1,1.28,1.28,0,0,1-.34,1,1.17,1.17,0,0,1-.81.32,1.14,1.14,0,0,1-.82-.32A1.32,1.32,0,0,1,168.78,122.12Zm2.11,16.32H169V125.6h1.94Z"/><path class="cls-4" d="M186.1,132a7.09,7.09,0,0,1-1.58,4.91,5.58,5.58,0,0,1-4.37,1.76,5.78,5.78,0,0,1-3.06-.81,5.3,5.3,0,0,1-2.06-2.32,8,8,0,0,1-.73-3.54,7.11,7.11,0,0,1,1.57-4.89,5.55,5.55,0,0,1,4.36-1.75,5.39,5.39,0,0,1,4.28,1.79A7,7,0,0,1,186.1,132Zm-9.78,0a6.14,6.14,0,0,0,1,3.75,3.91,3.91,0,0,0,5.8,0,6.09,6.09,0,0,0,1-3.76,6,6,0,0,0-1-3.72,3.48,3.48,0,0,0-2.93-1.27,3.44,3.44,0,0,0-2.88,1.25A6,6,0,0,0,176.32,132Z"/><path class="cls-4" d="M198.3,138.44v-8.3a3.4,3.4,0,0,0-.71-2.35,3,3,0,0,0-2.24-.77,3.66,3.66,0,0,0-2.95,1.09,5.47,5.47,0,0,0-.94,3.6v6.73h-2V125.6h1.58l.32,1.76h.09a4,4,0,0,1,1.68-1.47,5.41,5.41,0,0,1,2.4-.52,4.89,4.89,0,0,1,3.5,1.12,4.76,4.76,0,0,1,1.17,3.58v8.37Z"/><path class="cls-4" d="M212.53,134.94a3.23,3.23,0,0,1-1.34,2.77,6.34,6.34,0,0,1-3.75,1,8.12,8.12,0,0,1-4-.81v-1.8a10,10,0,0,0,2,.73,8.32,8.32,0,0,0,2.05.27,4.67,4.67,0,0,0,2.34-.48,1.61,1.61,0,0,0,.82-1.49,1.59,1.59,0,0,0-.65-1.28,10.64,10.64,0,0,0-2.53-1.26,13.37,13.37,0,0,1-2.55-1.16,3.57,3.57,0,0,1-1.13-1.13,3.05,3.05,0,0,1-.37-1.52,2.9,2.9,0,0,1,1.28-2.48,6,6,0,0,1,3.5-.9,10.29,10.29,0,0,1,4.06.84l-.69,1.58a9.33,9.33,0,0,0-3.51-.79,4,4,0,0,0-2.08.43,1.35,1.35,0,0,0-.71,1.19,1.42,1.42,0,0,0,.27.88,2.36,2.36,0,0,0,.85.69,18,18,0,0,0,2.25.95,8.61,8.61,0,0,1,3.09,1.68A3,3,0,0,1,212.53,134.94Z"/><path class="cls-4" d="M20.43,318c0,2.83-.76,5-2.3,6.49s-3.74,2.24-6.63,2.24H6.76V309.62H12a8.43,8.43,0,0,1,6.21,2.21A8.36,8.36,0,0,1,20.43,318Zm-2.11.07a6.9,6.9,0,0,0-1.68-5,6.73,6.73,0,0,0-5-1.7H8.75V325h2.43a7.4,7.4,0,0,0,5.35-1.75A6.93,6.93,0,0,0,18.32,318.09Z"/><path class="cls-4" d="M31.86,326.75l-.39-1.83h-.09a5.4,5.4,0,0,1-1.92,1.64,5.9,5.9,0,0,1-2.38.42,4.3,4.3,0,0,1-3-1A3.6,3.6,0,0,1,23,323.2q0-3.88,6.22-4.08l2.18-.07v-.8a3.23,3.23,0,0,0-.65-2.23,2.66,2.66,0,0,0-2.08-.72,8.42,8.42,0,0,0-3.63,1l-.6-1.49a8.65,8.65,0,0,1,2.08-.81,8.84,8.84,0,0,1,2.27-.29,4.87,4.87,0,0,1,3.4,1A4.23,4.23,0,0,1,33.3,318v8.77Zm-4.39-1.37a3.92,3.92,0,0,0,2.85-1,3.68,3.68,0,0,0,1-2.79v-1.16l-1.95.09a7,7,0,0,0-3.35.72,2.16,2.16,0,0,0-1,2,2,2,0,0,0,.64,1.61A2.63,2.63,0,0,0,27.47,325.38Z"/><path class="cls-4" d="M41.46,325.38a6.4,6.4,0,0,0,1-.08c.32-.05.58-.1.77-.15v1.48a3.93,3.93,0,0,1-.94.26,7.72,7.72,0,0,1-1.1.09c-2.49,0-3.73-1.3-3.73-3.92v-7.64H35.61v-.94l1.84-.81.82-2.74H39.4v3h3.72v1.51H39.4V323a2.6,2.6,0,0,0,.55,1.78A1.92,1.92,0,0,0,41.46,325.38Z"/><path class="cls-4" d="M53.68,326.75l-.39-1.83H53.2a5.4,5.4,0,0,1-1.92,1.64,5.9,5.9,0,0,1-2.38.42,4.3,4.3,0,0,1-3-1,3.6,3.6,0,0,1-1.08-2.8c0-2.59,2.08-3.95,6.22-4.08l2.18-.07v-.8a3.23,3.23,0,0,0-.65-2.23,2.66,2.66,0,0,0-2.08-.72,8.42,8.42,0,0,0-3.63,1l-.6-1.49a9.28,9.28,0,0,1,4.35-1.1,4.87,4.87,0,0,1,3.4,1A4.23,4.23,0,0,1,55.12,318v8.77Zm-4.39-1.37a3.92,3.92,0,0,0,2.85-1,3.68,3.68,0,0,0,1-2.79v-1.16l-2,.09a6.92,6.92,0,0,0-3.34.72,2.15,2.15,0,0,0-1,2,2,2,0,0,0,.64,1.61A2.63,2.63,0,0,0,49.29,325.38Z"/><path class="cls-4" d="M75.32,322.19a4.18,4.18,0,0,1-1.64,3.53A7.11,7.11,0,0,1,69.23,327a11.26,11.26,0,0,1-4.69-.78v-1.92a12.89,12.89,0,0,0,2.3.7,12.25,12.25,0,0,0,2.46.26,4.91,4.91,0,0,0,3-.76,2.47,2.47,0,0,0,1-2.1,2.7,2.7,0,0,0-.36-1.46,3.38,3.38,0,0,0-1.19-1.05,17.26,17.26,0,0,0-2.55-1.09,8.06,8.06,0,0,1-3.42-2,4.48,4.48,0,0,1-1-3.05,3.82,3.82,0,0,1,1.48-3.16,6.22,6.22,0,0,1,3.94-1.17,11.5,11.5,0,0,1,4.7.94L74.27,312a10.67,10.67,0,0,0-4.12-.89,4,4,0,0,0-2.48.68,2.26,2.26,0,0,0-.89,1.89,2.89,2.89,0,0,0,.33,1.46,3.12,3.12,0,0,0,1.11,1,13.22,13.22,0,0,0,2.38,1,9.43,9.43,0,0,1,3.71,2.06A4,4,0,0,1,75.32,322.19Z"/><path class="cls-4" d="M82.68,325.38a6.43,6.43,0,0,0,1-.08c.32-.05.57-.1.76-.15v1.48a3.7,3.7,0,0,1-.93.26,7.74,7.74,0,0,1-1.11.09c-2.48,0-3.72-1.3-3.72-3.92v-7.64H76.84v-.94l1.84-.81.82-2.74h1.12v3h3.73v1.51H80.62V323a2.65,2.65,0,0,0,.55,1.78A1.93,1.93,0,0,0,82.68,325.38Z"/><path class="cls-4" d="M98.09,320.32a7,7,0,0,1-1.58,4.9A5.55,5.55,0,0,1,92.14,327a5.78,5.78,0,0,1-3.06-.8A5.36,5.36,0,0,1,87,323.86a8.16,8.16,0,0,1-.73-3.54,7.12,7.12,0,0,1,1.57-4.9,5.58,5.58,0,0,1,4.36-1.75,5.44,5.44,0,0,1,4.29,1.8A7.08,7.08,0,0,1,98.09,320.32Zm-9.78,0a6.14,6.14,0,0,0,1,3.75,3.9,3.9,0,0,0,5.8,0,6,6,0,0,0,1-3.75,5.94,5.94,0,0,0-1-3.72,3.49,3.49,0,0,0-2.93-1.28,3.42,3.42,0,0,0-2.88,1.26A6,6,0,0,0,88.31,320.32Z"/><path class="cls-4" d="M107.36,313.67a7.93,7.93,0,0,1,1.54.14l-.27,1.81a6.47,6.47,0,0,0-1.41-.18,3.4,3.4,0,0,0-2.66,1.27,4.59,4.59,0,0,0-1.11,3.15v6.89h-2V313.91h1.61l.22,2.38h.1a5.64,5.64,0,0,1,1.72-1.94A3.89,3.89,0,0,1,107.36,313.67Z"/><path class="cls-4" d="M116.73,327a5.9,5.9,0,0,1-4.5-1.73,6.75,6.75,0,0,1-1.64-4.82,7.44,7.44,0,0,1,1.53-4.93,5,5,0,0,1,4.1-1.83,4.83,4.83,0,0,1,3.82,1.59,6.09,6.09,0,0,1,1.41,4.19v1.23H112.6a5.09,5.09,0,0,0,1.14,3.43,3.94,3.94,0,0,0,3.06,1.18,10.31,10.31,0,0,0,4.1-.87v1.73a10.28,10.28,0,0,1-2,.64A11,11,0,0,1,116.73,327Zm-.53-11.68a3.2,3.2,0,0,0-2.47,1,4.66,4.66,0,0,0-1.08,2.79h6.71a4.25,4.25,0,0,0-.82-2.82A2.89,2.89,0,0,0,116.2,315.3Z"/><path class="cls-4" d="M133.05,323.25a3.2,3.2,0,0,1-1.34,2.76,6.27,6.27,0,0,1-3.75,1,8.13,8.13,0,0,1-4-.8v-1.81a9.83,9.83,0,0,0,2,.74,8.24,8.24,0,0,0,2,.27,4.6,4.6,0,0,0,2.35-.49,1.67,1.67,0,0,0,.17-2.76,10,10,0,0,0-2.54-1.26,13.9,13.9,0,0,1-2.55-1.17,3.58,3.58,0,0,1-1.13-1.13,3,3,0,0,1-.36-1.51,2.88,2.88,0,0,1,1.27-2.48,6,6,0,0,1,3.51-.91,10.12,10.12,0,0,1,4.05.85l-.69,1.58a9.36,9.36,0,0,0-3.5-.8,4.13,4.13,0,0,0-2.09.43,1.34,1.34,0,0,0-.7,1.2,1.43,1.43,0,0,0,.26.88,2.7,2.7,0,0,0,.85.69,18,18,0,0,0,2.25.95,8.31,8.31,0,0,1,3.09,1.68A3,3,0,0,1,133.05,323.25Z"/><path class="cls-4" d="M443.85,326h-2V310.61h-5.43v-1.77h12.85v1.77h-5.43Z"/><path class="cls-4" d="M462.65,319.54a7.09,7.09,0,0,1-1.58,4.9,5.58,5.58,0,0,1-4.37,1.77,5.78,5.78,0,0,1-3.06-.81,5.38,5.38,0,0,1-2.07-2.32,8.17,8.17,0,0,1-.72-3.54,7.06,7.06,0,0,1,1.57-4.89,5.54,5.54,0,0,1,4.36-1.75,5.42,5.42,0,0,1,4.28,1.79A7,7,0,0,1,462.65,319.54Zm-9.79,0a6.07,6.07,0,0,0,1,3.75,3.4,3.4,0,0,0,2.89,1.29,3.44,3.44,0,0,0,2.9-1.28,6.09,6.09,0,0,0,1-3.76,6,6,0,0,0-1-3.72,3.46,3.46,0,0,0-2.92-1.27,3.43,3.43,0,0,0-2.88,1.25A6,6,0,0,0,452.86,319.54Z"/><path class="cls-4" d="M477.14,319.54a7,7,0,0,1-1.58,4.9,5.55,5.55,0,0,1-4.37,1.77,5.78,5.78,0,0,1-3.06-.81,5.3,5.3,0,0,1-2.06-2.32,8.16,8.16,0,0,1-.73-3.54,7.11,7.11,0,0,1,1.57-4.89,5.55,5.55,0,0,1,4.36-1.75,5.43,5.43,0,0,1,4.29,1.79A7,7,0,0,1,477.14,319.54Zm-9.78,0a6.14,6.14,0,0,0,1,3.75,3.91,3.91,0,0,0,5.8,0,6.09,6.09,0,0,0,1-3.76,6,6,0,0,0-1-3.72,3.48,3.48,0,0,0-2.93-1.27,3.44,3.44,0,0,0-2.88,1.25A6,6,0,0,0,467.36,319.54Z"/><path class="cls-4" d="M482.5,326h-1.95V307.74h1.95Z"/><path class="cls-4" d="M494.91,322.47a3.23,3.23,0,0,1-1.34,2.77,6.34,6.34,0,0,1-3.75,1,8.12,8.12,0,0,1-4-.81v-1.8a9.81,9.81,0,0,0,2,.73,8.18,8.18,0,0,0,2,.27,4.64,4.64,0,0,0,2.34-.48,1.62,1.62,0,0,0,.83-1.49,1.6,1.6,0,0,0-.66-1.28,10.44,10.44,0,0,0-2.53-1.26,13.37,13.37,0,0,1-2.55-1.16,3.5,3.5,0,0,1-1.13-1.14,3,3,0,0,1-.37-1.51,2.9,2.9,0,0,1,1.28-2.48,6,6,0,0,1,3.51-.9,10.28,10.28,0,0,1,4.05.84l-.69,1.58a9.36,9.36,0,0,0-3.5-.8,4,4,0,0,0-2.09.44,1.34,1.34,0,0,0-.7,1.19,1.41,1.41,0,0,0,.26.88,2.57,2.57,0,0,0,.85.69,18,18,0,0,0,2.25.95,8.61,8.61,0,0,1,3.09,1.68A3,3,0,0,1,494.91,322.47Z"/><path class="cls-5" d="M255,248.7a24.46,24.46,0,0,0-5.07,6.21c-38.43,2.39-66.79,12.9-66.79,50.56a29.82,29.82,0,0,0,.72,6.4h87.82V263Z"/><path class="cls-6" d="M362.3,305.47c0-36.56-26.74-47.54-63.47-50.33a24.81,24.81,0,0,0-6.78-7.82l-19.33,16.56-1-.88v48.87h89.88A29.83,29.83,0,0,0,362.3,305.47Z"/><path class="cls-3" d="M265.14,304.08l-14.75-6.51v-2.12l14.75-7.37v3.57L255,296.35l10.16,4.18Z"/><path class="cls-3" d="M278.86,285.38l-8.1,21.71h-4.11l8.09-21.71Z"/><path class="cls-3" d="M280.31,300.53l10.16-4.18-10.16-4.7v-3.57l14.75,7.37v2.12l-14.75,6.51Z"/><path class="cls-7" d="M231,229.36c-4,30.09,26.65,51,41.59,49.58V179.77C247.88,179.77,234.65,202.21,231,229.36Z"/><path class="cls-8" d="M314.21,229.36c0-27.39-16.86-49.59-41.59-49.59v99.17C285.42,278.94,314.21,256.74,314.21,229.36Z"/><path class="cls-8" d="M251.09,238.71c2.81-7-.17-15.27-6.61-18.33s-14,.19-16.8,7.21l-33.34,83.58c-.12.3-.21.6-.31.9h27.79Z"/><path class="cls-7" d="M350.9,311.17l-33.35-83.58c-2.8-7-10.36-10.27-16.8-7.21s-9.41,11.3-6.61,18.33l29.28,73.36h27.79C351.11,311.77,351,311.47,350.9,311.17Z"/><rect class="cls-9" x="163.53" y="314.39" width="222.82" height="11.61"/><path class="cls-10" d="M270.77,161.92v-1a8.54,8.54,0,0,1,.7-3.72,9.86,9.86,0,0,1,2.59-3.09,17.5,17.5,0,0,0,3.32-3.36,5.05,5.05,0,0,0,.69-2.71,3.78,3.78,0,0,0-1.27-3.05,5.52,5.52,0,0,0-3.65-1.07,12.34,12.34,0,0,0-3,.36,15.67,15.67,0,0,0-3.33,1.3l-1.15-2.61a16.25,16.25,0,0,1,7.65-1.92,8.41,8.41,0,0,1,5.76,1.82,6.49,6.49,0,0,1,2,5.13,7.49,7.49,0,0,1-.38,2.49,7.26,7.26,0,0,1-1.11,2,26.45,26.45,0,0,1-3.18,3.09,11.91,11.91,0,0,0-2.58,2.77,5.89,5.89,0,0,0-.63,2.94v.64Zm-.95,5.75c0-1.75.77-2.63,2.32-2.63a2.24,2.24,0,0,1,1.74.68,2.85,2.85,0,0,1,.61,1.95,2.8,2.8,0,0,1-.62,1.93,2.22,2.22,0,0,1-1.73.69,2.33,2.33,0,0,1-1.66-.61A2.64,2.64,0,0,1,269.82,167.67Z"/><path class="cls-10" d="M290.24,163.27l.46-.94a8.65,8.65,0,0,1,2.27-3,10.1,10.1,0,0,1,3.69-1.63,17.07,17.07,0,0,0,4.46-1.54,5.07,5.07,0,0,0,1.82-2.13,3.8,3.8,0,0,0,.21-3.3,5.54,5.54,0,0,0-2.81-2.57,12.72,12.72,0,0,0-2.83-1,16.13,16.13,0,0,0-3.57-.29l.13-2.85a16.3,16.3,0,0,1,7.71,1.65,8.36,8.36,0,0,1,4.36,4.17,6.54,6.54,0,0,1-.42,5.52,7.66,7.66,0,0,1-1.44,2.06,7.07,7.07,0,0,1-1.9,1.34,27.62,27.62,0,0,1-4.21,1.37,12.05,12.05,0,0,0-3.54,1.34,6,6,0,0,0-1.87,2.37l-.28.57ZM286.85,168c.77-1.57,1.86-2,3.25-1.34a2.19,2.19,0,0,1,1.25,1.38,3.36,3.36,0,0,1-1.72,3.48,2.18,2.18,0,0,1-1.85-.15,2.36,2.36,0,0,1-1.23-1.28A2.66,2.66,0,0,1,286.85,168Z"/><path class="cls-10" d="M252.09,166.44l-.61-.85a8.87,8.87,0,0,1-1.58-3.45,10.17,10.17,0,0,1,.34-4,17.93,17.93,0,0,0,.79-4.66,5.15,5.15,0,0,0-1-2.61,3.77,3.77,0,0,0-2.8-1.76,5.51,5.51,0,0,0-3.6,1.22,12,12,0,0,0-2.23,2,15.79,15.79,0,0,0-2,3L237,153.84a16.22,16.22,0,0,1,5.14-6,8.42,8.42,0,0,1,5.75-1.83,6.5,6.5,0,0,1,4.64,3,6.89,6.89,0,0,1,1.39,4.56,25.55,25.55,0,0,1-.82,4.35,12.16,12.16,0,0,0-.51,3.76,5.89,5.89,0,0,0,1.18,2.77l.37.52Zm2.54,5.25c-1-1.44-.89-2.6.38-3.49a2.2,2.2,0,0,1,1.81-.45,2.84,2.84,0,0,1,1.62,1.25,2.77,2.77,0,0,1,.61,1.93,2.23,2.23,0,0,1-1,1.56,2.36,2.36,0,0,1-1.71.46A2.62,2.62,0,0,1,254.63,171.69Z"/></svg>