<svg id="Layer_1" data-name="Layer 1" xmlns="http://www.w3.org/2000/svg" viewBox="0 0 96.53 96.53"><defs><style>.cls-1{fill:#272f3d;}.cls-2{fill:#f19c38;}</style></defs><path class="cls-1" d="M27.32,40.41a9.43,9.43,0,0,0,.35,2.84,16.18,16.18,0,0,0,1,2.3,1.36,1.36,0,0,1,.22.73,1.27,1.27,0,0,1-.6,1l-2,1.34a1.52,1.52,0,0,1-.83.29,1.47,1.47,0,0,1-.95-.45,9.83,9.83,0,0,1-1.15-1.5c-.32-.54-.64-1.15-1-1.88A11.78,11.78,0,0,1,13,49.44a8.78,8.78,0,0,1-6.39-2.29A8.24,8.24,0,0,1,4.23,41a8.21,8.21,0,0,1,2.91-6.57A11.61,11.61,0,0,1,15,32a25.05,25.05,0,0,1,3.38.25c1.19.16,2.4.42,3.68.71V30.57c0-2.42-.51-4.11-1.5-5.1S17.77,24,15.31,24a14.37,14.37,0,0,0-3.45.41A25.6,25.6,0,0,0,8.41,25.5a9,9,0,0,1-1.11.41,1.85,1.85,0,0,1-.51.1c-.45,0-.67-.32-.67-1V23.45a2,2,0,0,1,.22-1.11,2.33,2.33,0,0,1,.89-.67,18,18,0,0,1,4-1.44,19.09,19.09,0,0,1,5-.61c3.8,0,6.57.86,8.36,2.59s2.65,4.34,2.65,7.85V40.41Zm-13,4.85a10.41,10.41,0,0,0,3.29-.57,7.24,7.24,0,0,0,3-2,5,5,0,0,0,1.08-2,11.55,11.55,0,0,0,.32-2.78V36.48a28.44,28.44,0,0,0-2.94-.54,23.58,23.58,0,0,0-3-.19A7.39,7.39,0,0,0,11.38,37,4.48,4.48,0,0,0,9.82,40.7,4.45,4.45,0,0,0,11,44.08a4.42,4.42,0,0,0,3.35,1.18ZM40,48.71a1.79,1.79,0,0,1-1.21-.32,2.55,2.55,0,0,1-.67-1.24l-7.5-24.69a5.12,5.12,0,0,1-.29-1.27.7.7,0,0,1,.76-.8h3.13a1.76,1.76,0,0,1,1.25.32A2.65,2.65,0,0,1,36.1,22l5.36,21.14,5-21.14a2.18,2.18,0,0,1,.61-1.24,2.19,2.19,0,0,1,1.28-.32h2.55a1.9,1.9,0,0,1,1.28.32,2.14,2.14,0,0,1,.6,1.24l5.05,21.4L63.33,22A2.71,2.71,0,0,1,64,20.71a2.11,2.11,0,0,1,1.25-.32h3a.7.7,0,0,1,.79.8,3.34,3.34,0,0,1-.06.51,5,5,0,0,1-.22.8L61,47.18a2.37,2.37,0,0,1-.67,1.24,2,2,0,0,1-1.21.32H56.37a1.9,1.9,0,0,1-1.28-.32,2.31,2.31,0,0,1-.6-1.27l-5-20.6L44.62,47.11a2.53,2.53,0,0,1-.6,1.28,2,2,0,0,1-1.28.32Zm41,.86A21.35,21.35,0,0,1,76.1,49a14.82,14.82,0,0,1-3.67-1.28,2.38,2.38,0,0,1-1-.89,2.24,2.24,0,0,1-.19-.9V44.3c0-.67.26-1,.73-1a1.91,1.91,0,0,1,.58.1c.19.06.48.19.8.32a17.36,17.36,0,0,0,3.51,1.12,19.59,19.59,0,0,0,3.8.38,8.62,8.62,0,0,0,4.66-1,3.45,3.45,0,0,0,1.66-3,3.11,3.11,0,0,0-.86-2.23,8,8,0,0,0-3.23-1.66l-4.63-1.44a9.66,9.66,0,0,1-5.1-3.26,7.56,7.56,0,0,1-1.6-4.63,7.14,7.14,0,0,1,.86-3.54,8.25,8.25,0,0,1,2.3-2.62,10.15,10.15,0,0,1,3.32-1.66,14,14,0,0,1,4-.54,15.28,15.28,0,0,1,2.14.13c.74.09,1.41.22,2.08.35s1.24.32,1.82.51a7.14,7.14,0,0,1,1.34.57,2.75,2.75,0,0,1,1,.8A1.75,1.75,0,0,1,90.69,23v1.5c0,.67-.25,1-.73,1a3.23,3.23,0,0,1-1.21-.39,14.63,14.63,0,0,0-6.13-1.24,8.33,8.33,0,0,0-4.25.89,3.09,3.09,0,0,0-1.5,2.84,3,3,0,0,0,1,2.27,9.45,9.45,0,0,0,3.51,1.76l4.53,1.43a9.75,9.75,0,0,1,4.95,3.07,7.23,7.23,0,0,1,1.47,4.47,8.22,8.22,0,0,1-.83,3.7,8.42,8.42,0,0,1-2.33,2.81,10.18,10.18,0,0,1-3.54,1.79,15.12,15.12,0,0,1-4.57.67Z"/><path class="cls-2" d="M87.05,65.09C76.55,72.85,61.29,77,48.17,77A70.3,70.3,0,0,1,.69,58.86c-1-.89-.1-2.1,1.08-1.4A95.81,95.81,0,0,0,49.28,70.07a94.8,94.8,0,0,0,36.24-7.41c1.76-.8,3.26,1.15,1.53,2.43Z"/><path class="cls-2" d="M91.43,60.11c-1.34-1.73-8.88-.83-12.29-.42-1,.13-1.18-.76-.26-1.43,6-4.22,15.87-3,17-1.6S95.58,68,90,72.69c-.86.73-1.69.35-1.31-.61C89.93,68.92,92.77,61.8,91.43,60.11Z"/></svg>