<svg id="Layer_1" data-name="Layer 1" xmlns="http://www.w3.org/2000/svg" viewBox="0 0 523.4 334.87"><defs><style>.cls-1{opacity:0.41;}.cls-2{fill:#f2dfee;opacity:0.7;}.cls-3{fill:#f2dfc4;}.cls-4{fill:#f4d39f;}.cls-5{fill:#ffb93e;}.cls-6{fill:#4700e9;}.cls-7{fill:#fff;}</style></defs><g class="cls-1"><circle class="cls-2" cx="228.16" cy="167.44" r="111.52"/><circle class="cls-2" cx="335.79" cy="140.92" r="70.97"/></g><path class="cls-3" d="M260.53,45.15a115.34,115.34,0,0,1-33,36.37c-20,14.49-42.38,21.75-62.17,21.75-1.54,0-3.07,0-4.58-.13h-.08a1.38,1.38,0,0,0-1.38,1.39c0,12.35-.13,21.13-.13,33.06,0,112.85,81.46,148.54,99.31,152.43a17,17,0,0,0,2.83.37V44.52A1.36,1.36,0,0,0,260.53,45.15Z"/><path class="cls-4" d="M264.35,290.13c16.6-3.49,99.88-38.44,99.88-152.55,0-11.93-.13-20.71-.14-33.06a1.38,1.38,0,0,0-1.37-1.39h-.08c-1.51.08-3,.13-4.58.13-19.8,0-42.12-7.26-62.17-21.75a115.34,115.34,0,0,1-33-36.37,1.34,1.34,0,0,0-1.17-.69,1.32,1.32,0,0,0-.39.06V290.38l.51,0A25.4,25.4,0,0,0,264.35,290.13Z"/><path class="cls-5" d="M261.7,74.79a139.43,139.43,0,0,0,23.54,21.46c18.81,13.6,40,22.08,60.74,24.49v.2c0,5.33.07,10.57.07,16.64,0,42.89-6.85,70.91-29.74,97.62S269,270.42,261.7,272.1c-7-1.61-25.5-6.39-48.38-29.28-22.89-26.7-36-62.72-36-105.24,0-6.07,0-11.32.07-16.64v-.2c20.75-2.41,41.93-10.89,60.74-24.49A139.82,139.82,0,0,0,261.7,74.79m0-30.33a1.34,1.34,0,0,0-1.17.69,115.34,115.34,0,0,1-33,36.37c-20,14.49-42.38,21.75-62.17,21.75-1.54,0-3.07,0-4.58-.13h-.08a1.38,1.38,0,0,0-1.38,1.39c0,12.35-.13,21.13-.13,33.06,0,112.85,81.46,148.54,99.31,152.43a15.72,15.72,0,0,0,3.34.4,25.4,25.4,0,0,0,2.53-.28c16.6-3.49,99.88-38.44,99.88-152.55,0-11.93-.13-20.71-.14-33.06a1.38,1.38,0,0,0-1.37-1.39h-.08c-1.51.08-3,.13-4.58.13-19.8,0-42.12-7.26-62.17-21.75a115.34,115.34,0,0,1-33-36.37,1.34,1.34,0,0,0-1.17-.69Z"/><path class="cls-6" d="M326.69,172.73l-52.23,90.46a6.93,6.93,0,0,0,6,10.39H384.92a6.93,6.93,0,0,0,6-10.39l-52.23-90.46A6.93,6.93,0,0,0,326.69,172.73Z"/><path class="cls-7" d="M327.34,234.19l-1.55-23.28q-.44-6.79-.44-9.77a8.85,8.85,0,0,1,2.11-6.29,7.27,7.27,0,0,1,5.57-2.26q4.19,0,5.59,2.89t1.41,8.34c0,2.13-.12,4.3-.34,6.51l-2.09,24a19,19,0,0,1-1.46,6.56,3.83,3.83,0,0,1-3.7,2.28,3.67,3.67,0,0,1-3.64-2.21A21.94,21.94,0,0,1,327.34,234.19Zm5.4,32a7.66,7.66,0,0,1-5.18-1.92,6.75,6.75,0,0,1-2.21-5.37,7.2,7.2,0,0,1,7.29-7.24,7.18,7.18,0,0,1,5.22,2.11,6.88,6.88,0,0,1,2.17,5.13,6.79,6.79,0,0,1-2.19,5.35A7.47,7.47,0,0,1,332.74,266.17Z"/></svg>