<svg id="Layer_1" data-name="Layer 1" xmlns="http://www.w3.org/2000/svg" viewBox="0 0 523.4 334.87"><defs><style>.cls-1{opacity:0.41;}.cls-2{fill:#f2dfee;opacity:0.7;}.cls-3{fill:#ffb93f;}.cls-4{fill:#db9019;}.cls-5{fill:#ffdeb6;}.cls-6{fill:#f2cca2;}.cls-7{fill:#3002c1;}.cls-8{fill:#dbae82;}.cls-9{fill:#4700e9;}.cls-10{fill:#fff;}.cls-11{fill:#8fe1e5;}</style></defs><g class="cls-1"><circle class="cls-2" cx="228.16" cy="167.44" r="111.52"/><circle class="cls-2" cx="335.79" cy="140.92" r="70.97"/></g><path class="cls-3" d="M239.13,170.63a28.59,28.59,0,0,0-5.91,7.25C159.31,179,144.65,221,144.65,265a35.22,35.22,0,0,0,.63,7.48H258.63V187.35Z"/><path class="cls-4" d="M278.14,170.63a28.59,28.59,0,0,1,5.91,7.25C358,179,372.62,221,372.62,265a35.22,35.22,0,0,1-.63,7.48H258.63V187.35Z"/><path class="cls-5" d="M210.25,138.76c-4.69,35.17,31.14,59.63,48.59,57.94V80.81C229.94,80.81,214.48,107,210.25,138.76Z"/><path class="cls-6" d="M307.44,138.76c0-32-19.69-57.95-48.6-57.95V196.7C273.8,196.7,307.44,170.76,307.44,138.76Z"/><path class="cls-7" d="M122.43,275.52H401a7.45,7.45,0,0,1,7.45,7.45v6.11a0,0,0,0,1,0,0H115a0,0,0,0,1,0,0V283A7.45,7.45,0,0,1,122.43,275.52Z"/><path class="cls-5" d="M194.91,259.24c-4.2-7.19-13.63-9.05-21-4.13l-25.9,17.39H196A15.9,15.9,0,0,0,194.91,259.24Z"/><path class="cls-8" d="M324.18,259.24c4.19-7.19,13.63-9.05,21-4.13L371,272.5H323.14A15.9,15.9,0,0,1,324.18,259.24Z"/><polygon class="cls-9" points="325.72 272.5 192.5 272.5 180.81 203.55 337.4 203.55 325.72 272.5"/><path class="cls-10" d="M250.24,254.12,233,246.52V244l17.23-8.6v4.16l-11.87,5.5L250.24,250Z"/><path class="cls-10" d="M266.28,232.27l-9.46,25.37H252l9.46-25.37Z"/><path class="cls-10" d="M268,250l11.87-4.88L268,239.59v-4.16L285.2,244v2.49L268,254.12Z"/><path class="cls-11" d="M253.39,52.53c1.2,12.78-.61,22.46-2.46,17.2-1.37-3.87-7.87-11.48-12.34-15.81-3-2.86,2.62-7.72,6.7-8.1A7.44,7.44,0,0,1,253.39,52.53Z"/><path class="cls-11" d="M224.9,53.52c9.61,11,14.39,21,9.19,17.45-3.83-2.65-14.87-5.32-21.87-6.32-4.61-.66-2.72-8.83.78-11.91A8.43,8.43,0,0,1,224.9,53.52Z"/><path class="cls-11" d="M219.18,74.51c8.6,1.76,14.57,4.86,10.77,5-2.81.12-9.08,2.86-12.81,4.93-2.45,1.37-4.52-3.25-4-6A5.08,5.08,0,0,1,219.18,74.51Z"/></svg>