<svg id="Layer_1" data-name="Layer 1" xmlns="http://www.w3.org/2000/svg" viewBox="0 0 523.4 334.87"><defs><style>.cls-1{opacity:0.41;}.cls-2{fill:#f2dfee;opacity:0.7;}.cls-3{fill:#8fe1e5;}.cls-4{fill:#db9019;}.cls-5{fill:#4700e9;}.cls-6{fill:#fff;}.cls-7{fill:#ffb93e;}.cls-8{fill:#efa125;}</style></defs><g class="cls-1"><circle class="cls-2" cx="228.16" cy="167.44" r="111.52"/><circle class="cls-2" cx="335.79" cy="140.92" r="70.97"/></g><path class="cls-3" d="M336,55.15c-1.34,36.1-16.55,68.69-40.37,85.92a66.75,66.75,0,0,1-5.74,3.72c-1.25.63-2.39,1.25-3.47,1.9C277.1,152.34,272,160,272,168.28s5.13,15.95,14.46,21.59c1.08.65,2.22,1.27,3.47,1.9,2,1.18,4,2.44,5.74,3.72,23.82,17.24,39,49.82,40.37,85.92H184c1.34-36.1,16.55-68.68,40.36-85.92,1.78-1.28,3.71-2.54,5.75-3.72,1.25-.63,2.39-1.25,3.47-1.9,9.32-5.64,14.46-13.31,14.46-21.59s-5.14-15.94-14.46-21.59c-1.08-.65-2.22-1.27-3.47-1.9a67,67,0,0,1-5.75-3.72c-23.81-17.23-39-49.82-40.36-85.92H336m7.07-7H176.94c0,.6,0,1.2,0,1.81,0,41.77,17.53,78.11,43.36,96.8A77.33,77.33,0,0,0,226.8,151c1.1.55,2.16,1.12,3.16,1.72,6.85,4.15,11.08,9.59,11.08,15.59s-4.23,11.44-11.08,15.59c-1,.6-2.06,1.17-3.16,1.72a77.33,77.33,0,0,0-6.54,4.22c-25.83,18.69-43.36,55-43.36,96.8,0,.61,0,1.21,0,1.81H343.08c0-.6,0-1.2,0-1.81,0-41.77-17.52-78.11-43.36-96.8a77.17,77.17,0,0,0-6.53-4.22c-1.11-.55-2.16-1.12-3.16-1.72-6.85-4.15-11.08-9.59-11.08-15.59s4.23-11.44,11.08-15.59c1-.6,2.05-1.17,3.16-1.72a77.17,77.17,0,0,0,6.53-4.22c25.84-18.69,43.36-55,43.36-96.8,0-.61,0-1.21,0-1.81Z"/><path class="cls-4" d="M176.68,279H343.33a5.62,5.62,0,0,1,5.62,5.62V295.9a0,0,0,0,1,0,0H171.06a0,0,0,0,1,0,0V284.62A5.62,5.62,0,0,1,176.68,279Z"/><path class="cls-4" d="M171.06,39H349a0,0,0,0,1,0,0V50.25a5.62,5.62,0,0,1-5.62,5.62H176.68a5.62,5.62,0,0,1-5.62-5.62V39A0,0,0,0,1,171.06,39Z"/><path class="cls-5" d="M279.6,193.9c-.15-.07-.29-.15-.44-.21-1-.46-2-.88-3.07-1.26a12.62,12.62,0,0,1-3.29-1.73c-7.89-6-12.84-18.42-12.84-18.42s-7.79,15.8-16.71,20.37a12.81,12.81,0,0,1-1.74.72c-.37.16-.73.36-1.09.53-23.3,10.88-41,40.53-44.82,77H324.42C320.57,234.43,302.9,204.78,279.6,193.9Z"/><path class="cls-5" d="M224.55,132.36A60,60,0,0,0,239.7,142.7c.38.18.75.39,1.14.56a12.5,12.5,0,0,1,1.8.75c9.24,4.75,17.32,21.15,17.32,21.15a60.57,60.57,0,0,1,9.1-15.11,24.3,24.3,0,0,1,9.21-6.44c.53-.22,1.06-.44,1.58-.68l.46-.23c11.06-5.17,20.87-14.46,28.66-26.63Z"/><rect class="cls-6" x="237.27" y="92.95" width="52.23" height="28.83" transform="translate(-16.29 55.58) rotate(-11.69)"/><rect class="cls-3" x="246.17" y="105.76" width="10.85" height="17.41" transform="translate(-17.97 53.34) rotate(-11.69)"/><rect class="cls-3" x="258.86" y="101.54" width="26.26" height="17.41" transform="translate(-16.69 57.39) rotate(-11.69)"/><rect class="cls-4" x="240.5" y="121.44" width="52.23" height="3.14" transform="translate(-19.39 56.56) rotate(-11.69)"/><path class="cls-7" d="M227.28,74.46l1.23,6,1.17,17.07a5.36,5.36,0,0,0,.07,1.6l0,.15v.06A5.2,5.2,0,0,0,240,97.19h0l-5-24.32Z"/><path class="cls-7" d="M265.57,66.54l5,24.32h0a5.2,5.2,0,0,0,10.18-2.11h0l-5-24.32Z"/><path class="cls-7" d="M245.17,70.76l5,24.32h0A5.2,5.2,0,0,0,260.38,93h0l-5-24.32Z"/><path class="cls-8" d="M235,72.87l5,24.32h0a5.2,5.2,0,0,0,10.18-2.11h0l-5-24.32Z"/><path class="cls-8" d="M255.37,68.65l5,24.32h0a5.2,5.2,0,0,0,10.18-2.11h0l-5-24.32Z"/><path class="cls-8" d="M284.69,68.79l-1.24-6-7.68,1.59,5,24.32h0A5.2,5.2,0,0,0,291,86.64v-.06l0-.15a5.32,5.32,0,0,0-.56-1.5Z"/></svg>