<svg id="Layer_1" data-name="Layer 1" xmlns="http://www.w3.org/2000/svg" viewBox="0 0 523.4 334.87"><defs><style>.cls-1{fill:#f4e9de;opacity:0.6;}.cls-2{fill:#05a0b5;}.cls-3{fill:#fff;}</style></defs><circle class="cls-1" cx="238.37" cy="174" r="143"/><circle class="cls-1" cx="376.37" cy="140" r="91"/><path class="cls-2" d="M363,160.17A46.94,46.94,0,0,0,297.06,99,77,77,0,0,0,152.3,135.41a78,78,0,0,0,.46,8.27,68.18,68.18,0,0,0,15.35,132.41v.33H358.62A58.21,58.21,0,0,0,363,160.17Z"/><path class="cls-3" d="M285.92,178.44H280.7v-14a28,28,0,0,0-56,0v14h-5.22a3.78,3.78,0,0,0-3.78,3.78v52.44a3.78,3.78,0,0,0,3.78,3.78h66.44a3.78,3.78,0,0,0,3.78-3.78V182.22A3.78,3.78,0,0,0,285.92,178.44Zm-32.22,51a12,12,0,0,1-4-23.31V194.44a4,4,0,0,1,8,0v11.69a12,12,0,0,1-4,23.31Zm18.32-51H233.38V164.13a19.32,19.32,0,0,1,38.64,0Z"/></svg>