<svg width="98" height="98" viewBox="0 0 98 98" fill="none" xmlns="http://www.w3.org/2000/svg">
<circle cx="49" cy="49" r="49" fill="#48A8B9"/>
<path d="M40.8345 61.4464L52.5769 34.0209C53.0026 33.0267 54.1537 32.5658 55.148 32.9915C56.0712 33.3868 56.5346 34.4075 56.2552 35.3474L56.1775 35.5625L44.435 62.988C44.0093 63.9823 42.8582 64.4432 41.8639 64.0175C40.9407 63.6222 40.4773 62.6014 40.7567 61.6616L40.8345 61.4464L52.5769 34.0209L40.8345 61.4464ZM29.4906 47.1153L37.3239 39.282C38.0887 38.5172 39.3286 38.5172 40.0934 39.282C40.7994 39.9879 40.8537 41.0987 40.2563 41.867L40.0934 42.0515L33.6448 48.5001L40.0934 54.9486C40.8582 55.7134 40.8582 56.9534 40.0934 57.7181C39.3875 58.4241 38.2766 58.4784 37.5084 57.881L37.3239 57.7181L29.4906 49.8848C28.7846 49.1789 28.7303 48.068 29.3277 47.2998L29.4906 47.1153L37.3239 39.282L29.4906 47.1153ZM56.9057 39.2795C57.6116 38.5736 58.7225 38.5194 59.4907 39.1168L59.6752 39.2797L67.5101 47.1154C68.2164 47.8217 68.2703 48.9331 67.6723 49.7013L67.5092 49.8857L59.6742 57.7103C58.9089 58.4746 57.6689 58.4737 56.9047 57.7085C56.1992 57.002 56.1456 55.8912 56.7435 55.1233L56.9065 54.939L63.355 48.4991L56.9055 42.049C56.1408 41.2842 56.1408 40.0443 56.9057 39.2795Z" fill="white"/>
</svg>
