<svg id="Layer_1" data-name="Layer 1" xmlns="http://www.w3.org/2000/svg" viewBox="0 0 196.53 216.53"><defs><style>.cls-1{fill:#fff;}.cls-2{fill:#f2dfee;}.cls-3{fill:#7e5fe0;}.cls-4{fill:#4700e9;}.cls-5{fill:#ffb93e;}</style></defs><rect class="cls-1" x="-0.24" y="-0.24" width="197" height="217"/><path class="cls-2" d="M38.49,209.91V51.78C28.87,57.14,10.51,62.37,0,63.63V34.45C18,30.69,37.52,19.53,49.91,6.62H77.43V209.91Z"/><circle class="cls-3" cx="90.05" cy="37.55" r="15.54"/><circle class="cls-4" cx="90.05" cy="37.55" r="12.09"/><path class="cls-5" d="M119.09,57.38A4.41,4.41,0,0,0,116,61.69v1.76s0,1.72-.85,1.72-.88-1.72-.88-1.72V57.29A4.42,4.42,0,0,0,111.07,53a4.33,4.33,0,0,0-5.48,4.16v6.31s0,1.72-.86,1.72-.87-1.72-.87-1.72V55.83a4.41,4.41,0,0,0-3.15-4.31,4.32,4.32,0,0,0-5.48,4.16v9.49s0,1.73-.88,1.73-.85-1.73-.85-1.73V36.83a4.42,4.42,0,0,0-3.15-4.31,4.33,4.33,0,0,0-5.48,4.16V75.53l-5.56-8.2a4.31,4.31,0,1,0-6.1,6.1l8.2,15.92,8.64,13.81v8.48a1.88,1.88,0,0,0,1.87,1.88h27.33a1.88,1.88,0,0,0,1.88-1.88v-8.48l3.16-14.23a12.44,12.44,0,0,0,.29-2.65V61.54A4.33,4.33,0,0,0,119.09,57.38Z"/></svg>