<?xml version="1.0" encoding="utf-8"?>
<!-- Generator: Adobe Illustrator 24.2.3, SVG Export Plug-In . SVG Version: 6.00 Build 0)  -->
<svg version="1.1" id="Layer_1" xmlns="http://www.w3.org/2000/svg" xmlns:xlink="http://www.w3.org/1999/xlink" x="0px" y="0px"
	 viewBox="0 0 6041.7 2354.5" style="enable-background:new 0 0 6041.7 2354.5;" xml:space="preserve">
<style type="text/css">
	.st0{fill-rule:evenodd;clip-rule:evenodd;fill:#0071F1;}
	.st1{fill:#DF165E;}
	.st2{fill:#51AFC9;}
	.st3{fill:#2DA476;}
	.st4{fill:#EBA038;}
	.st5{fill:#586163;}
</style>
<path id="path24" class="st0" d="M1856.1,231.3l12.3,248.1c201.2,222.2,280.6,537,180.4,832.8
	c-149.4,441.6-642.3,673.8-1100.9,518.5s-709.1-639-559.6-1080.6c100.5-296.8,356.1-499,652.2-552.5l160-189
	C701.3-4.9,230.5,304.8,62,802.5c-207,611.4,120.9,1274.9,732.3,1481.8s1274.9-120.9,1481.9-732.3
	C2444.4,1055.2,2259.4,524,1856.1,231.3"/>
<path id="path26" class="st0" d="M1737.2,963.5l-8.5-346.9l-6.8-199.6l-4.6-173c0,0,1-83.4-2-103c-0.5-3.6-1.7-7.2-3.5-10.4
	l-0.6-1.2l-0.7-1.1c-6.8-12-21.6-16.9-34.2-11.3l-0.4,0.2l-2.1,1.1c-3.1,1.5-6,3.5-8.5,5.9c-14.2,13.8-64.1,80.6-64.1,80.6
	l-108.7,134.6l-126.6,154.5l-217.5,270.4c0,0-99.8,124.5-77.7,277.8s136,228,224.4,257.9s224.3,39.8,334.9-68.5
	S1737.2,963.5,1737.2,963.5"/>
<g>
	<path class="st1" d="M4854.8,1169.3l-786.2,48.4c-82.7,70.3-331.6,647.7,258.8,692.2c133.6,10.2,273.6-90.4,273.6-90.4l57.7-201.1
		L4854.8,1169.3z"/>
	<path class="st2" d="M3725.6,536.1c-49.3,55.2-70.6,112.6-72.2,169.9c-6.5,241.8,338.1,479.3,415.2,511.7l786.2-48.4
		C4854.8,1169.3,4064.5,157,3725.6,536.1z"/>
	<path class="st3" d="M6040.1,493.9c-27.4-77.7-103.6-84.8-205.4-47.8c-272.4,99.6-728.2,517.3-927.8,755.8l407.5,75.3
		C5702.7,1151.4,6069.1,576.2,6040.1,493.9z"/>
	<path class="st4" d="M5314.4,1276.9l-407.5-75.3c-56.1,100.8-248.2,416.7-248.2,416.7l-57.7,201.1c0,0-37.6,160.4,191.5,95
		c1.8-0.6,4-1.2,6.2-1.8c73.1-22.5,160.1-76.5,242.1-146.2C5216.9,1617.7,5370.5,1399.1,5314.4,1276.9z"/>
</g>
<polygon class="st5" points="3332.8,1084.3 3104,1084.3 3104,855.5 2918,855.5 2918,1084.3 2689.2,1084.3 2689.2,1270.2 
	2918,1270.2 2918,1499 3104,1499 3104,1270.2 3332.8,1270.2 "/>
</svg>
