<svg id="Calque_1" data-name="Calque 1" xmlns="http://www.w3.org/2000/svg" viewBox="0 0 858.1 858.1"><defs><style>.cls-1{fill:#df165e;}.cls-2{fill:#51afc9;}.cls-3{fill:#2da476;}.cls-4{fill:#eba038;}</style></defs><path class="cls-1" d="M431.65,426.19,149.73,443.56c-29.64,25.21-118.9,232.26,92.79,248.19,47.9,3.65,98.11-32.41,98.11-32.41l20.68-72.11Z"/><path class="cls-2" d="M26.74,199.13C9.05,218.93,1.41,239.5.86,260.07c-2.32,86.71,121.22,171.87,148.87,183.49l281.92-17.37S148.29,63.2,26.74,199.13Z"/><path class="cls-3" d="M856.69,184c-9.84-27.87-37.16-30.42-73.66-17.15-97.66,35.73-261.13,185.48-332.69,271l146.11,27C735.69,419.78,867.09,213.51,856.69,184Z"/><path class="cls-4" d="M596.45,464.79l-146.11-27c-20.13,36.16-89,149.42-89,149.42l-20.68,72.11s-13.5,57.51,68.68,34.06c.66-.22,1.44-.44,2.21-.66,26.22-8.07,57.41-27.43,86.82-52.42C561.5,587,616.58,508.59,596.45,464.79Z"/></svg>