<?xml version="1.0" encoding="utf-8"?>
<!-- Generator: Adobe Illustrator 24.2.3, SVG Export Plug-In . SVG Version: 6.00 Build 0)  -->
<svg version="1.1" id="Layer_1" xmlns="http://www.w3.org/2000/svg" xmlns:xlink="http://www.w3.org/1999/xlink" x="0px" y="0px"
	 viewBox="0 0 6041.7 2354.5" style="enable-background:new 0 0 6041.7 2354.5;" xml:space="preserve">
<style type="text/css">
	.st0{fill:#DF165E;}
	.st1{fill:#51AFC9;}
	.st2{fill:#2DA476;}
	.st3{fill:#EBA038;}
	.st4{fill:#586163;}
	.st5{fill:#E01E5A;}
	.st6{fill:#36C5F0;}
	.st7{fill:#2EB67D;}
	.st8{fill:#ECB22E;}
</style>
<g>
	<path class="st0" d="M4854.8,1169.3l-786.2,48.4c-82.7,70.3-331.6,647.7,258.8,692.2c133.6,10.2,273.6-90.4,273.6-90.4l57.7-201.1
		L4854.8,1169.3z"/>
	<path class="st1" d="M3725.6,536.1c-49.3,55.2-70.6,112.6-72.2,169.9c-6.5,241.8,338.1,479.3,415.2,511.7l786.2-48.4
		C4854.8,1169.3,4064.5,157,3725.6,536.1z"/>
	<path class="st2" d="M6040.1,493.9c-27.4-77.7-103.6-84.8-205.4-47.8c-272.4,99.6-728.2,517.3-927.8,755.8l407.5,75.3
		C5702.7,1151.4,6069.1,576.2,6040.1,493.9z"/>
	<path class="st3" d="M5314.4,1276.9l-407.5-75.3c-56.1,100.8-248.2,416.7-248.2,416.7l-57.7,201.1c0,0-37.6,160.4,191.5,95
		c1.8-0.6,4-1.2,6.2-1.8c73.1-22.5,160.1-76.5,242.1-146.2C5216.9,1617.7,5370.5,1399.1,5314.4,1276.9z"/>
</g>
<polygon class="st4" points="3382.2,1084.3 3153.4,1084.3 3153.4,855.5 2967.5,855.5 2967.5,1084.3 2738.7,1084.3 2738.7,1270.2 
	2967.5,1270.2 2967.5,1499 3153.4,1499 3153.4,1270.2 3382.2,1270.2 "/>
<g>
	<path class="st5" d="M494.6,1487.8c0,136.6-110.7,247.3-247.3,247.3C110.7,1735.1,0,1624.4,0,1487.8s110.7-247.3,247.3-247.3h247.3
		V1487.8z"/>
	<path class="st5" d="M619.3,1487.8c0.1-136.6,110.8-247.3,247.4-247.2c136.5,0.1,247.1,110.7,247.2,247.2v619.4
		c0,136.6-110.8,247.3-247.4,247.3s-247.3-110.7-247.3-247.3L619.3,1487.8z"/>
	<path class="st6" d="M866.6,494.7c-136.6,0-247.3-110.8-247.3-247.3C619.3,110.7,730.1,0,866.7,0S1114,110.7,1114,247.3v247.3
		H866.6V494.7z"/>
	<path class="st6" d="M866.6,619.3c136.6,0.1,247.3,110.8,247.2,247.4c-0.1,136.5-110.7,247.1-247.2,247.2H247.3
		C110.7,1113.9,0,1003.2,0,866.6s110.7-247.3,247.3-247.3H866.6z"/>
	<path class="st7" d="M1859.8,866.6c0-136.6,110.8-247.3,247.3-247.3c136.6,0,247.3,110.8,247.3,247.3s-110.7,247.2-247.2,247.3
		h-247.4L1859.8,866.6L1859.8,866.6z"/>
	<path class="st7" d="M1735.1,866.6c0,136.6-110.8,247.3-247.4,247.3s-247.3-110.7-247.3-247.3V247.4
		C1240.4,110.8,1351.2,0,1487.7,0s247.3,110.7,247.4,247.3v0.1V866.6z"/>
	<path class="st8" d="M1487.8,1859.8c136.6,0,247.3,110.7,247.3,247.3s-110.7,247.3-247.3,247.3c-136.5,0-247.3-110.7-247.3-247.2
		v-247.4L1487.8,1859.8L1487.8,1859.8z"/>
	<path class="st8" d="M1487.8,1735.1c-136.6,0-247.3-110.8-247.3-247.4s110.7-247.3,247.3-247.3h619.4
		c136.6,0,247.3,110.8,247.3,247.4s-110.7,247.3-247.3,247.3H1487.8z"/>
</g>
</svg>
