<svg id="Layer_1" data-name="Layer 1" xmlns="http://www.w3.org/2000/svg" viewBox="0 0 196.53 216.53"><defs><style>.cls-1{fill:#fff;}.cls-2{opacity:0.6;}.cls-3{fill:#f2dfee;}.cls-4{fill:#ffb93e;}.cls-5{fill:#4700e9;}</style></defs><rect class="cls-1" x="-0.24" y="-0.24" width="197" height="217"/><g class="cls-2"><path class="cls-3" d="M4.62,57.65c3-25,20.62-54.5,68.79-54.5C118.73,3.15,139,29.41,139,57.47,139,82,124.75,94,113.22,98.93v.83c14.88,5.18,33.93,18.58,33.93,49.69,0,30.32-18.55,63.93-74.14,63.93-51.68,0-70.61-31.57-73-58.48H37.42c3.21,15.25,14.14,28.56,36.82,28.56,23.38,0,34.13-15.22,34.13-34.48,0-21.56-12-33.21-36.91-33.21h-17v-30H69.21c22.4,0,31.74-8,31.74-26.4C101,44,91.34,33.5,72.14,33.5c-21.85,0-28.16,12-30.93,24.15Z"/></g><path class="cls-4" d="M133.23,69l-6.37-1.45a29.49,29.49,0,0,0-3.17-7.66l3.48-5.52a1.36,1.36,0,0,0,0-1.91L120.72,46a1.35,1.35,0,0,0-1.91,0l-5.53,3.48a29.23,29.23,0,0,0-7.66-3.18L104.17,40a1.34,1.34,0,0,0-1.35-1.35H93.7A1.35,1.35,0,0,0,92.35,40L90.9,46.34a29.52,29.52,0,0,0-7.66,3.18L77.72,46a1.35,1.35,0,0,0-1.91,0l-6.45,6.45a1.35,1.35,0,0,0,0,1.91l3.48,5.52a29.52,29.52,0,0,0-3.18,7.66L63.3,69A1.35,1.35,0,0,0,62,70.38V79.5a1.34,1.34,0,0,0,1.35,1.35l6.36,1.45A29.23,29.23,0,0,0,72.84,90l-3.48,5.53a1.35,1.35,0,0,0,0,1.91l6.45,6.45a1.35,1.35,0,0,0,1.91,0l5.52-3.48a29.49,29.49,0,0,0,7.66,3.17l1.45,6.37a1.36,1.36,0,0,0,1.35,1.35h9.12a1.35,1.35,0,0,0,1.35-1.35l1.45-6.37a29.21,29.21,0,0,0,7.66-3.17l5.53,3.48a1.35,1.35,0,0,0,1.91,0l6.45-6.45a1.36,1.36,0,0,0,0-1.91L123.69,90a29.21,29.21,0,0,0,3.17-7.66l6.37-1.45a1.35,1.35,0,0,0,1.35-1.35V70.38A1.36,1.36,0,0,0,133.23,69Zm-35,20.69A14.78,14.78,0,1,1,113,74.94,14.78,14.78,0,0,1,98.26,89.72Z"/><path class="cls-5" d="M73.2,71.76l5.07-5.53s10.15,6.92,11.54,9.23c0,0,21.68-29.07,44.75-30.46,0,0-28.6,11.54-44.29,47.06Z"/></svg>