<?xml version="1.0" encoding="utf-8"?>
<!-- Generator: Adobe Illustrator 24.2.3, SVG Export Plug-In . SVG Version: 6.00 Build 0)  -->
<svg version="1.1" id="Layer_1" xmlns="http://www.w3.org/2000/svg" xmlns:xlink="http://www.w3.org/1999/xlink" x="0px" y="0px"
	 viewBox="0 0 6041.7 2354.5" style="enable-background:new 0 0 6041.7 2354.5;" xml:space="preserve">
<style type="text/css">
	.st0{fill:#DF165E;}
	.st1{fill:#51AFC9;}
	.st2{fill:#2DA476;}
	.st3{fill:#EBA038;}
	.st4{fill:#586163;}
	.st5{fill:#5558AF;}
	.st6{fill:#FFFFFF;}
</style>
<g>
	<path class="st0" d="M4854.8,1169.3l-786.2,48.4c-82.7,70.3-331.6,647.7,258.8,692.2c133.6,10.2,273.6-90.4,273.6-90.4l57.7-201.1
		L4854.8,1169.3z"/>
	<path class="st1" d="M3725.6,536.1c-49.3,55.2-70.6,112.6-72.2,169.9c-6.5,241.8,338.1,479.3,415.2,511.7l786.2-48.4
		C4854.8,1169.3,4064.5,157,3725.6,536.1z"/>
	<path class="st2" d="M6040.1,493.9c-27.4-77.7-103.6-84.8-205.4-47.8c-272.4,99.6-728.2,517.3-927.8,755.8l407.5,75.3
		C5702.7,1151.4,6069.1,576.2,6040.1,493.9z"/>
	<path class="st3" d="M5314.4,1276.9l-407.5-75.3c-56.1,100.8-248.2,416.7-248.2,416.7l-57.7,201.1c0,0-37.6,160.4,191.5,95
		c1.8-0.6,4-1.2,6.2-1.8c73.1-22.5,160.1-76.5,242.1-146.2C5216.9,1617.7,5370.5,1399.1,5314.4,1276.9z"/>
</g>
<polygon class="st4" points="3360.5,1084.3 3131.7,1084.3 3131.7,855.5 2945.8,855.5 2945.8,1084.3 2717,1084.3 2717,1270.2 
	2945.8,1270.2 2945.8,1499 3131.7,1499 3131.7,1270.2 3360.5,1270.2 "/>
<g>
	<path class="st5" d="M2015.6,899.2c83.3,83,218.1,82.8,301.1-0.5s82.8-218.1-0.5-301.1s-218.1-82.8-301.1,0.5
		c-61.1,61.3-79,153.5-45.3,233.2C1980.6,856.6,1996.2,879.7,2015.6,899.2z M1953.2,1097v642.1h107c36.7-0.2,73.4-3.6,109.5-10.4
		c36.3-6.4,71.3-18.6,103.7-36.2c30.6-16.6,57-39.9,77.3-68.2c21.3-31.3,32-68.6,30.5-106.5V1097H1953.2z M1606.4,827.8
		c28.5,0.2,56.6-5.5,82.8-16.7c108.6-45.9,159.3-171.1,113.4-279.7c-21.6-51.2-62.4-91.9-113.6-113.5
		c-26.2-11.2-54.4-16.9-82.9-16.7c-28.3-0.2-56.3,5.5-82.3,16.7c-19.4,8.3-25.5,19.1-52.2,32.1v329c26.8,13.1,32.8,23.8,52.2,32.1
		C1549.9,822.4,1578,828,1606.4,827.8z M1471.6,1908.9c26.8,5.8,36.4,10.3,55.4,12.9c20.8,3,41.8,4.5,62.8,4.6
		c32.4-0.2,64.8-3.6,96.5-10.4c32.3-6.5,63.3-18.6,91.5-35.7c27.7-17,51-40.2,68.2-67.7c19-32.2,28.3-69.1,26.9-106.4v-743h-401.3
		V1908.9L1471.6,1908.9z M0,2113.7l1391.3,240.8V0L0,240.8V2113.7z"/>
	<path class="st6" d="M1016.7,722.4l-642.1,39.1v148.1l240.8-9.7v686.7l160.5,9.4V893.6l240.8-10.7V722.4z"/>
</g>
</svg>
