<svg id="Layer_1" data-name="Layer 1" xmlns="http://www.w3.org/2000/svg" viewBox="0 0 196.53 216.53"><defs><style>.cls-1{fill:#fff;}.cls-2{opacity:0.6;}.cls-3{fill:#f2dfee;}.cls-4{fill:#ffb93e;}.cls-5{fill:#4700e9;}.cls-6{fill:#fcefd9;}</style></defs><rect class="cls-1" x="-0.24" y="-0.24" width="197" height="217"/><g class="cls-2"><path class="cls-3" d="M.5,211.53v-2.44c0-33.27,17-62.55,60.23-94.43,30-22.25,38.68-29.7,38.68-49,0-18.52-9.31-30.29-28.87-30.29-21.48,0-30.13,12.39-33.42,32.48H0C3.14,33.05,25.71,5,70.54,5c49.86,0,67.65,30.42,67.65,60.14,0,29.93-12.83,43.44-50.22,70.59-26,19-37.71,32.11-41.72,43.41h99.61l-4.94,32.39Z"/></g><rect class="cls-4" x="62.95" y="35.18" width="61.77" height="75.07" rx="2.04"/><circle class="cls-5" cx="122.35" cy="35.18" r="11.23"/><rect class="cls-6" x="69.21" y="47.82" width="31.04" height="4.21"/><rect class="cls-6" x="74.06" y="56.24" width="36.86" height="4.21"/><rect class="cls-6" x="74.06" y="64.66" width="24.25" height="4.21"/><rect class="cls-6" x="70.18" y="73.09" width="46.55" height="4.21"/><rect class="cls-6" x="70.41" y="81.51" width="16.49" height="4.21"/><polygon class="cls-1" points="129.37 33.78 123.75 33.78 123.75 28.17 120.94 28.17 120.94 33.78 115.33 33.78 115.33 36.59 120.94 36.59 120.94 42.2 123.75 42.2 123.75 36.59 129.37 36.59 129.37 33.78"/></svg>