<svg id="Layer_1" data-name="Layer 1" xmlns="http://www.w3.org/2000/svg" viewBox="0 0 96.53 96.53"><defs><style>.cls-1{fill:#d82a47;}.cls-2{fill:#fff;}</style></defs><path class="cls-1" d="M94.64,64.25a7.49,7.49,0,0,0-13.09-2.81L74,58.06a27.42,27.42,0,0,0,1.67-7A5.61,5.61,0,1,0,77,40.71a5.35,5.35,0,0,0-2,1,27.22,27.22,0,0,0-2-5.59l4.26-2.37A7.86,7.86,0,0,0,90.73,26.6c0-.11-.06-.21-.1-.32a7.86,7.86,0,0,0-15.12,4.28q.1.39.24.75l-4.2,2.33a27.66,27.66,0,0,0-8.76-8.73l5.78-10a6.86,6.86,0,0,0,3.57,0,7,7,0,0,0,5-8.56,7.11,7.11,0,0,0-1.83-3.19A7,7,0,0,0,73,1.62a6.91,6.91,0,0,0-4.37-.28,7,7,0,0,0-2.56,12.3l-5.72,9.91a27.45,27.45,0,0,0-12.07-2.79,28,28,0,0,0-4.42.36l-.68-3.18A8.49,8.49,0,0,0,40.08,1.53l-.4,0a8.2,8.2,0,0,0-2.76.59,8.5,8.5,0,0,0,3.16,16.39l.32,0,.69,3.2A27.62,27.62,0,0,0,28.4,29.25L17.83,20.06a6.59,6.59,0,0,0,.75-3,6.5,6.5,0,0,0-10.3-5.27,6.64,6.64,0,0,0-1.88,2.1,6.51,6.51,0,0,0,5.68,9.67A6.46,6.46,0,0,0,16,22.2l10.56,9.18A27.34,27.34,0,0,0,21,45l-4.4-.3a7.49,7.49,0,0,0-14.86-1A8.35,8.35,0,0,0,1.58,45a7.29,7.29,0,0,0,.15,1.48,7.5,7.5,0,0,0,14.42,1l4.62.32c0,.14,0,.28,0,.42A27.42,27.42,0,0,0,24,61.12l-7.19,4A9,9,0,0,0,.58,70.53a9.11,9.11,0,0,0,.6,3.22,9,9,0,0,0,17.4-3.22,8.88,8.88,0,0,0-.5-2.93l7.32-4.06a27.54,27.54,0,0,0,7.54,7.56L31.2,73.89a6.49,6.49,0,1,0,2.4,1.47l1.76-2.81a27.36,27.36,0,0,0,12.9,3.21h.07l.21,4a8,8,0,0,0,.82,15.62,8.14,8.14,0,0,0,1.22.11,7.69,7.69,0,0,0,1.6-.17,8,8,0,0,0-.83-15.8l-.2-4a27.35,27.35,0,0,0,7.83-2,6.59,6.59,0,1,0,7.68-4.89,27.63,27.63,0,0,0,6.16-8.06l7.41,3.29a7.4,7.4,0,0,0-.1,4.1,7.5,7.5,0,0,0,13.69,2,7.73,7.73,0,0,0,1-2.66A7.5,7.5,0,0,0,94.64,64.25Z"/><path class="cls-2" d="M46.22,36a6.49,6.49,0,0,0-4.14-11.5,6.48,6.48,0,0,0-3.95,1.34,6.5,6.5,0,0,0,3.95,11.66,6.23,6.23,0,0,0,1.63-.22l1.46,3.13a1.24,1.24,0,0,0,1.68.6l.29-.14a1.25,1.25,0,0,0,.58-1.65Z"/><path class="cls-2" d="M75.48,46.76a8.49,8.49,0,0,0-16.8,0H55.53a1,1,0,0,0-1,1v.92a1,1,0,0,0,1,.95h3.2a8.49,8.49,0,0,0,16.7,0,8.1,8.1,0,0,0,0-2.82Z"/><path class="cls-2" d="M47.36,49.58l-.28-.29a1.21,1.21,0,0,0-1.71,0L41.46,53.2a7.91,7.91,0,0,0-4.88-1.67,8,8,0,1,0,6.78,3.76l4-4A1.2,1.2,0,0,0,47.36,49.58Z"/></svg>