<svg id="Layer_1" data-name="Layer 1" xmlns="http://www.w3.org/2000/svg" viewBox="0 0 96.53 96.53"><defs><style>.cls-1{fill:#3280f6;}</style></defs><path class="cls-1" d="M48.27,96.32V77.69c19.71,0,35-19.55,27.45-40.3A27.84,27.84,0,0,0,59.11,20.78C38.36,13.26,18.8,28.51,18.8,48.23H.23C.23,16.8,30.62-7.71,63.57,2.59A46.51,46.51,0,0,1,93.91,32.92C104.2,65.93,79.75,96.32,48.27,96.32Z"/><polygon class="cls-1" points="48.32 77.75 29.8 77.75 29.8 59.23 29.8 59.23 48.32 59.23 48.32 59.23 48.32 77.75"/><polygon class="cls-1" points="29.8 92.02 15.53 92.02 15.53 92.02 15.53 77.75 29.8 77.75 29.8 92.02"/><path class="cls-1" d="M15.53,77.75H3.61V65.82H15.53Z"/></svg>