<svg id="Layer_1" data-name="Layer 1" xmlns="http://www.w3.org/2000/svg" viewBox="0 0 96.53 96.53"><defs><style>.cls-1{fill:#04a0b5;}.cls-2{fill:#ffdeb6;}.cls-3{fill:#f2cca2;}.cls-4{fill:#ffa13b;}.cls-5{fill:#ed8d2e;}.cls-6{fill:#fff;}</style></defs><path class="cls-1" d="M48.26,0A48.27,48.27,0,1,0,96.53,48.26,48.26,48.26,0,0,0,48.26,0Z"/><path class="cls-2" d="M35.38,36.89C34,47.42,44.71,54.75,49.94,54.25V19.53C41.28,19.53,36.65,27.38,35.38,36.89Z"/><path class="cls-3" d="M64.5,36.89c0-9.59-5.9-17.36-14.56-17.36V54.25C54.42,54.25,64.5,46.47,64.5,36.89Z"/><path class="cls-4" d="M43.74,53.41A8.78,8.78,0,0,0,42,55.58c-13.45.84-23.38,4.52-23.38,17.71a10.61,10.61,0,0,0,.25,2.24H49.58V58.42Z"/><path class="cls-5" d="M81.3,73.29c0-12.81-9.36-16.65-22.22-17.63a8.7,8.7,0,0,0-2.37-2.73l-6.77,5.8-.36-.31V75.53H81.05A10.61,10.61,0,0,0,81.3,73.29Z"/><path class="cls-6" d="M46.31,70.55l-7.05-3.11v-1l7.05-3.52v1.71l-4.86,2.25,4.86,2Z"/><path class="cls-6" d="M52.87,61.61,49,72H47L50.9,61.61Z"/><path class="cls-6" d="M53.57,68.85l4.86-2-4.86-2.25V62.9l7,3.52v1l-7,3.11Z"/></svg>