<svg id="Layer_1" data-name="Layer 1" xmlns="http://www.w3.org/2000/svg" viewBox="0 0 96.53 96.53"><defs><style>.cls-1{fill:#04a0b5;}.cls-2{fill:#ffa13b;}.cls-3{fill:#f4f4f4;}.cls-4{fill:#ed8d2e;}.cls-5{fill:#ddd;}</style></defs><path class="cls-1" d="M96.13,42.18A48.26,48.26,0,1,0,36.34,95c1.13.29,2.29.52,3.45.73A48.2,48.2,0,0,0,96.47,50.45c0-.73.06-1.45.06-2.19A48.76,48.76,0,0,0,96.13,42.18Z"/><path class="cls-2" d="M28.55,42.45l-9.94,9.94S28.16,52.39,33,55c.07-4.08,2-9.41,4.8-14.54Z"/><path class="cls-3" d="M48.43,47.13l2.33-2.34c-2.58-2.58-2.06-7.29,1.17-10.52s7.94-3.75,10.53-1.17l2.33-2.34a55.36,55.36,0,0,1-7.14-8.66,22.48,22.48,0,0,0-10.77,6l-.74.76A57.81,57.81,0,0,0,37.8,40.47C35,45.6,33.07,50.93,33,55c0,0,0,.05,0,.07l3.45,3.45,11.69-11.7Z"/><path class="cls-2" d="M71.85,23.7a1.63,1.63,0,0,0-.17-.2c-1.61-1.61-7.59-2.94-14-1.4a55.36,55.36,0,0,0,7.14,8.66Z"/><path class="cls-2" d="M51.93,34.27c-3.23,3.23-3.75,7.94-1.17,10.52L62.46,33.1C59.87,30.52,55.16,31,51.93,34.27Z"/><rect class="cls-2" x="29.53" y="61.39" width="8.27" height="0.41" transform="translate(-33.69 41.85) rotate(-45)"/><rect class="cls-2" x="34.17" y="52.62" width="16.53" height="0.41" transform="translate(-24.93 45.48) rotate(-45)"/><path class="cls-4" d="M39.83,61.91c2.92,4.67,3.34,15,3.34,15L53.1,67l2.12-9.9c-5.31,3-10.88,5-15.11,5.09Z"/><path class="cls-5" d="M62.46,33.1c2.58,2.58,2.05,7.29-1.17,10.52s-7.94,3.75-10.53,1.17l-2.33,2.34.29.29L37,59.11l2.8,2.8.28.28c4.23-.06,9.8-2.11,15.11-5.09A57.26,57.26,0,0,0,66.36,49l.77-.74a22.55,22.55,0,0,0,5.93-10.66,55.84,55.84,0,0,1-8.27-6.88Z"/><path class="cls-4" d="M73.06,37.64c1.53-6.25.33-12.08-1.21-13.94l-7.06,7.06A55.84,55.84,0,0,0,73.06,37.64Z"/><path class="cls-4" d="M61.29,43.62c3.22-3.23,3.75-7.94,1.17-10.52L50.76,44.79C53.35,47.37,58.06,46.85,61.29,43.62Z"/><rect class="cls-4" x="29.82" y="61.68" width="8.27" height="0.41" transform="translate(-33.81 42.14) rotate(-45)"/><rect class="cls-4" x="34.46" y="52.91" width="16.53" height="0.41" transform="translate(-25.05 45.77) rotate(-45)"/><path class="cls-2" d="M27.49,67.86c-.19-.19-.83-6,.94-7.75A3.72,3.72,0,0,1,31.27,59a5.82,5.82,0,0,0-6.52,1.32C22,63,23,72,23.29,72.26l4.35-4.35C27.56,67.89,27.5,67.88,27.49,67.86Z"/><path class="cls-4" d="M34.69,70.22A5.84,5.84,0,0,0,36,63.7a3.72,3.72,0,0,1-1.15,2.84c-1.63,1.63-6.31,1.54-7.22,1.37l-4.35,4.35C23.58,72.56,31.94,73,34.69,70.22Z"/></svg>