<svg id="Layer_1" data-name="Layer 1" xmlns="http://www.w3.org/2000/svg" viewBox="0 0 96.53 96.53"><defs><style>.cls-1{fill:#04a0b5;}.cls-2,.cls-5{fill:#f4f4f4;}.cls-2{stroke:#424242;}.cls-2,.cls-4{stroke-miterlimit:10;stroke-width:2px;}.cls-3{fill:#ffa13b;}.cls-4{fill:none;stroke:#ffa13b;stroke-linecap:round;}</style></defs><path class="cls-1" d="M96.13,42.18A48.07,48.07,0,1,0,48.26,96.53a47.23,47.23,0,0,0,5.22-.29A48.17,48.17,0,0,0,96.3,52.72c.14-1.47.23-2.95.23-4.46A48.76,48.76,0,0,0,96.13,42.18Z"/><circle class="cls-2" cx="48.26" cy="48.26" r="25.32"/><circle class="cls-3" cx="48.26" cy="48.26" r="2.5"/><line class="cls-4" x1="48.26" y1="31.53" x2="48.26" y2="47.53"/><line class="cls-4" x1="57.86" y1="54.94" x2="47.86" y2="48.18"/><circle class="cls-3" cx="64.58" cy="67.53" r="8"/><path class="cls-5" d="M61.91,70.25a.65.65,0,0,1-.12-.28.67.67,0,0,1,0-.32.51.51,0,0,1,.17-.24.43.43,0,0,1,.29-.1.48.48,0,0,1,.27.09c.09.06.18.14.29.23a4.15,4.15,0,0,0,.36.28,3.18,3.18,0,0,0,.45.29l.24.12V67.84l-.62-.29a3.49,3.49,0,0,1-.71-.44A2.55,2.55,0,0,1,62,66.5a1.37,1.37,0,0,1-.24-.8,1.65,1.65,0,0,1,.15-.69,2,2,0,0,1,.42-.62,2,2,0,0,1,.67-.46,3,3,0,0,1,.9-.26v-.45a3.12,3.12,0,0,1,.09-.79.43.43,0,0,1,.47-.33.41.41,0,0,1,.45.31,2.6,2.6,0,0,1,.09.73,2.53,2.53,0,0,1,0,.28v.28l.48.12a4.62,4.62,0,0,1,.62.23,2.05,2.05,0,0,1,.54.33.57.57,0,0,1,.23.43.51.51,0,0,1-.53.51,1,1,0,0,1-.35-.07l-.37-.14L65.27,65a1.41,1.41,0,0,0-.27-.12c0,.39,0,.77,0,1.15s0,.77,0,1.17c.29.1.57.21.85.33a3.54,3.54,0,0,1,.77.42,2.12,2.12,0,0,1,.56.6,1.46,1.46,0,0,1,.22.82,1.82,1.82,0,0,1-.22.94,2.06,2.06,0,0,1-.56.65,3,3,0,0,1-.77.4,7.33,7.33,0,0,1-.86.23V72c0,.16,0,.32,0,.47a.62.62,0,0,1-.22.38.51.51,0,0,1-.32.12.42.42,0,0,1-.35-.14.69.69,0,0,1-.15-.36,2.29,2.29,0,0,1,0-.47c0-.18,0-.35,0-.51h0a6,6,0,0,1-.71-.23,2.31,2.31,0,0,1-.52-.27,3.09,3.09,0,0,1-.39-.33C62.14,70.52,62,70.39,61.91,70.25Zm2-5.44-.27.08a1.69,1.69,0,0,0-.28.12,1.64,1.64,0,0,0-.26.2.73.73,0,0,0-.18.31.93.93,0,0,0,.29.68,2.77,2.77,0,0,0,.7.5ZM65,68.27v1.08c0,.35,0,.71,0,1.06a2.46,2.46,0,0,0,.45-.11A5,5,0,0,0,66,70a.77.77,0,0,0,.29-.47.67.67,0,0,0-.13-.53l-.51-.4A4.6,4.6,0,0,0,65,68.27Z"/></svg>