<svg id="Layer_1" data-name="Layer 1" xmlns="http://www.w3.org/2000/svg" viewBox="0 0 96.53 96.53"><defs><style>.cls-1{fill:#04a0b5;}.cls-2{fill:#abf9ff;}.cls-3{fill:#fff;}</style></defs><path class="cls-1" d="M48.26,0A48.26,48.26,0,0,0,33.45,94.19a49.26,49.26,0,0,0,5.28,1.37,48.61,48.61,0,0,0,6.76.88c.92,0,1.84.09,2.77.09A48.25,48.25,0,0,0,90.73,71.19l.29-.58c.56-1,1.09-2.13,1.56-3.23A48.26,48.26,0,0,0,48.26,0Z"/><path class="cls-2" d="M67.89,38.51a8.19,8.19,0,0,0-11.5-10.66,13.43,13.43,0,0,0-25.26,6.34,13.94,13.94,0,0,0,.08,1.45,11.9,11.9,0,0,0,2.68,23.1v.06H67.13a10.16,10.16,0,0,0,.76-20.29Z"/><path class="cls-3" d="M39.08,58.8V64H31.16a3,3,0,1,0,0,1.73h9.65V58.8ZM28.27,66.14a1.3,1.3,0,1,1,1.3-1.29A1.29,1.29,0,0,1,28.27,66.14Z"/><path class="cls-3" d="M75.81,66.14a3,3,0,0,0-2.88,2.16H58.09V58.8H56.36V70H72.93a3,3,0,1,0,2.88-3.89Zm0,4.32a1.3,1.3,0,1,1,1.3-1.29A1.3,1.3,0,0,1,75.81,70.46Z"/><path class="cls-3" d="M48.59,72.77v-14H46.86v14a3,3,0,1,0,1.73,0ZM47.72,77a1.3,1.3,0,1,1,1.3-1.3A1.3,1.3,0,0,1,47.72,77Z"/></svg>