<svg id="Layer_1" data-name="Layer 1" xmlns="http://www.w3.org/2000/svg" viewBox="0 0 96.53 96.53"><defs><style>.cls-1{fill:#04a0b5;}.cls-2{fill:#fff;}.cls-3{fill:#ffa13b;}</style></defs><path class="cls-1" d="M95.66,39.2a48.26,48.26,0,1,0-53,57c.93.11,1.86.2,2.81.25s1.84.09,2.77.09A48.21,48.21,0,0,0,95.66,39.2Z"/><rect class="cls-2" x="33.4" y="23.86" width="19" height="49.69" transform="translate(47.01 -16.07) rotate(45)"/><path class="cls-3" d="M38.89,50a1.82,1.82,0,0,0-1.69-.63,4.12,4.12,0,0,0-2,1.24l-1,1,3.12,3.12,1.08-1.09a3.47,3.47,0,0,0,1.18-2A2.1,2.1,0,0,0,38.89,50Z"/><path class="cls-3" d="M73,42.48l1.07-20.7a3.36,3.36,0,0,0-3.6-3.53L50.22,19.73a3.38,3.38,0,0,0-2.13,1L15.44,53.36a3.36,3.36,0,0,0,0,4.75L34.63,77.3a3.36,3.36,0,0,0,4.75,0L72,44.68A3.45,3.45,0,0,0,73,42.48ZM67.33,25.41a3.39,3.39,0,1,1-4.79,0A3.39,3.39,0,0,1,67.33,25.41ZM33.77,68.51,24.23,59l5.39-5.38,1.31,1.32L27.1,58.74l3,3,3.59-3.59L35,59.45l-3.6,3.6L35.32,67ZM46.26,56l-6.09-1.52L38.63,56l3.81,3.81L40.88,61.4l-9.54-9.54L34,49.17a6.28,6.28,0,0,1,3.42-2.05,3.53,3.53,0,0,1,3,1.2,3.7,3.7,0,0,1,.68,4.39L48,54.24Zm3.16-3.15-9.54-9.54,5.4-5.39,1.31,1.32-3.83,3.83,2.59,2.6,3.6-3.6,1.3,1.31L46.66,47l3,3,3.84-3.84,1.32,1.32Zm7.45-7.46-9.53-9.53,5.39-5.4,1.32,1.32-3.84,3.84,2.6,2.59,3.59-3.59,1.31,1.3-3.6,3.6,3,3,3.83-3.84L62.27,40Z"/></svg>