<svg id="Layer_1" data-name="Layer 1" xmlns="http://www.w3.org/2000/svg" viewBox="0 0 96.53 96.53"><defs><style>.cls-1{fill:#04a0b5;}.cls-2{fill:#f4f4f4;}.cls-3{fill:#424242;}.cls-4{fill:#ea2f2f;}.cls-5{fill:#e8b831;}.cls-6{fill:#70e831;}.cls-7{fill:#c4c4c4;}</style></defs><path class="cls-1" d="M96.13,42.18a48.16,48.16,0,1,0,.4,6.08A48.76,48.76,0,0,0,96.13,42.18Z"/><path class="cls-2" d="M16.73,69.76c0,2.19,1.41,4,3.15,4h57.5c1.74,0,3.15-1.78,3.15-4V33.13H16.73Z"/><path class="cls-3" d="M78.08,22.53H19.27c-1.33,0-2.41,1.36-2.41,3v7.67H80.65V25.77C80.65,24,79.5,22.53,78.08,22.53Z"/><circle class="cls-4" cx="22.81" cy="28.12" r="2.34"/><circle class="cls-5" cx="29.06" cy="28.12" r="2.34"/><circle class="cls-6" cx="35.32" cy="28.12" r="2.34"/><rect class="cls-7" x="20.58" y="35.53" width="14" height="3"/><rect class="cls-7" x="26.58" y="40.53" width="32" height="3"/><rect class="cls-7" x="31.58" y="45.53" width="38" height="3"/><rect class="cls-7" x="31.58" y="50.53" width="25" height="3"/><rect class="cls-7" x="27.58" y="55.53" width="48" height="3"/><rect class="cls-7" x="20.58" y="60.53" width="17" height="3"/><rect class="cls-7" x="20.58" y="65.53" width="39" height="3"/></svg>