<svg id="Layer_1" data-name="Layer 1" xmlns="http://www.w3.org/2000/svg" viewBox="0 0 96.53 96.53"><defs><style>.cls-1{fill:none;}.cls-2{fill:#04a0b5;}.cls-3{fill:#fff;}.cls-4{fill:#e5bd17;}</style></defs><path class="cls-1" d="M40.05,56.58a11.7,11.7,0,1,0,0-16.63l11.18,8.31Z"/><path class="cls-2" d="M96.4,45c-.11-1.62-.29-3.23-.55-4.8A48.26,48.26,0,1,0,25.83,91a48.8,48.8,0,0,0,7.08,3l.12,0a47.93,47.93,0,0,0,12,2.36c1.08.07,2.16.12,3.25.12A48.28,48.28,0,0,0,96.53,48.26C96.53,47.17,96.48,46.1,96.4,45Z"/><path class="cls-3" d="M51.83,21.66,44.7,19v1.92a28.4,28.4,0,1,0,11.84,1l-.27,1.44a27,27,0,1,1-11.57-1v1.93Z"/><path class="cls-4" d="M26.63,51.11l4.1-4.47s8.19,5.59,9.31,7.45c0,0,17.51-23.46,36.13-24.58,0,0-23.09,9.31-35.76,38Z"/></svg>