<svg id="Layer_1" data-name="Layer 1" xmlns="http://www.w3.org/2000/svg" viewBox="0 0 96.53 96.53"><defs><style>.cls-1{fill:#04a0b5;}.cls-2{fill:#fff;}</style></defs><circle class="cls-1" cx="48.58" cy="48.53" r="9"/><path class="cls-1" d="M96.13,42.18A48.26,48.26,0,1,0,36.34,95q1.35.34,2.73.6l.65.11A48.15,48.15,0,0,0,95.1,59.9a47,47,0,0,0,1.11-6.2,46.4,46.4,0,0,0-.08-11.52Z"/><path class="cls-2" d="M76.57,44.16a4,4,0,0,0-3.93,3.21H65.33v-1.3a.64.64,0,0,0-.63-.64l-3-.68a13.84,13.84,0,0,0-1.5-3.61l1.64-2.6a.63.63,0,0,0,0-.9l-1-1,5.29-5.29A4,4,0,1,0,65,30.2l-5.29,5.29-.89-.89a.63.63,0,0,0-.9,0l-2.6,1.64a13.35,13.35,0,0,0-3.61-1.49l-.68-3a.64.64,0,0,0-.64-.64H49V23.47a4,4,0,1,0-1.61,0v7.64H46.08a.64.64,0,0,0-.64.64l-.68,3a13.48,13.48,0,0,0-3.61,1.49l-2.6-1.64a.63.63,0,0,0-.9,0l-.83.83L31.39,30a4,4,0,1,0-1.14,1.13l5.44,5.44-1.08,1.08a.63.63,0,0,0,0,.9l1.64,2.6a13.81,13.81,0,0,0-1.49,3.61l-3,.68a.64.64,0,0,0-.64.64v1h-7.6a4,4,0,1,0,0,1.6h7.6v1.68a.64.64,0,0,0,.64.64l3,.68a13.67,13.67,0,0,0,1.49,3.61l-1.64,2.6a.63.63,0,0,0,0,.9l.68.68L30,64.72a4,4,0,1,0,1.14,1.13l5.25-5.24,1.22,1.22a.63.63,0,0,0,.9,0l2.6-1.64a13.84,13.84,0,0,0,3.61,1.5l.68,3a.64.64,0,0,0,.64.63h1.05v7.26a4,4,0,1,0,1.6,0V65.32h1.64a.63.63,0,0,0,.64-.63l.68-3a13.7,13.7,0,0,0,3.61-1.5l2.6,1.64a.63.63,0,0,0,.9,0l.87-.87,5.1,5.1a4,4,0,1,0,1.14-1.13l-5.1-5.1,1-1a.63.63,0,0,0,0-.9l-1.64-2.6a13.7,13.7,0,0,0,1.5-3.61l3-.68a.63.63,0,0,0,.63-.64V49h7.31a4,4,0,1,0,3.93-4.82ZM66.62,26.28a2.41,2.41,0,1,1,0,3.41A2.41,2.41,0,0,1,66.62,26.28Zm-20.8-6.74A2.41,2.41,0,1,1,48.23,22,2.41,2.41,0,0,1,45.82,19.54ZM29.74,29.48a2.4,2.4,0,1,1,0-3.4A2.4,2.4,0,0,1,29.74,29.48ZM19.59,50.29A2.41,2.41,0,1,1,22,47.88,2.41,2.41,0,0,1,19.59,50.29Zm9.94,19.48a2.41,2.41,0,1,1,0-3.41A2.4,2.4,0,0,1,29.53,69.77Zm20.81,6.74a2.41,2.41,0,1,1-2.41-2.4A2.41,2.41,0,0,1,50.34,76.51Zm16.08-9.94a2.41,2.41,0,1,1,0,3.41A2.4,2.4,0,0,1,66.42,66.57ZM48.23,55.18a7,7,0,1,1,7-7A7,7,0,0,1,48.23,55.18Zm28.34-4.6A2.41,2.41,0,1,1,79,48.17,2.41,2.41,0,0,1,76.57,50.58Z"/></svg>