<svg id="Layer_1" data-name="Layer 1" xmlns="http://www.w3.org/2000/svg" viewBox="0 0 96.53 96.53"><defs><style>.cls-1{fill:#04a0b5;}.cls-2{fill:none;}.cls-3{fill:#fff;}.cls-4{fill:#e5bd17;}</style></defs><path class="cls-1" d="M48.26,0A48.26,48.26,0,0,0,32.91,94c1.37.46,2.78.85,4.2,1.19A48.2,48.2,0,0,0,94.42,62.39q.43-1.44.78-2.91A48.23,48.23,0,0,0,48.26,0Z"/><path class="cls-2" d="M41.45,55a9.51,9.51,0,1,0,0-13.54l9.1,6.77Z"/><path class="cls-3" d="M70.65,44.46l-4.1-.94a18.93,18.93,0,0,0-2-4.93L66.75,35a.87.87,0,0,0,0-1.23L62.6,29.65a.88.88,0,0,0-1.24,0l-3.55,2.24a18.85,18.85,0,0,0-4.94-2l-.93-4.1a.87.87,0,0,0-.87-.87H45.2a.87.87,0,0,0-.87.87l-.93,4.1a19,19,0,0,0-4.94,2l-3.55-2.24a.87.87,0,0,0-1.23,0L30.2,33.13l11.25,8.36a9.52,9.52,0,1,1,0,13.54L30.2,63.4l3.48,3.48a.87.87,0,0,0,1.23,0l3.55-2.24a19,19,0,0,0,4.94,2l.93,4.1a.87.87,0,0,0,.87.87h5.87a.87.87,0,0,0,.87-.87l.93-4.1a18.85,18.85,0,0,0,4.94-2l3.55,2.24a.88.88,0,0,0,1.24,0l4.15-4.16a.87.87,0,0,0,0-1.23l-2.24-3.56a18.79,18.79,0,0,0,2-4.93l4.1-.93a.87.87,0,0,0,.87-.87V45.33A.87.87,0,0,0,70.65,44.46Z"/><polygon class="cls-4" points="44.41 48.26 31.99 39.03 31.99 42.81 13.4 42.81 13.4 53.72 31.99 53.72 31.99 57.49 44.41 48.26"/><path class="cls-3" d="M48.14,18.15A30.14,30.14,0,0,1,78,44.28H75.82l3,8,3-8H79.61a31.73,31.73,0,0,0-62.15-4.16h1.69A30.16,30.16,0,0,1,48.14,18.15Z"/><path class="cls-3" d="M48.14,78.37a30.16,30.16,0,0,1-29-22H17.46a31.73,31.73,0,0,0,61.83-2.12l-1.57-.45A30.16,30.16,0,0,1,48.14,78.37Z"/></svg>