<svg id="Layer_1" data-name="Layer 1" xmlns="http://www.w3.org/2000/svg" viewBox="0 0 96.53 96.53"><defs><style>.cls-1{fill:#04a0b5;}.cls-2{fill:#424242;}.cls-3{fill:#f4f4f4;}.cls-4{fill:#ffa13b;}</style></defs><path class="cls-1" d="M96,41.07A48.26,48.26,0,1,0,32.91,94c1.45.48,2.94.9,4.45,1.25a48.25,48.25,0,0,0,59.17-47A48.78,48.78,0,0,0,96,41.07Z"/><path class="cls-2" d="M57.64,72h-8.3v-5.4H47.18V72H38.89a1.08,1.08,0,0,0,0,2.16H57.64a1.08,1.08,0,1,0,0-2.16Z"/><path class="cls-3" d="M77.42,26.68a1.87,1.87,0,0,0-1.76-1.95H20.87a1.87,1.87,0,0,0-1.76,1.95V61.22H77.42Z"/><path class="cls-2" d="M75.66,22.35H20.87A4.14,4.14,0,0,0,17,26.68V63.37a4.14,4.14,0,0,0,3.92,4.33H75.66a4.14,4.14,0,0,0,3.92-4.33V26.68A4.14,4.14,0,0,0,75.66,22.35ZM19.11,61.22V26.68a1.87,1.87,0,0,1,1.76-1.95H75.66a1.87,1.87,0,0,1,1.76,1.95V61.22Z"/><rect class="cls-4" x="33.49" y="46.1" width="3.24" height="9.72"/><rect class="cls-4" x="38.89" y="40.7" width="3.24" height="15.12"/><rect class="cls-4" x="44.28" y="32.06" width="3.24" height="23.76"/><rect class="cls-4" x="49.68" y="43.94" width="3.24" height="11.88"/><rect class="cls-4" x="55.08" y="36.38" width="3.24" height="19.44"/><rect class="cls-4" x="60.48" y="40.7" width="3.24" height="15.12"/></svg>