<svg id="Layer_1" data-name="Layer 1" xmlns="http://www.w3.org/2000/svg" viewBox="0 0 96.53 96.53"><defs><style>.cls-1{fill:#d85040;}.cls-2{fill:#5185eb;}.cls-3{fill:#58a45c;}.cls-4{fill:#f1bc42;}</style></defs><g id="g710"><path id="path702" class="cls-1" d="M61.14,31h2.92l8.32-8.32.4-3.54A37.41,37.41,0,0,0,12,37.35a4.5,4.5,0,0,1,2.92-.17l16.64-2.75s.84-1.4,1.28-1.31A20.76,20.76,0,0,1,61.2,31Z"/><path id="path704" class="cls-2" d="M84.23,37.35a37.44,37.44,0,0,0-11.3-18.21L61.26,30.81a20.77,20.77,0,0,1,7.62,16.47v2.07a10.4,10.4,0,0,1,0,20.79H48.09L46,72.24V84.7l2.07,2.08H68.88A27,27,0,0,0,84.23,37.35Z"/><path id="path706" class="cls-3" d="M27.28,86.65H48.06V70H27.28A10.27,10.27,0,0,1,23,69.07L20.07,70,11.69,78.3,11,81.22a26.85,26.85,0,0,0,16.32,5.43Z"/><path id="path708" class="cls-4" d="M27.28,32.68A27,27,0,0,0,11,81.13L23,69.08A10.39,10.39,0,1,1,36.76,55.33l12.06-12A27,27,0,0,0,27.28,32.68Z"/></g></svg>