<svg id="Layer_1" data-name="Layer 1" xmlns="http://www.w3.org/2000/svg" viewBox="0 0 96.53 96.53"><defs><style>.cls-1{fill:#fff;}.cls-2{fill-rule:evenodd;}</style></defs><path class="cls-1" d="M96.13,42.18A48.26,48.26,0,1,0,36.34,95c1.13.29,2.29.52,3.45.73A48.2,48.2,0,0,0,96.47,50.45c0-.73.06-1.45.06-2.19A48.76,48.76,0,0,0,96.13,42.18Z"/><path class="cls-2" d="M48.26,0A48.27,48.27,0,0,0,33,94.06c2.41.44,3.29-1,3.29-2.33s0-4.18-.06-8.21C22.81,86.44,20,77.05,20,77.05,17.78,71.48,14.62,70,14.62,70c-4.38-3,.33-2.93.33-2.93,4.84.34,7.39,5,7.39,5,4.31,7.38,11.3,5.25,14.05,4a10.34,10.34,0,0,1,3.06-6.45c-10.71-1.22-22-5.36-22-23.85a18.63,18.63,0,0,1,5-13c-.5-1.22-2.15-6.13.47-12.77,0,0,4.05-1.3,13.27,4.94a45.89,45.89,0,0,1,24.17,0C69.56,18.72,73.61,20,73.61,20c2.63,6.64,1,11.55.48,12.77a18.63,18.63,0,0,1,5,13c0,18.54-11.29,22.62-22,23.81C58.75,71,60.29,74,60.29,78.49c0,6.45-.06,11.66-.06,13.24,0,1.29.87,2.79,3.32,2.32A48.27,48.27,0,0,0,48.26,0Z"/></svg>