<svg id="Layer_1" data-name="Layer 1" xmlns="http://www.w3.org/2000/svg" viewBox="0 0 96.53 96.53"><defs><style>.cls-1{fill:#ea753c;}.cls-2{fill:#d04f36;}.cls-3{fill:#efa546;}</style></defs><g id="g44"><path id="path46" class="cls-1" d="M95.9,54.58,90.54,38.12,79.94,5.46a1.83,1.83,0,0,0-3.47,0L65.87,38.1H30.65L20.05,5.46a1.84,1.84,0,0,0-3.48,0L6,38.1.63,54.58A3.68,3.68,0,0,0,2,58.66L48.26,92.31l46.3-33.65a3.66,3.66,0,0,0,1.34-4.08"/></g><g id="g48"><path id="path50" class="cls-2" d="M48.27,92.28h0L65.87,38.1H30.66Z"/></g><g id="g56"><path id="path58" class="cls-1" d="M48.26,92.29,30.65,38.1H6Z"/></g><g id="g64"><path id="path66" class="cls-3" d="M6,38.12H6L.62,54.58a3.68,3.68,0,0,0,1.32,4.08L48.25,92.31Z"/></g><g id="g72"><path id="path74" class="cls-2" d="M6,38.12H30.67L20.05,5.48a1.83,1.83,0,0,0-3.48,0Z"/></g><g id="g76"><path id="path78" class="cls-1" d="M48.27,92.29,65.87,38.1H90.55Z"/></g><g id="g80"><path id="path82" class="cls-3" d="M90.54,38.12h0L95.9,54.58a3.65,3.65,0,0,1-1.32,4.08L48.27,92.28,90.54,38.12Z"/></g><g id="g84"><path id="path86" class="cls-2" d="M90.55,38.12H65.87L76.47,5.48a1.83,1.83,0,0,1,3.48,0l10.6,32.64Z"/></g></svg>