<svg id="Layer_1" data-name="Layer 1" xmlns="http://www.w3.org/2000/svg" viewBox="0 0 96.53 96.53"><defs><style>.cls-1{fill:#3670ba;}</style></defs><path class="cls-1" d="M.26,29.06v2.63H19V29.06Zm21.33,0v2.63H48.22a10.13,10.13,0,0,0-6.32-2.63Zm31.86,0v2.63H69.56l-1-2.63Zm27.66,0-1,2.63h16V29.06ZM.26,34.17V36.8H19V34.17Zm21.33,0V36.8H51.31a7.05,7.05,0,0,0-1-2.63Zm31.86,0V36.8H71.33l-.89-2.63Zm25.75,0-.89,2.63H96.12V34.17ZM5.66,39.28v2.63h8.09V39.28Zm21.33,0v2.63h8.07V39.28Zm16,0v2.63h8.1a9,9,0,0,0,.51-2.63Zm15.89,0v2.63H73.16l-1-2.63Zm18.62,0-1,2.63H90.86V39.28ZM5.66,44.39V47h8.09V44.39Zm21.33,0V47h20.7A8.86,8.86,0,0,0,50,44.39Zm31.86,0V47h8.09V45.56L67.45,47H82.27l.55-1.46V47h8V44.4H75.67l-.81,2.22-.81-2.22ZM5.66,49.5v2.63h8.09V49.5ZM27,49.5v2.63h23a9,9,0,0,0-2.28-2.63Zm31.86,0v2.63h8.09V49.5Zm9.56,0,1,2.63H80.5l.9-2.63Zm14.42,0v2.63h8V49.5ZM5.66,54.61v2.63h8.09V54.61Zm21.33,0v2.63h8.07V54.61Zm16,0v2.63h8.61a9,9,0,0,0-.51-2.63Zm15.89,0v2.63h8.09V54.61Zm11.4,0,1,2.63h7.45l1-2.63Zm12.58,0v2.63h8V54.61ZM.41,59.72v2.63H19.1V59.72Zm21.19,0v2.63H50.37a6.82,6.82,0,0,0,1-2.63Zm32,0v2.63H66.92V59.72Zm18.46,0,1,2.63h3.79l.92-2.63Zm10.74,0v2.63H96.26V59.72ZM.41,64.83v2.63H19.1V64.83Zm21.19,0v2.63H41.91a10.17,10.17,0,0,0,6.33-2.63Zm32,0v2.63H66.92V64.83Zm20.31,0,.94,2.62H75L76,64.83Zm8.89,0v2.63H96.26V64.83Z"/></svg>