<svg width="48" height="48" viewBox="0 0 48 48" fill="none" xmlns="http://www.w3.org/2000/svg">
<path d="M45.5868 35.7108H43.5435V33.6675C43.5435 32.3367 42.4609 31.254 41.1304 31.254C39.7999 31.254 38.7174 32.3367 38.7174 33.6675V35.7108H36.674C35.3435 35.7108 34.261 36.7932 34.261 38.1236C34.261 39.4543 35.3435 40.5369 36.674 40.5369H38.7174V42.5805C38.7174 43.911 39.7999 44.9934 41.1304 44.9934C42.461 44.9934 43.5435 43.911 43.5435 42.5805V40.5369H45.5868C46.9175 40.5369 48 39.4543 48 38.1236C48 36.7932 46.9175 35.7108 45.5868 35.7108Z" fill="#005968"/>
<path d="M31.589 38.312H3.81705V15.6974H39.6951V28.7845C40.1505 28.6505 40.6321 28.5779 41.1305 28.5779C41.9907 28.5779 42.801 28.7934 43.5121 29.1718V4.27893C43.5121 3.57611 42.9426 3.00653 42.2397 3.00653H1.2724C0.569582 3.00653 0 3.57625 0 4.27893V40.857C0 41.5595 0.569582 42.1291 1.2724 42.1291H33.5376C32.3955 41.2328 31.6455 39.8593 31.589 38.312ZM37.0679 7.00455C38.2263 7.00455 39.1655 7.94379 39.1655 9.10205C39.1655 10.2604 38.2264 11.1998 37.0679 11.1998C35.9092 11.1998 34.9702 10.2604 34.9702 9.10205C34.9702 7.94365 35.9092 7.00455 37.0679 7.00455ZM31.0842 7.00455C32.2428 7.00455 33.182 7.94379 33.182 9.10205C33.182 10.2604 32.2429 11.1998 31.0842 11.1998C29.9259 11.1998 28.9866 10.2604 28.9866 9.10205C28.9866 7.94365 29.9259 7.00455 31.0842 7.00455ZM4.34648 7.17246H24.2365V11.0319H4.34648V7.17246Z" fill="#005968"/>
</svg>
