<svg width="48" height="48" viewBox="0 0 48 48" fill="none" xmlns="http://www.w3.org/2000/svg">
<g clip-path="url(#clip0)">
<path d="M47.9995 14.0897C47.9995 13.1017 47.5825 12.2269 46.8604 11.4672C47.4467 10.8713 47.8461 10.2032 48 9.4614L47.9995 6.19906C47.9995 2.17245 41.1171 0 34.6414 0C32.7288 0 30.7809 0.189729 28.9853 0.560401C30.6699 1.29686 31.9191 2.13047 32.8401 2.9875C33.4164 2.95073 34.017 2.93055 34.6414 2.93055C41.1017 2.93055 45.0564 5.04686 45.0564 6.19923C45.0564 7.30994 41.3843 9.31414 35.3382 9.45912L35.3387 12.5395L35.2882 12.7839C35.1441 13.4787 34.8893 14.1456 34.5265 14.7798C34.5623 14.8462 34.5939 14.9139 34.6272 14.9811C34.6319 14.9811 34.6368 14.9813 34.6414 14.9813C38.1281 14.9813 41.7721 14.3533 44.3835 13.1315C44.8224 13.4783 45.0564 13.812 45.0564 14.0899C45.0564 15.2019 41.3719 17.2115 35.3073 17.3504C35.3256 17.5499 35.3381 17.7504 35.3381 17.9523L35.3387 22.1918L35.2882 22.436C35.2581 22.5807 35.2224 22.7237 35.1828 22.8658C38.5018 22.8044 41.9067 22.1804 44.3835 21.0215C44.8224 21.3683 45.0564 21.702 45.0564 21.9799C45.0564 23.1167 41.2055 25.1908 34.8985 25.2465C35.188 26.0031 35.3381 26.7948 35.3381 27.6044L35.3385 30.7534C38.608 30.6754 41.9456 30.0525 44.3835 28.9124C44.8224 29.259 45.0564 29.5929 45.0564 29.8708C45.0564 31.0028 41.2382 33.0636 34.9787 33.1359C34.8537 33.4595 34.7032 33.7762 34.5264 34.085C35.0612 35.0799 35.3381 36.152 35.3381 37.2575L35.3382 38.6431C41.1973 38.5039 47.2777 36.6182 47.9999 33.1328L47.9994 29.8708C47.9994 28.8826 47.5823 28.008 46.8602 27.2483C47.4465 26.6524 47.8459 25.9844 47.9999 25.2426L47.9994 21.9801C47.9994 20.9926 47.5823 20.1173 46.8602 19.3576C47.4465 18.7622 47.8459 18.0937 47.9999 17.3518L47.9995 14.0897Z" fill="#005968"/>
<path d="M32.8868 17.9522C32.8868 16.7434 32.3767 15.6735 31.4935 14.7441C32.2106 14.0151 32.6993 13.1979 32.8874 12.2904L32.8868 8.29945C32.8868 3.37349 24.4674 0.71582 16.5455 0.71582C8.62358 0.71582 0.204224 3.37333 0.204224 8.30027L0.207982 12.2068L0.21697 12.2904C0.404735 13.1948 0.890244 14.0097 1.60192 14.7362C0.715225 15.6675 0.204224 16.7413 0.204224 17.9525L0.207982 21.8597L0.21697 21.9427C0.404735 22.8471 0.890244 23.6621 1.60192 24.3885C0.715225 25.3204 0.204224 26.3935 0.204224 27.6048L0.207982 31.512L0.21697 31.5956C0.404735 32.4998 0.890244 33.3149 1.60192 34.0414C0.715225 34.9727 0.204224 36.0458 0.204224 37.2577L0.207982 41.1649L0.21697 41.2479C1.13602 45.6811 9.12723 48.0002 16.5455 48.0002C23.9638 48.0002 31.9685 45.6811 32.8874 41.2479L32.8868 37.2574C32.8868 36.0486 32.3767 34.9787 31.4935 34.0492C32.2106 33.3203 32.6993 32.5033 32.8874 31.5956L32.8868 27.6045C32.8868 26.3963 32.3767 25.3258 31.4935 24.3963C32.2106 23.668 32.6993 22.8503 32.8874 21.9427L32.8868 17.9522ZM29.2864 27.6045C29.2864 29.0141 24.4486 31.6038 16.5455 31.6038C8.64237 31.6038 3.8046 29.0141 3.8046 27.6045C3.8046 27.2642 4.09156 26.8545 4.63116 26.4298C7.82251 27.9257 12.2777 28.6955 16.5455 28.6955C20.8108 28.6955 25.2685 27.9268 28.4633 26.4319C29.0001 26.8561 29.2864 27.2646 29.2864 27.6045ZM29.2864 17.9522C29.2864 19.3618 24.4486 21.9508 16.5455 21.9508C8.64237 21.9508 3.8046 19.3618 3.8046 17.9522C3.8046 17.6113 4.09156 17.2022 4.63116 16.7769C7.82251 18.2734 12.2777 19.0426 16.5455 19.0426C20.8108 19.0426 25.2685 18.2744 28.4633 16.7797C29.0001 17.2039 29.2864 17.6123 29.2864 17.9522ZM16.5455 4.30082C24.4485 4.30082 29.2864 6.88983 29.2864 8.29945C29.2864 9.70973 24.4486 12.2986 16.5455 12.2986C8.64237 12.2986 3.8046 9.70973 3.8046 8.29945C3.80477 6.88966 8.64237 4.30082 16.5455 4.30082ZM16.5455 41.2559C8.64237 41.2559 3.8046 38.6668 3.8046 37.2572C3.8046 36.9163 4.09156 36.5073 4.63116 36.0819C7.82251 37.5784 12.2777 38.3476 16.5455 38.3476C20.8108 38.3476 25.2685 37.5789 28.4633 36.0847C29.0001 36.5087 29.2864 36.9171 29.2864 37.2572C29.2864 38.667 24.4486 41.2559 16.5455 41.2559Z" fill="#005968"/>
</g>
<defs>
<clipPath id="clip0">
<rect width="48" height="48" fill="white"/>
</clipPath>
</defs>
</svg>
