<svg id="Layer_1" data-name="Layer 1" xmlns="http://www.w3.org/2000/svg" xmlns:xlink="http://www.w3.org/1999/xlink" viewBox="0 0 96.53 96.53"><defs><style>.cls-1{fill:#2684ff;}.cls-2{fill:url(#linear-gradient);}.cls-3{fill:url(#linear-gradient-2);}</style><linearGradient id="linear-gradient" x1="175.34" y1="229.02" x2="175.2" y2="228.87" gradientTransform="matrix(133.62, 0, 0, -132.84, -23356.67, 30446.08)" gradientUnits="userSpaceOnUse"><stop offset="0.18" stop-color="#0052cc"/><stop offset="1" stop-color="#2684ff"/></linearGradient><linearGradient id="linear-gradient-2" x1="175.64" y1="229.31" x2="175.47" y2="229.15" gradientTransform="matrix(133.62, 0, 0, -132.84, -23417.54, 30507.31)" xlink:href="#linear-gradient"/></defs><path class="cls-1" d="M91.6,1H46.06a20.52,20.52,0,0,0,6,14.54,20.52,20.52,0,0,0,14.54,6H75v8.1A20.55,20.55,0,0,0,95.55,50.18V4.92A4,4,0,0,0,91.6,1Z"/><path class="cls-2" d="M69.07,23.67H23.52A20.55,20.55,0,0,0,44.07,44.21h8.39v8.13A20.55,20.55,0,0,0,73,72.87V27.62A4,4,0,0,0,69.07,23.67Z"/><path class="cls-3" d="M46.52,46.35H1A20.57,20.57,0,0,0,21.53,66.91H30V75A20.55,20.55,0,0,0,50.47,95.55V50.3A4,4,0,0,0,46.52,46.35Z"/></svg>