<svg id="Layer_1" data-name="Layer 1" xmlns="http://www.w3.org/2000/svg" viewBox="0 0 2381.4 2354.5"><defs><style>.cls-1{fill:#5558af;}.cls-2{fill:#fff;}</style></defs><path class="cls-1" d="M2015.6,899.2a212.93,212.93,0,1,0-45.8-67.9,217.51,217.51,0,0,0,45.8,67.9ZM1953.2,1097v642.1h107a608.9,608.9,0,0,0,109.5-10.4,341.31,341.31,0,0,0,103.7-36.2,231.25,231.25,0,0,0,77.3-68.2,176.8,176.8,0,0,0,30.5-106.5V1097ZM1606.4,827.8a207,207,0,0,0,82.8-16.7,213.42,213.42,0,0,0-.2-393.2,207.15,207.15,0,0,0-82.9-16.7,204.31,204.31,0,0,0-82.3,16.7c-19.4,8.3-25.5,19.1-52.2,32.1V779c26.8,13.1,32.8,23.8,52.2,32.1a204,204,0,0,0,82.6,16.7ZM1471.6,1908.9c26.8,5.8,36.4,10.3,55.4,12.9a455.22,455.22,0,0,0,62.8,4.6,474.37,474.37,0,0,0,96.5-10.4,285.06,285.06,0,0,0,91.5-35.7,210.08,210.08,0,0,0,68.2-67.7,194.66,194.66,0,0,0,26.9-106.4v-743H1471.6v945.7ZM0,2113.7l1391.3,240.8V0L0,240.8Z"/><path class="cls-2" d="M1016.7,722.4,374.6,761.5V909.6l240.8-9.7v686.7l160.5,9.4V893.6l240.8-10.7Z"/></svg>