<svg id="Layer_1" data-name="Layer 1" xmlns="http://www.w3.org/2000/svg" xmlns:xlink="http://www.w3.org/1999/xlink" viewBox="0 0 96.53 96.53"><defs><style>.cls-1{fill:#fff;}.cls-2{mask:url(#mask);}.cls-3{fill:url(#linear-gradient);}</style><mask id="mask" x="0.63" y="0.67" width="95.21" height="95.16" maskUnits="userSpaceOnUse"><path class="cls-1" d="M70.82,34.75l9.55-4.07-9.14-9.14-2,12.06A4.31,4.31,0,0,1,70.82,34.75Z"/><path class="cls-1" d="M95.67,47.29a5.14,5.14,0,0,0-1.43-2.74L82.58,32.89,72.15,37.34Z"/><path class="cls-1" d="M50,28l14.78,6.26a4.38,4.38,0,0,1,1.62-.83L68.71,19,59.18,9.5,49.05,25.24A5.06,5.06,0,0,1,50,28Z"/><path class="cls-1" d="M1.51,51.16a5.09,5.09,0,0,0,.64.78l8.47,8.47,11.56-4.93Z"/><path class="cls-1" d="M67.91,41.93,65.19,58.65a4.27,4.27,0,0,1,1.72,3.23l14.37,3,13-13a5.31,5.31,0,0,0,1.1-1.64L71.12,40.05A4.39,4.39,0,0,1,67.91,41.93Z"/><path class="cls-1" d="M64,66.14,60.86,85.31l18-18L66,64.66A4.29,4.29,0,0,1,64,66.14Z"/><path class="cls-1" d="M61.06,66.05a4.29,4.29,0,0,1-2.57-3L33.37,57.83a5.28,5.28,0,0,1-.5.82L55.24,90.93l2.11-2.11Z"/><path class="cls-1" d="M44.9,23.09a5,5,0,0,1,1.86.35l10.33-16L51.88,2.2a5.23,5.23,0,0,0-7.38,0L28,18.67l13.49,5.71A5.09,5.09,0,0,1,44.9,23.09Z"/><path class="cls-1" d="M33.75,53.7A5.52,5.52,0,0,1,34,55l24.85,5.2a4.28,4.28,0,0,1,3.59-2.38l2.7-16.59a4.39,4.39,0,0,1-.71-.58Z"/><path class="cls-1" d="M63.15,37.59a4.31,4.31,0,0,1,.09-.88l-14-5.92a5.08,5.08,0,0,1-4.34,2.44,4.83,4.83,0,0,1-.94-.09l-11.6,18L63.17,38C63.16,37.87,63.15,37.73,63.15,37.59Z"/><path class="cls-1" d="M28.22,49.52a6.06,6.06,0,0,1,1.6.22L41.38,31.8a5.07,5.07,0,0,1-1.54-3.64A4.93,4.93,0,0,1,40,26.88l-14.18-6L14.52,32.17,26.68,49.72A6,6,0,0,1,28.22,49.52Z"/><path class="cls-1" d="M28.22,61a5.72,5.72,0,0,1-2-.36l-6,9.33L44.5,94.29a5.23,5.23,0,0,0,7.38,0L53.16,93,30.63,60.5A5.74,5.74,0,0,1,28.22,61Z"/><path class="cls-1" d="M24.17,51.18,12.44,34.25,2.15,44.55A5.19,5.19,0,0,0,.63,48l22.43,4.69A5.61,5.61,0,0,1,24.17,51.18Z"/><path class="cls-1" d="M23.25,58.18,12.83,62.62l5.29,5.29L23.84,59A5.51,5.51,0,0,1,23.25,58.18Z"/></mask><linearGradient id="linear-gradient" x1="48.26" y1="0.5" x2="48.26" y2="95.64" gradientTransform="translate(-19.99 48.26) rotate(-45)" gradientUnits="userSpaceOnUse"><stop offset="0" stop-color="#20c6b7"/><stop offset="0.61" stop-color="#3fa8bc"/><stop offset="1" stop-color="#4d9abf"/></linearGradient></defs><g class="cls-2"><rect class="cls-3" x="13.09" y="13.09" width="70.34" height="70.34" rx="5.22" transform="translate(48.26 -19.99) rotate(45)"/></g></svg>