<?xml version="1.0" encoding="utf-8"?>
<!-- Generator: Adobe Illustrator 25.3.1, SVG Export Plug-In . SVG Version: 6.00 Build 0)  -->
<svg version="1.1" id="Layer_1" xmlns="http://www.w3.org/2000/svg" xmlns:xlink="http://www.w3.org/1999/xlink" x="0px" y="0px"
	 viewBox="0 0 516 474" style="enable-background:new 0 0 516 474;" xml:space="preserve">
<style type="text/css">
	.st0{fill:none;stroke:#48A8B9;stroke-width:1.4746;}
	.st1{fill:#005968;}
	.st2{fill:#48A8B9;stroke:#F3F4F6;stroke-width:1.0972;}
	.st3{fill:#FFFFFF;}
	.st4{fill:#279EB3;}
	.st5{fill:#48A8B9;}
	.st6{fill:#44C7DD;}
	.st7{fill:#54DEF5;}
	.st8{fill:#92EFFF;}
	.st9{fill:#C0F3FC;}
	.st10{fill:#48A8B9;stroke:#48A8B9;stroke-width:2.0317;}
	.st11{fill:#279EB2;}
	.st12{fill:#326DE6;}
</style>
<g>
	<path class="st0" d="M199.2,398.7h116.5c7.2,0,13,5.8,13,13v25.1c0,7.2-5.8,13-13,13H199.2c-7.2,0-13-5.8-13-13v-25.1
		C186.1,404.5,192,398.7,199.2,398.7z"/>
	<path class="st1" d="M232.7,347.9h-2.3v8.6h-0.1l-6-8.6h-2.1v12.7h2.3v-8.6h0.1l6,8.6h2V347.9z M235.1,360.6h2.2v-9.5h-2.2V360.6z
		 M236.2,349.7c0.7,0,1.3-0.5,1.3-1.2c0-0.7-0.6-1.2-1.3-1.2c-0.7,0-1.3,0.5-1.3,1.2C234.9,349.2,235.5,349.7,236.2,349.7z
		 M239.6,360.6h2.2v-5.8c0-1.2,0.8-2,1.7-2c0.9,0,1.6,0.6,1.6,1.6v6.1h2.2v-5.9c0-1.1,0.6-1.8,1.7-1.8c0.9,0,1.6,0.5,1.6,1.7v6h2.2
		v-6.4c0-2.1-1.2-3.2-3-3.2c-1.4,0-2.4,0.7-2.8,1.7H247c-0.4-1.1-1.3-1.7-2.6-1.7c-1.3,0-2.2,0.7-2.6,1.7h-0.1v-1.6h-2.1V360.6z
		 M255.3,360.6h2.2v-1.5h0.1c0.4,0.7,1.1,1.7,2.7,1.7c2.2,0,3.9-1.8,3.9-4.9c0-3.2-1.7-4.9-3.9-4.9c-1.7,0-2.4,1-2.7,1.7h-0.1v-4.7
		h-2.2V360.6z M257.5,355.8c0-1.8,0.8-3,2.2-3c1.5,0,2.3,1.3,2.3,3c0,1.8-0.8,3.1-2.3,3.1C258.3,358.9,257.5,357.7,257.5,355.8z
		 M270.4,360.7c2.2,0,3.7-1.1,4.1-2.7l-2.1-0.2c-0.3,0.8-1,1.2-2,1.2c-1.4,0-2.4-1-2.4-2.6h6.6v-0.7c0-3.3-2-4.8-4.3-4.8
		c-2.7,0-4.5,2-4.5,4.9C265.8,358.8,267.5,360.7,270.4,360.7z M268,354.9c0.1-1.2,1-2.2,2.3-2.2c1.3,0,2.1,0.9,2.2,2.2H268z
		 M278.7,347.9h-2.2v12.7h2.2V347.9z M283.3,347.9H281v12.7h2.2V347.9z M288.3,360.8c1.5,0,2.4-0.7,2.8-1.5h0.1v1.3h2.1v-6.4
		c0-2.5-2-3.3-3.9-3.3c-2,0-3.5,0.9-4,2.6l2.1,0.3c0.2-0.6,0.9-1.2,1.9-1.2c1,0,1.6,0.5,1.6,1.5v0c0,0.6-0.7,0.7-2.3,0.9
		c-1.8,0.2-3.6,0.7-3.6,2.9C285.1,359.8,286.5,360.8,288.3,360.8z M288.9,359.1c-0.9,0-1.6-0.4-1.6-1.2c0-0.9,0.7-1.2,1.7-1.4
		c0.6-0.1,1.8-0.2,2.1-0.5v1.1C291.1,358.2,290.2,359.1,288.9,359.1z M185.2,373.4h2.2c0-2.1-1.9-3.7-4.6-3.7
		c-2.7,0-4.7,1.5-4.6,3.7c0,1.8,1.3,2.9,3.4,3.4l1.4,0.4c1.4,0.3,2.3,0.8,2.3,1.8c0,1.1-1,1.8-2.5,1.8c-1.4,0-2.5-0.6-2.6-2h-2.3
		c0.1,2.5,2,3.9,4.9,3.9c3,0,4.8-1.5,4.8-3.7c0-2.2-1.8-3.2-3.7-3.6l-1.2-0.3c-1-0.2-2.2-0.7-2.1-1.7c0-1,0.9-1.6,2.3-1.6
		C184.2,371.7,185.1,372.3,185.2,373.4z M193.7,382.7c2.2,0,3.7-1.1,4.1-2.7l-2.1-0.2c-0.3,0.8-1,1.2-2,1.2c-1.4,0-2.4-1-2.4-2.6
		h6.6v-0.7c0-3.3-2-4.8-4.3-4.8c-2.7,0-4.5,2-4.5,4.9C189.1,380.8,190.9,382.7,193.7,382.7z M191.3,376.9c0.1-1.2,1-2.2,2.3-2.2
		c1.3,0,2.1,0.9,2.2,2.2H191.3z M199.8,382.6h2.2V377c0-1.2,0.9-2.1,2.1-2.1c0.4,0,0.8,0.1,1,0.1V373c-0.2,0-0.6-0.1-0.8-0.1
		c-1.1,0-2,0.6-2.3,1.7H202v-1.6h-2.2V382.6z M215.5,373.1h-2.4l-2.2,7h-0.1l-2.2-7h-2.4l3.4,9.5h2.5L215.5,373.1z M220.9,382.7
		c2.2,0,3.7-1.1,4.1-2.7l-2.1-0.2c-0.3,0.8-1,1.2-2,1.2c-1.4,0-2.4-1-2.4-2.6h6.6v-0.7c0-3.3-2-4.8-4.3-4.8c-2.7,0-4.5,2-4.5,4.9
		C216.3,380.8,218.1,382.7,220.9,382.7z M218.5,376.9c0.1-1.2,1-2.2,2.3-2.2c1.3,0,2.2,0.9,2.2,2.2H218.5z M227,382.6h2.2V377
		c0-1.2,0.9-2.1,2.1-2.1c0.4,0,0.8,0.1,1,0.1V373c-0.2,0-0.6-0.1-0.8-0.1c-1.1,0-2,0.6-2.3,1.7h-0.1v-1.6H227V382.6z M236.2,369.9
		h-2.2v12.7h2.2V369.9z M242.7,382.7c2.2,0,3.7-1.1,4.1-2.7l-2.1-0.2c-0.3,0.8-1,1.2-2,1.2c-1.4,0-2.4-1-2.4-2.6h6.6v-0.7
		c0-3.3-2-4.8-4.3-4.8c-2.7,0-4.5,2-4.5,4.9C238.1,380.8,239.8,382.7,242.7,382.7z M240.3,376.9c0.1-1.2,1-2.2,2.3-2.2
		c1.3,0,2.1,0.9,2.2,2.2H240.3z M256.3,375.6c-0.3-1.6-1.6-2.6-3.8-2.6c-2.3,0-3.8,1.1-3.8,2.9c0,1.4,0.8,2.3,2.7,2.7l1.6,0.3
		c0.9,0.2,1.3,0.5,1.3,1.1c0,0.6-0.7,1.1-1.8,1.1c-1,0-1.7-0.4-1.9-1.3l-2.2,0.2c0.3,1.7,1.7,2.8,4.1,2.8c2.4,0,4-1.2,4.1-3
		c0-1.4-0.9-2.2-2.7-2.6l-1.6-0.3c-1-0.2-1.3-0.5-1.3-1.1c0-0.6,0.7-1.1,1.6-1.1c1,0,1.6,0.6,1.7,1.2L256.3,375.6z M265.8,375.6
		c-0.3-1.6-1.6-2.6-3.8-2.6c-2.3,0-3.8,1.1-3.8,2.9c0,1.4,0.8,2.3,2.7,2.7l1.6,0.3c0.9,0.2,1.3,0.5,1.3,1.1c0,0.6-0.7,1.1-1.8,1.1
		c-1,0-1.7-0.4-1.9-1.3l-2.2,0.2c0.3,1.7,1.7,2.8,4.1,2.8c2.4,0,4-1.2,4.1-3c0-1.4-0.9-2.2-2.7-2.6l-1.6-0.3c-1-0.2-1.3-0.5-1.3-1.1
		c0-0.6,0.7-1.1,1.6-1.1c1,0,1.6,0.6,1.7,1.2L265.8,375.6z M272.3,382.6h2.3v-4.3h2.4c2.9,0,4.5-1.8,4.5-4.2c0-2.4-1.6-4.2-4.5-4.2
		h-4.7V382.6z M274.6,376.4v-4.6h2.1c1.7,0,2.5,0.9,2.5,2.3c0,1.3-0.8,2.3-2.5,2.3H274.6z M285.6,369.9h-2.2v12.7h2.2V369.9z
		 M290.6,382.8c1.5,0,2.4-0.7,2.8-1.5h0.1v1.3h2.1v-6.4c0-2.5-2-3.3-3.9-3.3c-2,0-3.5,0.9-4,2.6l2.1,0.3c0.2-0.6,0.9-1.2,1.9-1.2
		c1,0,1.6,0.5,1.6,1.5v0c0,0.6-0.7,0.7-2.3,0.9c-1.8,0.2-3.6,0.7-3.6,2.9C287.5,381.8,288.8,382.8,290.6,382.8z M291.2,381.1
		c-0.9,0-1.6-0.4-1.6-1.2c0-0.9,0.7-1.2,1.7-1.4c0.6-0.1,1.8-0.2,2.1-0.5v1.1C293.4,380.2,292.6,381.1,291.2,381.1z M302.6,373.1
		h-1.9v-2.3h-2.2v2.3h-1.3v1.7h1.3v5.3c0,1.8,1.3,2.7,3,2.6c0.6,0,1.1-0.1,1.3-0.2l-0.4-1.7c-0.1,0-0.4,0.1-0.7,0.1
		c-0.6,0-1-0.2-1-1.1v-4.9h1.9V373.1z M309.3,373.1h-2v-0.7c0-0.7,0.3-1.2,1.1-1.2c0.4,0,0.6,0.1,0.8,0.1l0.5-1.7
		c-0.3-0.1-0.9-0.3-1.7-0.3c-1.6,0-3,0.9-3,2.9v0.9h-1.4v1.7h1.4v7.8h2.2v-7.8h2V373.1z M314.9,382.7c2.8,0,4.5-2,4.5-4.9
		c0-2.9-1.8-4.9-4.5-4.9s-4.5,2-4.5,4.9C310.3,380.8,312.1,382.7,314.9,382.7z M314.9,381c-1.5,0-2.3-1.4-2.3-3.1
		c0-1.7,0.8-3.1,2.3-3.1c1.5,0,2.3,1.4,2.3,3.1C317.1,379.6,316.4,381,314.9,381z M321.3,382.6h2.2V377c0-1.2,0.9-2.1,2.1-2.1
		c0.4,0,0.8,0.1,1,0.1V373c-0.2,0-0.6-0.1-0.8-0.1c-1.1,0-2,0.6-2.3,1.7h-0.1v-1.6h-2.2V382.6z M328.2,382.6h2.2v-5.8
		c0-1.2,0.8-2,1.7-2c0.9,0,1.6,0.6,1.6,1.6v6.1h2.2v-5.9c0-1.1,0.6-1.8,1.7-1.8c0.9,0,1.6,0.5,1.6,1.7v6h2.2v-6.4
		c0-2.1-1.2-3.2-3-3.2c-1.4,0-2.4,0.7-2.8,1.7h-0.1c-0.4-1.1-1.3-1.7-2.6-1.7c-1.3,0-2.2,0.7-2.6,1.7h-0.1v-1.6h-2.1V382.6z"/>
	<circle class="st2" cx="260" cy="303" r="28.9"/>
	<path class="st3" d="M259.5,313.4c3.2-0.9,8.4-6.4,7.2-8.9c5.4-1.8,10.5-9.8,10-10.9c-1.4-4-11.9,5.3-15.7,9.9
		c-0.8,1.4-3.5,5.8-3.5,5.8l2.7-6.3c0,0-10.9-14.1-15.6-8.8c-3.5,4,3.4,9,4.7,9.5c-1.2,1-4.6,9,3.6,9.7c1.8,0.1,3.8-1.3,3.8-1.3
		S256.4,314.3,259.5,313.4z"/>
	<path class="st4" d="M390.6,310c12.3,32.4,12.3,68.1,0,100.5l75.9,31.5c7.6,3.2,16.4-0.5,18.9-8.4c15.5-47.7,15.5-99,0.1-146.7
		c-2.5-7.8-11.3-11.5-18.9-8.4L390.6,310z"/>
	<path class="st5" d="M372.1,317.6c10.3,27.5,10.3,57.7,0,85.2l18.5,7.7c12.3-32.4,12.3-68.1,0.1-100.5L372.1,317.6z"/>
	<path class="st5" d="M365.7,359l23,13l-0.2-26.4L365.7,359z"/>
	<path class="st6" d="M316.3,230.9c31.6,14.2,56.9,39.5,71,71.1l76-31.4c7.6-3.1,11.2-12,7.5-19.3c-22.8-44.6-59-80.9-103.6-103.8
		c-7.3-3.8-16.1-0.2-19.3,7.4L316.3,230.9z"/>
	<path class="st5" d="M308.6,249.4c26.7,12.2,48.1,33.6,60.2,60.2l18.5-7.7c-14.2-31.6-39.4-56.9-71-71.1L308.6,249.4z"/>
	<path class="st5" d="M333.4,282.7l25.4-7L340,257.1L333.4,282.7z"/>
	<path class="st7" d="M207.8,227.5c32.4-12.3,68.1-12.2,100.5,0.1l31.5-75.9c3.2-7.6-0.5-16.4-8.4-18.9
		c-47.6-15.5-99-15.5-146.7-0.1c-7.8,2.5-11.5,11.3-8.4,18.9L207.8,227.5z"/>
	<path class="st5" d="M215.5,246c27.5-10.3,57.7-10.2,85.1,0.1l7.7-18.5c-32.4-12.3-68.1-12.4-100.5-0.1L215.5,246z"/>
	<path class="st5" d="M256.5,251.6l13-23l-26.4,0.2L256.5,251.6z"/>
	<path class="st8" d="M45.3,250.9c-3.8,7.3-0.2,16.1,7.4,19.3l75.9,31.5c14.2-31.6,39.6-56.8,71.2-71l-31.4-76
		c-3.1-7.6-12-11.2-19.3-7.5C104.5,170.1,68.1,206.3,45.3,250.9z"/>
	<path class="st5" d="M128.7,301.7l18.5,7.7c12.2-26.7,33.6-48,60.3-60.1l-7.6-18.5C168.2,244.9,142.9,270.2,128.7,301.7z"/>
	<path class="st5" d="M154.6,277.4l25.6,6.6l-7-25.4L154.6,277.4z"/>
	<path class="st9" d="M49.4,278.2c-7.6-3.2-16.4,0.5-18.9,8.4c-15.5,47.7-15.5,99-0.1,146.7c2.5,7.8,11.3,11.5,18.9,8.4l76-31.4
		c-12.3-32.4-12.2-68.2,0.1-100.5L49.4,278.2z"/>
	<path class="st5" d="M125.4,309.7c-12.4,32.4-12.4,68.1-0.1,100.5l18.5-7.6c-10.3-27.5-10.2-57.8,0.1-85.2L125.4,309.7z"/>
	<path class="st5" d="M126.3,374.2l22.7-13.4l-23-13L126.3,374.2z"/>
	<path d="M39,354.9c2.8,0,4.4-1.7,4.4-4.6c0-2.8-1.6-4.5-4.3-4.5H36v9.1H39z M37.6,353.5v-6.2H39c1.8,0,2.8,1,2.8,3.1
		c0,2.1-1,3.1-2.9,3.1H37.6z M47.9,355c1.6,0,2.7-0.8,3-2l-1.5-0.2c-0.2,0.6-0.7,0.9-1.4,0.9c-1,0-1.7-0.7-1.7-1.8H51v-0.5
		c0-2.4-1.4-3.4-3.1-3.4c-2,0-3.2,1.4-3.2,3.5C44.6,353.7,45.9,355,47.9,355z M46.2,350.8c0-0.9,0.7-1.6,1.7-1.6
		c0.9,0,1.5,0.7,1.6,1.6H46.2z M58.2,348.1h-1.7l-1.6,5.1h-0.1l-1.6-5.1h-1.7l2.4,6.8h1.8L58.2,348.1z M62.1,355c1.6,0,2.7-0.8,3-2
		l-1.5-0.2c-0.2,0.6-0.7,0.9-1.4,0.9c-1,0-1.7-0.7-1.7-1.8h4.7v-0.5c0-2.4-1.4-3.4-3.1-3.4c-2,0-3.2,1.4-3.2,3.5
		C58.8,353.7,60.1,355,62.1,355z M60.4,350.8c0-0.9,0.7-1.6,1.7-1.6c0.9,0,1.5,0.7,1.6,1.6H60.4z M68.1,345.8h-1.6v9.1h1.6V345.8z
		 M72.7,355c2,0,3.3-1.4,3.3-3.5c0-2.1-1.3-3.5-3.3-3.5c-2,0-3.3,1.4-3.3,3.5C69.5,353.6,70.7,355,72.7,355z M72.7,353.7
		c-1.1,0-1.6-1-1.6-2.2c0-1.2,0.5-2.2,1.6-2.2c1.1,0,1.6,1,1.6,2.2C74.4,352.8,73.8,353.7,72.7,353.7z M77.4,357.5H79v-3.6H79
		c0.3,0.5,0.8,1.2,2,1.2c1.6,0,2.8-1.3,2.8-3.5c0-2.3-1.2-3.5-2.8-3.5c-1.2,0-1.7,0.7-1.9,1.2h-0.1v-1.1h-1.6V357.5z M78.9,351.5
		c0-1.3,0.6-2.2,1.6-2.2c1.1,0,1.6,0.9,1.6,2.2c0,1.3-0.6,2.2-1.6,2.2C79.5,353.7,78.9,352.8,78.9,351.5z M88.2,355
		c1.6,0,2.7-0.8,3-2l-1.5-0.2c-0.2,0.6-0.7,0.9-1.4,0.9c-1,0-1.7-0.7-1.7-1.8h4.7v-0.5c0-2.4-1.4-3.4-3.1-3.4c-2,0-3.2,1.4-3.2,3.5
		C84.9,353.7,86.1,355,88.2,355z M86.5,350.8c0-0.9,0.7-1.6,1.7-1.6c0.9,0,1.5,0.7,1.6,1.6H86.5z M92.6,354.9h1.6v-4
		c0-0.9,0.7-1.5,1.5-1.5c0.3,0,0.6,0,0.7,0.1V348c-0.1,0-0.4,0-0.6,0c-0.8,0-1.4,0.4-1.7,1.2h-0.1v-1.1h-1.6V354.9z M51.6,363.2h2.8
		v7.7h1.6v-7.7h2.8v-1.4h-7.2V363.2z M62.2,371c2,0,3.3-1.4,3.3-3.5c0-2.1-1.3-3.5-3.3-3.5c-2,0-3.3,1.4-3.3,3.5
		C58.9,369.6,60.2,371,62.2,371z M62.2,369.7c-1.1,0-1.6-1-1.6-2.2c0-1.2,0.5-2.2,1.6-2.2c1.1,0,1.6,1,1.6,2.2
		C63.8,368.8,63.3,369.7,62.2,369.7z M69.8,371c2,0,3.3-1.4,3.3-3.5c0-2.1-1.3-3.5-3.3-3.5c-2,0-3.3,1.4-3.3,3.5
		C66.5,369.6,67.8,371,69.8,371z M69.8,369.7c-1.1,0-1.6-1-1.6-2.2c0-1.2,0.5-2.2,1.6-2.2c1.1,0,1.6,1,1.6,2.2
		C71.4,368.8,70.9,369.7,69.8,369.7z M76,361.8h-1.6v9.1H76V361.8z M83.1,365.9c-0.2-1.2-1.1-1.9-2.7-1.9c-1.6,0-2.8,0.8-2.8,2.1
		c0,1,0.6,1.6,1.9,1.9l1.2,0.2c0.6,0.1,0.9,0.4,0.9,0.8c0,0.5-0.5,0.8-1.3,0.8c-0.7,0-1.2-0.3-1.4-0.9l-1.6,0.2c0.2,1.3,1.3,2,2.9,2
		c1.7,0,2.9-0.9,2.9-2.2c0-1-0.6-1.6-1.9-1.8l-1.2-0.2c-0.7-0.2-1-0.4-1-0.8c0-0.5,0.5-0.8,1.2-0.8c0.7,0,1.1,0.4,1.3,0.9
		L83.1,365.9z"/>
	<path d="M105.6,221.5h1.6c0-1.5-1.3-2.6-3.3-2.6c-1.9,0-3.3,1.1-3.3,2.7c0,1.3,0.9,2.1,2.4,2.4l1,0.3c1,0.2,1.6,0.6,1.6,1.3
		c0,0.8-0.7,1.3-1.8,1.3c-1,0-1.8-0.5-1.9-1.4h-1.6c0.1,1.8,1.4,2.8,3.5,2.8c2.2,0,3.4-1.1,3.4-2.7c0-1.6-1.3-2.3-2.7-2.6l-0.9-0.2
		c-0.7-0.2-1.6-0.5-1.5-1.2c0-0.7,0.6-1.2,1.6-1.2C104.9,220.3,105.5,220.7,105.6,221.5z M109.7,230.6c1.3,0,2-0.6,2.4-1.7l2.7-7.6
		l-1.7,0l-1.6,5.1h-0.1l-1.6-5.1h-1.7l2.5,7l-0.1,0.4c-0.3,0.8-0.8,0.8-1.5,0.6l-0.4,1.3C108.9,230.6,109.2,230.6,109.7,230.6z
		 M121.3,223.1c-0.2-1.2-1.1-1.9-2.7-1.9c-1.6,0-2.8,0.8-2.8,2.1c0,1,0.6,1.7,1.9,1.9l1.2,0.2c0.6,0.1,0.9,0.4,0.9,0.8
		c0,0.5-0.5,0.8-1.3,0.8c-0.7,0-1.2-0.3-1.4-0.9l-1.6,0.2c0.2,1.3,1.3,2,2.9,2c1.7,0,2.9-0.9,2.9-2.2c0-1-0.6-1.6-1.9-1.8l-1.2-0.2
		c-0.7-0.2-1-0.4-1-0.8c0-0.5,0.5-0.8,1.2-0.8c0.7,0,1.1,0.4,1.3,0.9L121.3,223.1z M126.2,221.3h-1.3v-1.6h-1.6v1.6h-1v1.2h1v3.8
		c0,1.3,0.9,1.9,2.1,1.9c0.5,0,0.8-0.1,0.9-0.2l-0.3-1.3c-0.1,0-0.3,0.1-0.5,0.1c-0.4,0-0.7-0.1-0.7-0.8v-3.5h1.3V221.3z
		 M130.4,228.2c1.6,0,2.7-0.8,3-2l-1.5-0.2c-0.2,0.6-0.8,0.9-1.4,0.9c-1,0-1.7-0.7-1.7-1.9h4.7v-0.5c0-2.4-1.4-3.4-3.1-3.4
		c-2,0-3.2,1.4-3.2,3.5C127.1,226.9,128.4,228.2,130.4,228.2z M128.7,224c0-0.9,0.7-1.6,1.7-1.6c0.9,0,1.5,0.7,1.6,1.6H128.7z
		 M134.8,228.1h1.6v-4.1c0-0.8,0.6-1.4,1.3-1.4c0.7,0,1.1,0.5,1.1,1.2v4.4h1.6v-4.2c0-0.8,0.5-1.3,1.2-1.3c0.6,0,1.2,0.4,1.2,1.2
		v4.3h1.6v-4.6c0-1.5-0.9-2.3-2.1-2.3c-1,0-1.7,0.5-2,1.2h-0.1c-0.3-0.8-0.9-1.2-1.8-1.2c-0.9,0-1.6,0.5-1.9,1.2h-0.1v-1.2h-1.5
		V228.1z M102,237.5h1.6c0-1.5-1.3-2.6-3.3-2.6c-1.9,0-3.3,1.1-3.3,2.7c0,1.3,0.9,2.1,2.4,2.4l1,0.3c1,0.2,1.6,0.6,1.6,1.3
		c0,0.8-0.7,1.3-1.8,1.3c-1,0-1.8-0.5-1.9-1.4h-1.6c0.1,1.8,1.4,2.8,3.5,2.8c2.2,0,3.4-1.1,3.4-2.7c0-1.6-1.3-2.3-2.7-2.6l-0.9-0.2
		c-0.7-0.2-1.6-0.5-1.5-1.2c0-0.7,0.6-1.2,1.6-1.2C101.3,236.3,101.9,236.7,102,237.5z M108.1,244.2c1.6,0,2.7-0.8,3-2l-1.5-0.2
		c-0.2,0.6-0.8,0.9-1.4,0.9c-1,0-1.7-0.7-1.7-1.9h4.7v-0.5c0-2.4-1.4-3.4-3.1-3.4c-2,0-3.2,1.4-3.2,3.5
		C104.8,242.9,106.1,244.2,108.1,244.2z M106.4,240c0-0.9,0.7-1.6,1.6-1.6c0.9,0,1.5,0.7,1.6,1.6H106.4z M112.5,244.1h1.6v-4
		c0-0.9,0.7-1.5,1.5-1.5c0.3,0,0.6,0,0.7,0.1v-1.5c-0.1,0-0.4,0-0.6,0c-0.8,0-1.4,0.4-1.7,1.2h-0.1v-1.1h-1.6V244.1z M123.8,237.3
		h-1.7l-1.6,5.1h-0.1l-1.6-5.1h-1.7l2.4,6.8h1.8L123.8,237.3z M124.9,244.1h1.6v-6.8h-1.6V244.1z M125.7,236.3
		c0.5,0,0.9-0.4,0.9-0.9c0-0.5-0.4-0.9-0.9-0.9c-0.5,0-0.9,0.4-0.9,0.9C124.8,235.9,125.2,236.3,125.7,236.3z M131.1,244.2
		c1.7,0,2.8-1,2.9-2.5h-1.5c-0.1,0.7-0.7,1.2-1.4,1.2c-1,0-1.6-0.8-1.6-2.2c0-1.4,0.7-2.2,1.6-2.2c0.8,0,1.2,0.5,1.4,1.2h1.5
		c-0.1-1.5-1.3-2.4-2.9-2.4c-2,0-3.3,1.4-3.3,3.5C127.8,242.8,129.1,244.2,131.1,244.2z M138.4,244.2c1.6,0,2.7-0.8,3-2l-1.5-0.2
		c-0.2,0.6-0.7,0.9-1.4,0.9c-1,0-1.7-0.7-1.7-1.9h4.7v-0.5c0-2.4-1.4-3.4-3.1-3.4c-2,0-3.2,1.4-3.2,3.5
		C135.1,242.9,136.3,244.2,138.4,244.2z M136.7,240c0-0.9,0.7-1.6,1.6-1.6c0.9,0,1.5,0.7,1.6,1.6H136.7z M148.1,239.1
		c-0.2-1.2-1.1-1.9-2.7-1.9c-1.6,0-2.8,0.8-2.8,2.1c0,1,0.6,1.7,1.9,1.9l1.2,0.2c0.6,0.1,0.9,0.4,0.9,0.8c0,0.5-0.5,0.8-1.3,0.8
		c-0.7,0-1.2-0.3-1.4-0.9l-1.6,0.2c0.2,1.3,1.3,2,2.9,2c1.7,0,2.9-0.9,2.9-2.2c0-1-0.6-1.6-1.9-1.8l-1.2-0.2c-0.7-0.2-1-0.4-1-0.8
		c0-0.5,0.5-0.8,1.2-0.8c0.7,0,1.1,0.4,1.3,0.9L148.1,239.1z"/>
	<path d="M226.4,163h1.6c0-1.5-1.3-2.6-3.3-2.6c-1.9,0-3.3,1.1-3.3,2.7c0,1.3,0.9,2.1,2.4,2.4l1,0.3c1,0.2,1.6,0.6,1.6,1.3
		c0,0.8-0.7,1.3-1.8,1.3c-1,0-1.8-0.5-1.9-1.4h-1.6c0.1,1.8,1.4,2.8,3.5,2.8c2.2,0,3.4-1.1,3.4-2.7c0-1.6-1.3-2.3-2.7-2.6l-0.9-0.2
		c-0.7-0.2-1.6-0.5-1.5-1.3c0-0.7,0.6-1.2,1.6-1.2C225.7,161.8,226.3,162.2,226.4,163z M232.5,169.7c1.6,0,2.7-0.8,3-2l-1.5-0.2
		c-0.2,0.6-0.7,0.9-1.4,0.9c-1,0-1.7-0.7-1.7-1.8h4.7v-0.5c0-2.4-1.4-3.4-3.1-3.4c-2,0-3.2,1.4-3.2,3.5
		C229.2,168.4,230.5,169.7,232.5,169.7z M230.8,165.5c0-0.9,0.7-1.6,1.7-1.6c0.9,0,1.5,0.7,1.6,1.6H230.8z M236.9,169.6h1.6v-4
		c0-0.9,0.7-1.5,1.5-1.5c0.3,0,0.6,0,0.7,0.1v-1.5c-0.1,0-0.4,0-0.6,0c-0.8,0-1.4,0.4-1.7,1.2h-0.1v-1.1h-1.6V169.6z M248.1,162.8
		h-1.7l-1.6,5.1h-0.1l-1.6-5.1h-1.7l2.4,6.8h1.8L248.1,162.8z M252,169.7c1.6,0,2.7-0.8,3-2l-1.5-0.2c-0.2,0.6-0.7,0.9-1.4,0.9
		c-1,0-1.7-0.7-1.7-1.8h4.7v-0.5c0-2.4-1.4-3.4-3.1-3.4c-2,0-3.2,1.4-3.2,3.5C248.7,168.4,250,169.7,252,169.7z M250.3,165.5
		c0-0.9,0.7-1.6,1.7-1.6c0.9,0,1.5,0.7,1.6,1.6H250.3z M256.4,169.6h1.6v-4c0-0.9,0.7-1.5,1.5-1.5c0.3,0,0.6,0,0.7,0.1v-1.5
		c-0.1,0-0.4,0-0.6,0c-0.8,0-1.4,0.4-1.7,1.2H258v-1.1h-1.6V169.6z M263,160.5h-1.6v9.1h1.6V160.5z M267.6,169.7c1.6,0,2.7-0.8,3-2
		l-1.5-0.2c-0.2,0.6-0.8,0.9-1.4,0.9c-1,0-1.7-0.7-1.7-1.8h4.7v-0.5c0-2.4-1.4-3.4-3.1-3.4c-2,0-3.2,1.4-3.2,3.5
		C264.3,168.4,265.6,169.7,267.6,169.7z M265.9,165.5c0-0.9,0.7-1.6,1.7-1.6c0.9,0,1.5,0.7,1.6,1.6H265.9z M277.4,164.6
		c-0.2-1.2-1.1-1.9-2.7-1.9c-1.6,0-2.8,0.8-2.8,2.1c0,1,0.6,1.7,1.9,1.9l1.2,0.2c0.6,0.1,0.9,0.4,0.9,0.8c0,0.5-0.5,0.8-1.3,0.8
		c-0.7,0-1.2-0.3-1.4-0.9l-1.6,0.2c0.2,1.2,1.3,2,2.9,2c1.7,0,2.9-0.9,2.9-2.2c0-1-0.6-1.6-1.9-1.8l-1.2-0.2c-0.7-0.2-1-0.4-1-0.8
		c0-0.5,0.5-0.8,1.2-0.8c0.7,0,1.1,0.4,1.3,0.9L277.4,164.6z M284.3,164.6c-0.2-1.2-1.1-1.9-2.7-1.9c-1.6,0-2.8,0.8-2.8,2.1
		c0,1,0.6,1.7,1.9,1.9l1.2,0.2c0.6,0.1,0.9,0.4,0.9,0.8c0,0.5-0.5,0.8-1.3,0.8c-0.7,0-1.2-0.3-1.4-0.9l-1.6,0.2c0.2,1.2,1.3,2,2.9,2
		c1.7,0,2.9-0.9,2.9-2.2c0-1-0.6-1.6-1.9-1.8l-1.2-0.2c-0.7-0.2-1-0.4-1-0.8c0-0.5,0.5-0.8,1.2-0.8c0.7,0,1.1,0.4,1.3,0.9
		L284.3,164.6z M234.8,179h1.6c0-1.5-1.3-2.6-3.3-2.6c-1.9,0-3.3,1.1-3.3,2.7c0,1.3,0.9,2.1,2.4,2.4l1,0.3c1,0.2,1.6,0.6,1.6,1.3
		c0,0.8-0.7,1.3-1.8,1.3c-1,0-1.8-0.5-1.9-1.4h-1.6c0.1,1.8,1.4,2.8,3.5,2.8c2.2,0,3.4-1.1,3.4-2.7c0-1.6-1.3-2.3-2.7-2.6l-0.9-0.2
		c-0.7-0.2-1.6-0.5-1.5-1.3c0-0.7,0.6-1.2,1.6-1.2C234,177.8,234.7,178.2,234.8,179z M241.3,178.8h-1.3v-1.6h-1.6v1.6h-1v1.2h1v3.8
		c0,1.3,0.9,1.9,2.1,1.9c0.5,0,0.8-0.1,0.9-0.2l-0.3-1.3c-0.1,0-0.3,0.1-0.5,0.1c-0.4,0-0.7-0.1-0.7-0.8V180h1.3V178.8z
		 M245.5,185.7c2,0,3.3-1.4,3.3-3.5c0-2.1-1.3-3.5-3.3-3.5c-2,0-3.3,1.4-3.3,3.5C242.3,184.3,243.5,185.7,245.5,185.7z M245.5,184.4
		c-1.1,0-1.6-1-1.6-2.2c0-1.2,0.5-2.2,1.6-2.2c1.1,0,1.6,1,1.6,2.2C247.2,183.5,246.6,184.4,245.5,184.4z M250.2,185.6h1.6v-4
		c0-0.9,0.7-1.5,1.5-1.5c0.3,0,0.6,0,0.7,0.1v-1.5c-0.1,0-0.4,0-0.6,0c-0.8,0-1.4,0.4-1.7,1.2h-0.1v-1.1h-1.6V185.6z M256.9,185.7
		c1.1,0,1.7-0.5,2-1.1h0.1v0.9h1.5V181c0-1.8-1.5-2.3-2.8-2.3c-1.4,0-2.5,0.6-2.9,1.9l1.5,0.2c0.2-0.5,0.6-0.9,1.4-0.9
		c0.7,0,1.2,0.4,1.2,1.1v0c0,0.5-0.5,0.5-1.7,0.6c-1.3,0.1-2.6,0.5-2.6,2.1C254.7,185,255.6,185.7,256.9,185.7z M257.4,184.5
		c-0.7,0-1.1-0.3-1.1-0.9c0-0.6,0.5-0.9,1.3-1c0.4-0.1,1.3-0.2,1.5-0.3v0.8C258.9,183.9,258.3,184.5,257.4,184.5z M265.1,188.3
		c1.8,0,3.2-0.8,3.2-2.6v-6.9h-1.6v1.1h-0.1c-0.2-0.5-0.8-1.2-2-1.2c-1.6,0-2.8,1.2-2.8,3.5c0,2.2,1.2,3.3,2.8,3.3
		c1.2,0,1.7-0.6,2-1.1h0.1v1.3c0,1-0.7,1.4-1.6,1.4c-1,0-1.4-0.5-1.6-0.9l-1.4,0.4C262.4,187.5,263.4,188.3,265.1,188.3z
		 M265.1,184.2c-1.1,0-1.6-0.8-1.6-2.1c0-1.2,0.6-2.1,1.6-2.1c1,0,1.6,0.9,1.6,2.1C266.7,183.5,266.1,184.2,265.1,184.2z M273,185.7
		c1.6,0,2.7-0.8,3-2l-1.5-0.2c-0.2,0.6-0.7,0.9-1.4,0.9c-1,0-1.7-0.7-1.7-1.8h4.7v-0.5c0-2.4-1.4-3.4-3.1-3.4c-2,0-3.2,1.4-3.2,3.5
		C269.7,184.4,270.9,185.7,273,185.7z M271.3,181.5c0-0.9,0.7-1.6,1.6-1.6c0.9,0,1.5,0.7,1.6,1.6H271.3z"/>
	<path d="M362.5,218.1h1.6c0-1.5-1.3-2.6-3.3-2.6c-1.9,0-3.3,1.1-3.3,2.7c0,1.3,0.9,2.1,2.4,2.4l1,0.3c1,0.2,1.6,0.6,1.6,1.3
		c0,0.8-0.7,1.3-1.8,1.3c-1,0-1.8-0.5-1.9-1.4h-1.6c0.1,1.8,1.4,2.8,3.5,2.8c2.2,0,3.4-1.1,3.4-2.7c0-1.6-1.3-2.3-2.7-2.6l-0.9-0.2
		c-0.7-0.2-1.6-0.5-1.5-1.3c0-0.7,0.6-1.2,1.6-1.2C361.8,216.8,362.5,217.3,362.5,218.1z M368.7,224.8c1.6,0,2.7-0.8,3-2l-1.5-0.2
		c-0.2,0.6-0.7,0.9-1.4,0.9c-1,0-1.7-0.7-1.7-1.9h4.7v-0.5c0-2.4-1.4-3.4-3.1-3.4c-2,0-3.2,1.4-3.2,3.5
		C365.4,223.4,366.6,224.8,368.7,224.8z M366.9,220.6c0-0.9,0.7-1.6,1.6-1.6c0.9,0,1.5,0.7,1.6,1.6H366.9z M373,224.6h1.6v-4
		c0-0.9,0.7-1.5,1.5-1.5c0.3,0,0.6,0,0.7,0.1v-1.5c-0.1,0-0.4,0-0.6,0c-0.8,0-1.4,0.4-1.7,1.2h-0.1v-1.1H373V224.6z M384.3,217.8
		h-1.7l-1.6,5.1h-0.1l-1.6-5.1h-1.7l2.4,6.8h1.8L384.3,217.8z M388.2,224.8c1.6,0,2.7-0.8,3-2l-1.5-0.2c-0.2,0.6-0.7,0.9-1.4,0.9
		c-1,0-1.7-0.7-1.7-1.9h4.7v-0.5c0-2.4-1.4-3.4-3.1-3.4c-2,0-3.2,1.4-3.2,3.5C384.9,223.4,386.1,224.8,388.2,224.8z M386.5,220.6
		c0-0.9,0.7-1.6,1.6-1.6c0.9,0,1.5,0.7,1.6,1.6H386.5z M392.6,224.6h1.6v-4c0-0.9,0.7-1.5,1.5-1.5c0.3,0,0.6,0,0.7,0.1v-1.5
		c-0.1,0-0.4,0-0.6,0c-0.8,0-1.4,0.4-1.7,1.2h-0.1v-1.1h-1.6V224.6z M399.1,215.6h-1.6v9.1h1.6V215.6z M403.8,224.8
		c1.6,0,2.7-0.8,3-2l-1.5-0.2c-0.2,0.6-0.8,0.9-1.4,0.9c-1,0-1.7-0.7-1.7-1.9h4.7v-0.5c0-2.4-1.4-3.4-3.1-3.4c-2,0-3.2,1.4-3.2,3.5
		C400.5,223.4,401.8,224.8,403.8,224.8z M402.1,220.6c0-0.9,0.7-1.6,1.6-1.6c0.9,0,1.5,0.7,1.6,1.6H402.1z M413.6,219.6
		c-0.2-1.2-1.1-1.9-2.7-1.9c-1.6,0-2.8,0.8-2.8,2.1c0,1,0.6,1.6,1.9,1.9l1.2,0.2c0.6,0.1,0.9,0.4,0.9,0.8c0,0.5-0.5,0.8-1.3,0.8
		c-0.7,0-1.2-0.3-1.4-0.9l-1.6,0.2c0.2,1.3,1.3,2,2.9,2c1.7,0,2.9-0.9,2.9-2.2c0-1-0.6-1.6-1.9-1.8l-1.2-0.2c-0.7-0.2-1-0.4-1-0.8
		c0-0.5,0.5-0.8,1.2-0.8c0.7,0,1.1,0.4,1.3,0.9L413.6,219.6z M420.4,219.6c-0.2-1.2-1.1-1.9-2.7-1.9c-1.6,0-2.8,0.8-2.8,2.1
		c0,1,0.6,1.6,1.9,1.9l1.2,0.2c0.6,0.1,0.9,0.4,0.9,0.8c0,0.5-0.5,0.8-1.3,0.8c-0.7,0-1.2-0.3-1.4-0.9l-1.6,0.2c0.2,1.3,1.2,2,2.9,2
		c1.7,0,2.9-0.9,2.9-2.2c0-1-0.6-1.6-1.9-1.8l-1.2-0.2c-0.7-0.2-1-0.4-1-0.8c0-0.5,0.5-0.8,1.2-0.8c0.7,0,1.1,0.4,1.3,0.9
		L420.4,219.6z M369.8,234.6c-0.3-2-1.8-3.2-3.8-3.2c-2.4,0-4.2,1.7-4.2,4.7c0,2.9,1.8,4.7,4.2,4.7c2.2,0,3.6-1.4,3.8-3.1l-1.7,0
		c-0.2,1.1-1.1,1.7-2.2,1.7c-1.5,0-2.5-1.1-2.5-3.2c0-2,1-3.2,2.5-3.2c1.1,0,2,0.6,2.2,1.7H369.8z M374.2,240.8c2,0,3.3-1.4,3.3-3.5
		c0-2.1-1.3-3.5-3.3-3.5s-3.3,1.4-3.3,3.5C370.9,239.4,372.2,240.8,374.2,240.8z M374.2,239.5c-1.1,0-1.6-1-1.6-2.2s0.5-2.2,1.6-2.2
		c1.1,0,1.6,1,1.6,2.2S375.3,239.5,374.2,239.5z M378.8,240.6h1.6v-4.1c0-0.8,0.6-1.4,1.3-1.4c0.7,0,1.1,0.5,1.1,1.2v4.4h1.6v-4.2
		c0-0.8,0.5-1.3,1.2-1.3c0.6,0,1.2,0.4,1.2,1.2v4.3h1.6v-4.6c0-1.5-0.9-2.3-2.1-2.3c-1,0-1.7,0.5-2,1.2h-0.1
		c-0.3-0.8-0.9-1.2-1.8-1.2c-0.9,0-1.6,0.5-1.9,1.2h-0.1v-1.2h-1.5V240.6z M390,243.2h1.6v-3.6h0.1c0.3,0.5,0.8,1.2,2,1.2
		c1.6,0,2.8-1.3,2.8-3.5c0-2.3-1.2-3.5-2.8-3.5c-1.2,0-1.7,0.7-1.9,1.2h-0.1v-1.1H390V243.2z M391.6,237.2c0-1.3,0.6-2.2,1.6-2.2
		c1.1,0,1.6,0.9,1.6,2.2c0,1.3-0.6,2.2-1.6,2.2C392.2,239.4,391.6,238.6,391.6,237.2z M402.2,237.8c0,1-0.7,1.6-1.5,1.6
		c-0.8,0-1.3-0.5-1.3-1.4v-4.1h-1.6v4.3c0,1.6,0.9,2.6,2.3,2.6c1,0,1.7-0.5,2-1.3h0.1v1.2h1.6v-6.8h-1.6V237.8z M408.8,233.8h-1.3
		v-1.6h-1.6v1.6h-1v1.2h1v3.8c0,1.3,0.9,1.9,2.1,1.9c0.5,0,0.8-0.1,0.9-0.2l-0.3-1.3c-0.1,0-0.3,0.1-0.5,0.1c-0.4,0-0.7-0.1-0.7-0.8
		v-3.5h1.3V233.8z M413.1,240.8c1.6,0,2.7-0.8,3-2l-1.5-0.2c-0.2,0.6-0.8,0.9-1.4,0.9c-1,0-1.7-0.7-1.7-1.9h4.7v-0.5
		c0-2.4-1.4-3.4-3.1-3.4c-2,0-3.2,1.4-3.2,3.5C409.8,239.4,411.1,240.8,413.1,240.8z M411.4,236.6c0-0.9,0.7-1.6,1.6-1.6
		c0.9,0,1.5,0.7,1.6,1.6H411.4z"/>
	<path d="M408.6,349.7v9.1h1.6v-6.3h0.1l2.5,6.2h1.2l2.5-6.2h0.1v6.2h1.6v-9.1h-2l-2.7,6.6h-0.1l-2.7-6.6H408.6z M421.8,359
		c1.1,0,1.7-0.5,2-1.1h0.1v0.9h1.5v-4.6c0-1.8-1.5-2.3-2.8-2.3c-1.4,0-2.5,0.6-2.9,1.9l1.5,0.2c0.2-0.5,0.6-0.9,1.4-0.9
		c0.7,0,1.2,0.4,1.2,1.1v0c0,0.5-0.5,0.5-1.7,0.6c-1.3,0.1-2.6,0.5-2.6,2.1C419.5,358.3,420.5,359,421.8,359z M422.2,357.8
		c-0.7,0-1.1-0.3-1.1-0.9c0-0.6,0.5-0.9,1.3-1c0.4-0.1,1.3-0.2,1.5-0.3v0.8C423.8,357.1,423.1,357.8,422.2,357.8z M428.6,354.8
		c0-1,0.6-1.6,1.4-1.6c0.8,0,1.3,0.5,1.3,1.5v4.1h1.6v-4.3c0-1.6-0.9-2.6-2.3-2.6c-1,0-1.7,0.5-2,1.2h-0.1V352H427v6.8h1.6V354.8z
		 M436.5,359c1.1,0,1.7-0.5,2-1.1h0.1v0.9h1.5v-4.6c0-1.8-1.5-2.3-2.8-2.3c-1.4,0-2.5,0.6-2.9,1.9l1.5,0.2c0.2-0.5,0.6-0.9,1.4-0.9
		c0.7,0,1.2,0.4,1.2,1.1v0c0,0.5-0.5,0.5-1.7,0.6c-1.3,0.1-2.6,0.5-2.6,2.1C434.3,358.3,435.2,359,436.5,359z M437,357.8
		c-0.7,0-1.1-0.3-1.1-0.9c0-0.6,0.5-0.9,1.3-1c0.4-0.1,1.3-0.2,1.5-0.3v0.8C438.5,357.1,437.9,357.8,437,357.8z M444.7,361.5
		c1.8,0,3.2-0.8,3.2-2.6V352h-1.6v1.1h-0.1c-0.2-0.5-0.8-1.2-2-1.2c-1.6,0-2.8,1.2-2.8,3.5c0,2.2,1.2,3.3,2.8,3.3
		c1.2,0,1.7-0.6,2-1.1h0.1v1.3c0,1-0.7,1.4-1.6,1.4c-1,0-1.4-0.5-1.6-0.9l-1.4,0.4C442,360.8,443,361.5,444.7,361.5z M444.7,357.5
		c-1.1,0-1.6-0.8-1.6-2.1c0-1.2,0.6-2.1,1.6-2.1c1,0,1.6,0.9,1.6,2.1C446.3,356.7,445.8,357.5,444.7,357.5z M452.6,359
		c1.6,0,2.7-0.8,3-2l-1.5-0.2c-0.2,0.6-0.8,0.9-1.4,0.9c-1,0-1.7-0.7-1.7-1.8h4.7v-0.5c0-2.4-1.4-3.4-3.1-3.4c-2,0-3.2,1.4-3.2,3.5
		C449.3,357.6,450.5,359,452.6,359z M450.9,354.8c0-0.9,0.7-1.6,1.6-1.6c0.9,0,1.5,0.7,1.6,1.6H450.9z M457,358.8h1.6v-4.1
		c0-0.8,0.6-1.4,1.3-1.4c0.7,0,1.1,0.5,1.1,1.2v4.4h1.6v-4.2c0-0.8,0.5-1.3,1.2-1.3c0.6,0,1.2,0.4,1.2,1.2v4.3h1.6v-4.6
		c0-1.5-0.9-2.3-2.1-2.3c-1,0-1.7,0.5-2,1.2h-0.1c-0.3-0.8-0.9-1.2-1.8-1.2c-0.9,0-1.6,0.5-1.9,1.2h-0.1V352H457V358.8z M471.2,359
		c1.6,0,2.7-0.8,3-2l-1.5-0.2c-0.2,0.6-0.7,0.9-1.4,0.9c-1,0-1.7-0.7-1.7-1.8h4.7v-0.5c0-2.4-1.4-3.4-3.1-3.4c-2,0-3.2,1.4-3.2,3.5
		C467.9,357.6,469.1,359,471.2,359z M469.5,354.8c0-0.9,0.7-1.6,1.6-1.6c0.9,0,1.5,0.7,1.6,1.6H469.5z M477.2,354.8
		c0-1,0.6-1.6,1.4-1.6c0.8,0,1.3,0.5,1.3,1.5v4.1h1.6v-4.3c0-1.6-0.9-2.6-2.3-2.6c-1,0-1.7,0.5-2,1.2h-0.1V352h-1.5v6.8h1.6V354.8z
		 M486.6,352h-1.3v-1.6h-1.6v1.6h-1v1.2h1v3.8c0,1.3,0.9,1.9,2.1,1.9c0.5,0,0.8-0.1,0.9-0.2l-0.3-1.3c-0.1,0-0.3,0.1-0.5,0.1
		c-0.4,0-0.7-0.1-0.7-0.8v-3.5h1.3V352z M431.6,367.1h2.8v7.7h1.6v-7.7h2.8v-1.4h-7.2V367.1z M442.2,375c2,0,3.3-1.4,3.3-3.5
		c0-2.1-1.3-3.5-3.3-3.5s-3.3,1.4-3.3,3.5C438.9,373.6,440.2,375,442.2,375z M442.2,373.7c-1.1,0-1.6-1-1.6-2.2
		c0-1.2,0.5-2.2,1.6-2.2c1.1,0,1.6,1,1.6,2.2C443.8,372.7,443.3,373.7,442.2,373.7z M449.8,375c2,0,3.3-1.4,3.3-3.5
		c0-2.1-1.3-3.5-3.3-3.5s-3.3,1.4-3.3,3.5C446.5,373.6,447.8,375,449.8,375z M449.8,373.7c-1.1,0-1.6-1-1.6-2.2
		c0-1.2,0.5-2.2,1.6-2.2c1.1,0,1.6,1,1.6,2.2C451.4,372.7,450.9,373.7,449.8,373.7z M456,365.7h-1.6v9.1h1.6V365.7z M463,369.8
		c-0.2-1.2-1.1-1.9-2.7-1.9c-1.6,0-2.8,0.8-2.8,2.1c0,1,0.6,1.6,1.9,1.9l1.2,0.2c0.6,0.1,0.9,0.4,0.9,0.8c0,0.5-0.5,0.8-1.3,0.8
		c-0.7,0-1.2-0.3-1.4-0.9l-1.6,0.2c0.2,1.2,1.2,2,2.9,2c1.7,0,2.9-0.9,2.9-2.2c0-1-0.6-1.6-1.9-1.8l-1.2-0.2c-0.7-0.2-1-0.4-1-0.8
		c0-0.5,0.5-0.8,1.2-0.8c0.7,0,1.1,0.4,1.3,0.9L463,369.8z"/>
	<path class="st10" d="M89.9,140.5h1.6l-0.7-1.5l-7.6-15.5l-0.9-1.9l-0.9,1.9L73.8,139l-0.7,1.5h1.6H89.9z"/>
	<rect x="79.9" y="141.3" class="st5" width="5.1" height="31.5"/>
	<path class="st10" d="M265,83.8h1.6l-0.7-1.5l-7.6-15.5l-0.9-1.9l-0.9,1.9l-7.6,15.5l-0.7,1.5h1.6H265z"/>
	<rect x="255.3" y="84.5" class="st5" width="5.1" height="31.5"/>
	<path class="st10" d="M446.6,140.5h1.6l-0.7-1.5l-7.6-15.5l-0.9-1.9l-0.9,1.9l-7.6,15.5l-0.7,1.5h1.6H446.6z"/>
	<rect x="437.2" y="141.3" class="st5" width="5.1" height="31.5"/>
	<path class="st1" d="M144.2,19.4h235.3c6.8,0,12.3,5.5,12.3,12.3v7c0,6.8-5.5,12.3-12.3,12.3H144.2c-6.8,0-12.3-5.5-12.3-12.3v-7
		C132,24.9,137.5,19.4,144.2,19.4z"/>
	<path class="st3" d="M211.3,40.7l1.1-3.2h4.8l1.1,3.2h2.5l-4.5-12.9h-2.9l-4.5,12.9H211.3z M212.9,35.7l1.7-5.2h0.1l1.7,5.2H212.9z
		 M222.3,44.3h2.3v-5.1h0.1c0.4,0.7,1.1,1.7,2.8,1.7c2.3,0,4-1.8,4-5c0-3.2-1.8-5-4-5c-1.7,0-2.4,1-2.8,1.7h-0.1v-1.6h-2.2V44.3z
		 M224.5,35.9c0-1.9,0.8-3.1,2.3-3.1c1.5,0,2.3,1.3,2.3,3.1c0,1.8-0.8,3.1-2.3,3.1C225.4,39,224.5,37.8,224.5,35.9z M233.4,44.3h2.3
		v-5.1h0.1c0.4,0.7,1.1,1.7,2.8,1.7c2.3,0,4-1.8,4-5c0-3.2-1.8-5-4-5c-1.7,0-2.4,1-2.8,1.7h-0.1v-1.6h-2.2V44.3z M235.6,35.9
		c0-1.9,0.8-3.1,2.3-3.1c1.5,0,2.3,1.3,2.3,3.1c0,1.8-0.8,3.1-2.3,3.1C236.4,39,235.6,37.8,235.6,35.9z M246.7,27.8h-2.3v12.9h2.3
		V27.8z M249,40.7h2.3v-9.7H249V40.7z M250.2,29.7c0.7,0,1.3-0.6,1.3-1.2c0-0.7-0.6-1.2-1.3-1.2c-0.7,0-1.3,0.6-1.3,1.2
		C248.9,29.1,249.4,29.7,250.2,29.7z M257.9,40.9c2.4,0,4-1.4,4.1-3.5h-2.2c-0.2,1-0.9,1.6-1.9,1.6c-1.4,0-2.3-1.2-2.3-3.2
		c0-1.9,0.9-3.1,2.3-3.1c1.1,0,1.8,0.7,1.9,1.6h2.2c-0.2-2.1-1.8-3.5-4.1-3.5c-2.8,0-4.6,2-4.6,5C253.2,38.8,255,40.9,257.9,40.9z
		 M266.6,40.9c1.5,0,2.4-0.7,2.8-1.5h0.1v1.3h2.2v-6.5c0-2.6-2.1-3.3-3.9-3.3c-2,0-3.6,0.9-4.1,2.7l2.1,0.3c0.2-0.7,0.9-1.2,2-1.2
		c1.1,0,1.6,0.5,1.6,1.5v0c0,0.7-0.7,0.7-2.4,0.9c-1.9,0.2-3.7,0.8-3.7,2.9C263.4,39.9,264.8,40.9,266.6,40.9z M267.2,39.2
		c-0.9,0-1.6-0.4-1.6-1.3c0-0.9,0.8-1.2,1.8-1.4c0.6-0.1,1.8-0.2,2.1-0.5v1.1C269.5,38.3,268.6,39.2,267.2,39.2z M278.8,31.1h-1.9
		v-2.3h-2.3v2.3h-1.4v1.8h1.4v5.4c0,1.8,1.3,2.7,3,2.7c0.6,0,1.1-0.1,1.3-0.2l-0.4-1.8c-0.1,0-0.4,0.1-0.7,0.1c-0.6,0-1-0.2-1-1.1
		v-5h1.9V31.1z M280.7,40.7h2.3v-9.7h-2.3V40.7z M281.9,29.7c0.7,0,1.3-0.6,1.3-1.2c0-0.7-0.6-1.2-1.3-1.2c-0.7,0-1.3,0.6-1.3,1.2
		C280.6,29.1,281.2,29.7,281.9,29.7z M289.6,40.9c2.8,0,4.6-2,4.6-5c0-3-1.8-5-4.6-5s-4.6,2-4.6,5C284.9,38.9,286.7,40.9,289.6,40.9
		z M289.6,39.1c-1.6,0-2.3-1.4-2.3-3.2c0-1.8,0.8-3.2,2.3-3.2c1.5,0,2.3,1.4,2.3,3.2C291.9,37.7,291.1,39.1,289.6,39.1z M298.4,35.1
		c0-1.4,0.8-2.2,2-2.2c1.2,0,1.9,0.8,1.9,2.1v5.8h2.3v-6.1c0-2.3-1.3-3.6-3.3-3.6c-1.4,0-2.4,0.7-2.9,1.8h-0.1v-1.6h-2.2v9.7h2.3
		V35.1z M314.5,33.6c-0.3-1.6-1.6-2.7-3.9-2.7c-2.3,0-3.9,1.1-3.9,2.9c0,1.4,0.9,2.3,2.7,2.7l1.6,0.3c0.9,0.2,1.3,0.6,1.3,1.1
		c0,0.7-0.7,1.2-1.8,1.2c-1,0-1.7-0.5-1.9-1.3l-2.2,0.2c0.3,1.8,1.8,2.8,4.1,2.8c2.4,0,4.1-1.3,4.1-3.1c0-1.4-0.9-2.2-2.7-2.6
		l-1.6-0.4c-1-0.2-1.4-0.6-1.4-1.1c0-0.7,0.7-1.1,1.7-1.1c1.1,0,1.6,0.6,1.8,1.2L314.5,33.6z"/>
	<path class="st11" d="M119.8,99.3h1.7c-0.1-1.8-1.7-3.2-4-3.2c-2.3,0-4.1,1.3-4.1,3.3c0,1.6,1.1,2.5,3,3l1.4,0.4
		c1.2,0.3,2.2,0.7,2.2,1.7c0,1.1-1.1,1.9-2.5,1.9c-1.3,0-2.4-0.6-2.5-1.8h-1.7c0.1,2.1,1.7,3.4,4.3,3.4c2.7,0,4.2-1.4,4.2-3.4
		c0-2.1-1.8-2.9-3.3-3.2l-1.1-0.3c-0.9-0.2-2.1-0.6-2.1-1.7c0-1,0.9-1.7,2.3-1.7C118.8,97.6,119.7,98.2,119.8,99.3z M127.3,107.9
		c1.9,0,3.2-0.9,3.6-2.3l-1.6-0.3c-0.3,0.8-1,1.2-2,1.2c-1.4,0-2.4-0.9-2.4-2.6h6.1v-0.6c0-3.1-1.9-4.3-3.8-4.3c-2.4,0-4,1.8-4,4.5
		C123.2,106.1,124.7,107.9,127.3,107.9z M124.9,102.7c0.1-1.2,0.9-2.3,2.3-2.3c1.3,0,2.1,1,2.2,2.3H124.9z M132.8,107.7h1.7v-5.2
		c0-1.1,0.9-1.9,2.1-1.9c0.3,0,0.7,0.1,0.9,0.1V99c-0.2,0-0.5,0-0.7,0c-1,0-1.9,0.6-2.2,1.5h-0.1v-1.4h-1.6V107.7z M146.4,99.1h-1.8
		l-2.2,6.6h-0.1l-2.2-6.6h-1.8l3.1,8.6h1.8L146.4,99.1z M151.4,107.9c1.9,0,3.2-0.9,3.6-2.3l-1.6-0.3c-0.3,0.8-1,1.2-2,1.2
		c-1.4,0-2.4-0.9-2.4-2.6h6.1v-0.6c0-3.1-1.9-4.3-3.8-4.3c-2.4,0-4,1.8-4,4.5C147.3,106.1,148.9,107.9,151.4,107.9z M149,102.7
		c0.1-1.2,1-2.3,2.3-2.3c1.3,0,2.1,1,2.2,2.3H149z M156.9,107.7h1.7v-5.2c0-1.1,0.9-1.9,2.1-1.9c0.3,0,0.7,0.1,0.9,0.1V99
		c-0.2,0-0.5,0-0.7,0c-1,0-1.9,0.6-2.2,1.5h-0.1v-1.4h-1.6V107.7z M164.7,96.3H163v11.4h1.7V96.3z M170.6,107.9
		c1.9,0,3.2-0.9,3.6-2.3l-1.6-0.3c-0.3,0.8-1,1.2-2,1.2c-1.4,0-2.4-0.9-2.4-2.6h6.1v-0.6c0-3.1-1.9-4.3-3.8-4.3c-2.4,0-4,1.8-4,4.5
		C166.5,106.1,168.1,107.9,170.6,107.9z M168.2,102.7c0.1-1.2,0.9-2.3,2.3-2.3c1.3,0,2.1,1,2.2,2.3H168.2z M182.6,101.2
		c-0.3-1.3-1.4-2.2-3.2-2.2c-1.9,0-3.3,1-3.3,2.5c0,1.2,0.7,2,2.3,2.4l1.5,0.3c0.8,0.2,1.2,0.6,1.2,1.1c0,0.7-0.7,1.2-1.8,1.2
		c-1,0-1.6-0.4-1.8-1.3l-1.6,0.2c0.3,1.5,1.5,2.4,3.5,2.4c2.1,0,3.5-1.1,3.5-2.7c0-1.2-0.8-2-2.3-2.3l-1.4-0.3
		c-0.9-0.2-1.4-0.5-1.3-1.1c0-0.7,0.7-1.1,1.7-1.1c1,0,1.5,0.6,1.7,1.2L182.6,101.2z M191,101.2c-0.3-1.3-1.4-2.2-3.2-2.2
		c-1.9,0-3.3,1-3.3,2.5c0,1.2,0.7,2,2.3,2.4l1.5,0.3c0.8,0.2,1.2,0.6,1.2,1.1c0,0.7-0.7,1.2-1.8,1.2c-1,0-1.6-0.4-1.8-1.3l-1.6,0.2
		c0.3,1.5,1.5,2.4,3.5,2.4c2.1,0,3.5-1.1,3.5-2.7c0-1.2-0.8-2-2.3-2.3l-1.4-0.3c-0.9-0.2-1.4-0.5-1.3-1.1c0-0.7,0.7-1.1,1.7-1.1
		c1,0,1.5,0.6,1.7,1.2L191,101.2z M139.5,125.7l1.1-3h4.5l1,3h1.8l-4.1-11.4h-2l-4.1,11.4H139.5z M141.1,121.2l1.7-4.9h0.1l1.7,4.9
		H141.1z M149.6,125.7h1.7v-4h2.3c2.7,0,4-1.6,4-3.7c0-2.1-1.3-3.7-4-3.7h-4.1V125.7z M151.3,120.2v-4.5h2.2c1.7,0,2.4,0.9,2.4,2.2
		s-0.7,2.3-2.4,2.3H151.3z M161.4,114.3h-1.7v11.4h1.7V114.3z M170.2,119.2c-0.3-1.3-1.4-2.2-3.2-2.2c-1.9,0-3.3,1-3.3,2.5
		c0,1.2,0.7,2,2.3,2.4l1.5,0.3c0.8,0.2,1.2,0.6,1.2,1.1c0,0.7-0.7,1.2-1.8,1.2c-1,0-1.6-0.4-1.8-1.3l-1.6,0.2
		c0.3,1.5,1.5,2.4,3.5,2.4c2.1,0,3.5-1.1,3.5-2.7c0-1.2-0.8-2-2.3-2.3l-1.4-0.3c-0.9-0.2-1.4-0.5-1.3-1.1c0-0.7,0.7-1.1,1.7-1.1
		c1,0,1.5,0.6,1.7,1.2L170.2,119.2z"/>
	<path class="st11" d="M328.7,99.3h1.7c0-1.8-1.7-3.2-4-3.2c-2.3,0-4.1,1.3-4.1,3.3c0,1.6,1.1,2.5,3,3l1.4,0.4
		c1.2,0.3,2.2,0.7,2.2,1.7c0,1.1-1.1,1.9-2.5,1.9c-1.3,0-2.4-0.6-2.5-1.8H322c0.1,2.1,1.7,3.4,4.3,3.4c2.7,0,4.2-1.4,4.2-3.4
		c0-2.1-1.8-2.9-3.3-3.2l-1.1-0.3c-0.9-0.2-2.1-0.6-2.1-1.7c0-1,0.9-1.7,2.3-1.7C327.7,97.6,328.6,98.2,328.7,99.3z M336.2,107.9
		c1.9,0,3.2-0.9,3.6-2.3l-1.6-0.3c-0.3,0.8-1,1.2-2,1.2c-1.4,0-2.4-0.9-2.4-2.6h6.1v-0.6c0-3.1-1.9-4.3-3.8-4.3c-2.4,0-4,1.8-4,4.5
		C332.1,106.1,333.7,107.9,336.2,107.9z M333.8,102.7c0.1-1.2,0.9-2.3,2.3-2.3c1.3,0,2.1,1,2.2,2.3H333.8z M341.7,107.7h1.7v-5.2
		c0-1.1,0.9-1.9,2.1-1.9c0.3,0,0.7,0.1,0.9,0.1V99c-0.2,0-0.5,0-0.7,0c-1,0-1.9,0.6-2.2,1.5h-0.1v-1.4h-1.6V107.7z M355.4,99.1h-1.8
		l-2.2,6.6h-0.1l-2.2-6.6h-1.8l3.1,8.6h1.8L355.4,99.1z M360.3,107.9c1.9,0,3.2-0.9,3.6-2.3l-1.6-0.3c-0.3,0.8-1,1.2-2,1.2
		c-1.4,0-2.4-0.9-2.4-2.6h6.1v-0.6c0-3.1-1.9-4.3-3.8-4.3c-2.4,0-4,1.8-4,4.5C356.2,106.1,357.8,107.9,360.3,107.9z M357.9,102.7
		c0.1-1.2,1-2.3,2.3-2.3c1.3,0,2.1,1,2.1,2.3H357.9z M365.8,107.7h1.7v-5.2c0-1.1,0.9-1.9,2-1.9c0.3,0,0.7,0.1,0.9,0.1V99
		c-0.2,0-0.5,0-0.7,0c-1,0-1.9,0.6-2.2,1.5h-0.1v-1.4h-1.6V107.7z M373.6,96.3h-1.7v11.4h1.7V96.3z M379.5,107.9
		c1.9,0,3.2-0.9,3.6-2.3l-1.6-0.3c-0.3,0.8-1,1.2-2,1.2c-1.4,0-2.4-0.9-2.4-2.6h6.1v-0.6c0-3.1-1.9-4.3-3.8-4.3c-2.4,0-4,1.8-4,4.5
		C375.4,106.1,377,107.9,379.5,107.9z M377.1,102.7c0.1-1.2,1-2.3,2.3-2.3c1.3,0,2.1,1,2.2,2.3H377.1z M391.5,101.2
		c-0.3-1.3-1.4-2.2-3.2-2.2c-1.9,0-3.3,1-3.3,2.5c0,1.2,0.7,2,2.3,2.4l1.5,0.3c0.8,0.2,1.2,0.6,1.2,1.1c0,0.7-0.7,1.2-1.8,1.2
		c-1,0-1.6-0.4-1.8-1.3l-1.6,0.2c0.3,1.5,1.5,2.4,3.5,2.4c2.1,0,3.5-1.1,3.5-2.7c0-1.2-0.8-2-2.3-2.3l-1.4-0.3
		c-0.9-0.2-1.4-0.5-1.3-1.1c0-0.7,0.7-1.1,1.7-1.1c1,0,1.5,0.6,1.7,1.2L391.5,101.2z M399.9,101.2c-0.3-1.3-1.4-2.2-3.2-2.2
		c-1.9,0-3.3,1-3.3,2.5c0,1.2,0.7,2,2.3,2.4l1.5,0.3c0.8,0.2,1.2,0.6,1.2,1.1c0,0.7-0.7,1.2-1.8,1.2c-1,0-1.6-0.4-1.8-1.3l-1.6,0.2
		c0.3,1.5,1.5,2.4,3.5,2.4c2.1,0,3.5-1.1,3.5-2.7c0-1.2-0.8-2-2.3-2.3l-1.4-0.3c-0.9-0.2-1.4-0.5-1.3-1.1c0-0.7,0.7-1.1,1.7-1.1
		c1,0,1.5,0.6,1.7,1.2L399.9,101.2z M348.4,125.7l1.1-3h4.5l1,3h1.8l-4.1-11.4h-2l-4.1,11.4H348.4z M350,121.2l1.7-4.9h0.1l1.7,4.9
		H350z M358.5,125.7h1.7v-4h2.3c2.7,0,4-1.6,4-3.7c0-2.1-1.3-3.7-4-3.7h-4.1V125.7z M360.2,120.2v-4.5h2.2c1.7,0,2.4,0.9,2.4,2.2
		s-0.7,2.3-2.4,2.3H360.2z M370.3,114.3h-1.7v11.4h1.7V114.3z M379.1,119.2c-0.3-1.3-1.4-2.2-3.2-2.2c-1.9,0-3.3,1-3.3,2.5
		c0,1.2,0.7,2,2.3,2.4l1.5,0.3c0.8,0.2,1.2,0.6,1.2,1.1c0,0.7-0.7,1.2-1.8,1.2c-1,0-1.6-0.4-1.8-1.3l-1.6,0.2
		c0.3,1.5,1.5,2.4,3.5,2.4c2.1,0,3.5-1.1,3.5-2.7c0-1.2-0.8-2-2.3-2.3l-1.4-0.3c-0.9-0.2-1.4-0.5-1.3-1.1c0-0.7,0.7-1.1,1.7-1.1
		c1,0,1.5,0.6,1.7,1.2L379.1,119.2z"/>
	<g>
		<path class="st3" d="M277.6,428.5l-3.5-15.1c-0.2-0.7-0.8-1.3-1.5-1.7l-14.1-6.7c-0.4-0.2-0.8-0.2-1.2-0.2c-0.4,0-0.8,0-1.2,0.1
			l-14.1,6.8c-0.7,0.3-1.2,0.9-1.4,1.7l-3.5,15.2c-0.1,0.8,0,1.6,0.5,2.2l9.7,12.1c0.6,0.6,1.3,0.9,2.1,1h15.5
			c0.8,0.1,1.6-0.3,2.1-1l9.7-12.1C277.5,430.1,277.7,429.3,277.6,428.5z"/>
	</g>
	<g>
		<path class="st12" d="M253.7,427.1l-4.2,0.7c0.6,1.7,1.8,3.2,3.3,4.1l1.6-3.9c0.1-0.1,0.1-0.3,0-0.4
			C254.4,427.4,254.1,427.1,253.7,427.1z"/>
		<path class="st12" d="M255.3,421.7c0.4,0,0.7-0.3,0.7-0.7l0.2-4.2l-0.8,0.2c-1.5,0.3-2.8,1.1-3.9,2.2l3.5,2.5
			C255.1,421.7,255.2,421.7,255.3,421.7z"/>
		<polygon class="st12" points="256.2,426 257.3,426.5 258.5,426 258.8,424.7 258,423.7 256.7,423.7 255.9,424.7 		"/>
		<path class="st12" d="M258.7,421.4c0.2,0.3,0.6,0.3,0.9,0.2l3.5-2.5c-1.3-1.3-2.9-2.1-4.8-2.3l0.3,4.3
			C258.6,421.3,258.6,421.4,258.7,421.4z"/>
		<path class="st12" d="M253.5,424.5c0.3-0.3,0.2-0.7-0.1-1l-3.1-2.8c-0.9,1.6-1.4,3.4-1.2,5.2l4.1-1.2
			C253.3,424.6,253.4,424.6,253.5,424.5z"/>
		<path class="st12" d="M257.6,429c-0.3-0.2-0.6-0.1-0.8,0.2l-2.1,3.8c0.8,0.3,1.8,0.4,2.7,0.4c0.6,0,1.2-0.1,1.8-0.2
			c0.3-0.1,0.5-0.1,0.8-0.2l-2-3.7C257.8,429.1,257.7,429,257.6,429z"/>
		<path class="st12" d="M275.9,428.2l-3.2-13.8c-0.2-0.7-0.7-1.2-1.4-1.6l-12.9-6.2c-0.3-0.2-0.7-0.2-1.1-0.2c-0.3,0-0.7,0-1.1,0.1
			l-12.9,6.2c-0.6,0.3-1.1,0.8-1.3,1.6l-3.2,13.9c-0.1,0.7,0,1.4,0.5,2l8.9,11c0.5,0.5,1.2,0.8,1.9,0.9h14.2
			c0.8,0.1,1.5-0.3,1.9-0.9l8.9-11C275.8,429.6,276,428.9,275.9,428.2z M270.6,428.7c-0.1,0-0.1,0-0.2,0c0,0,0,0-0.1,0
			c-0.1,0-0.1,0-0.2,0c-0.2,0-0.3-0.1-0.5-0.2c-0.1,0-0.2,0-0.3-0.1h0c-0.4-0.2-0.9-0.3-1.4-0.4h0c-0.1,0-0.3,0-0.3,0.1c0,0,0,0,0,0
			l-0.3,0c-0.8,2.4-2.4,4.4-4.6,5.7l0.1,0.3c0,0,0,0,0,0c-0.1,0.1-0.1,0.3,0,0.4c0.2,0.4,0.4,0.8,0.7,1.2v0.1
			c0.1,0.1,0.1,0.1,0.2,0.2c0.1,0.1,0.2,0.3,0.3,0.4c0,0,0.1,0.1,0.1,0.1c0,0,0,0,0,0c0.1,0.2,0.1,0.4,0,0.6c0,0.2-0.2,0.4-0.4,0.5
			c-0.1,0-0.2,0.1-0.3,0.1c-0.3,0-0.6-0.2-0.8-0.5c0,0,0,0,0,0c0,0,0-0.1-0.1-0.1c-0.1-0.1-0.1-0.3-0.2-0.5l-0.1-0.3v0
			c-0.1-0.5-0.3-0.9-0.6-1.3c-0.1-0.1-0.2-0.2-0.3-0.3c0,0,0,0,0,0l-0.2-0.3c-0.4,0.1-0.9,0.3-1.4,0.4c-0.8,0.2-1.5,0.3-2.3,0.3
			c-1.3,0-2.5-0.2-3.7-0.7l-0.2,0.3c0,0,0,0,0,0c-0.1,0-0.3,0.1-0.3,0.3c-0.2,0.4-0.4,0.8-0.6,1.3l-0.1,0.3c0,0.2-0.1,0.3-0.2,0.5
			c0,0-0.1,0.1-0.1,0.1c0,0,0,0,0,0c-0.2,0.3-0.5,0.5-0.8,0.5c-0.1,0-0.2,0-0.3-0.1c-0.4-0.2-0.5-0.7-0.3-1.1c0,0,0,0,0,0
			c0,0,0-0.1,0.1-0.1c0.1-0.2,0.2-0.3,0.3-0.4c0.1-0.1,0.1-0.1,0.2-0.2v0c0.3-0.4,0.5-0.8,0.7-1.2c0-0.1,0-0.3,0-0.4c0,0,0,0,0,0
			l0.2-0.3c-0.4-0.2-0.8-0.5-1.1-0.8c-1.6-1.3-2.8-3-3.5-4.9l-0.4,0c0,0,0,0,0,0c-0.1-0.1-0.2-0.1-0.3-0.1h0
			c-0.5,0.1-0.9,0.2-1.4,0.4h0c-0.1,0-0.2,0-0.3,0.1c-0.1,0-0.3,0.1-0.5,0.2c0,0-0.2,0-0.2,0s0,0,0,0c-0.1,0-0.1,0-0.2,0
			c-0.4,0-0.8-0.2-0.8-0.6c-0.1-0.5,0.2-0.9,0.7-1c0,0,0,0,0.1,0c0.1,0,0.1,0,0.2,0c0.2,0,0.3,0,0.5,0c0.1,0,0.2,0,0.3,0
			c0.5,0,1-0.1,1.4-0.3c0.1-0.1,0.3-0.2,0.3-0.3c0,0,0,0,0,0l0.3-0.1c-0.4-2.4,0.2-4.9,1.5-6.9c0-0.1,0.1-0.1,0.1-0.2l-0.3-0.3v0
			c0-0.1,0-0.3-0.1-0.4c-0.3-0.3-0.8-0.6-1.2-0.8c-0.1,0-0.2-0.1-0.3-0.1c-0.2-0.1-0.3-0.2-0.5-0.3c0,0-0.1-0.1-0.1-0.1s0,0,0,0
			c-0.3-0.3-0.4-0.8-0.2-1.2c0.1-0.2,0.3-0.3,0.6-0.3c0.2,0,0.4,0.1,0.6,0.2c0,0,0,0,0,0c0,0,0.1,0,0.1,0.1c0.1,0.1,0.2,0.3,0.3,0.4
			c0,0,0.1,0.1,0.2,0.2c0.3,0.3,0.7,0.7,1.1,1c0.1,0,0.2,0.1,0.3,0.1c0.1,0,0.1,0,0.2,0h0l0.3,0.2c1.4-1.5,3.2-2.5,5.2-3
			c0.5-0.1,1-0.2,1.4-0.2l0-0.3v-0.1c0.1-0.1,0.2-0.2,0.2-0.3c0-0.5,0-1-0.1-1.4v0c0-0.1,0-0.2,0-0.3c0-0.2-0.1-0.3-0.1-0.5v-0.2
			c0-0.2,0.1-0.4,0.3-0.6c0.2-0.2,0.5-0.3,0.7-0.3c0.4,0,0.8,0.5,0.7,0.9v0.3c0,0.2,0,0.3-0.1,0.5c0,0.1,0,0.2,0,0.3v0
			c-0.1,0.5-0.1,1-0.1,1.4c0,0.1,0.1,0.3,0.2,0.3v0l0,0.3c2,0.2,3.9,1,5.5,2.2c0.3,0.3,0.7,0.7,1.1,1l0.3-0.2h0c0,0,0.1,0,0.2,0
			c0.1,0,0.2,0,0.3-0.1c0.4-0.3,0.8-0.6,1.1-0.9c0,0,0.1-0.1,0.2-0.2c0.1-0.1,0.2-0.3,0.3-0.4c0,0,0.1,0,0.1-0.1l0,0
			c0.2-0.1,0.4-0.2,0.6-0.2c0.2,0,0.5,0.1,0.6,0.3c0.3,0.4,0.2,0.9-0.2,1.2c0,0,0,0,0,0.1s-0.1,0-0.1,0.1c-0.2,0.1-0.3,0.2-0.5,0.3
			c-0.1,0-0.2,0.1-0.3,0.1c-0.4,0.3-0.8,0.5-1.2,0.8c-0.1,0.1-0.1,0.3-0.1,0.4v0l-0.3,0.3c0.7,1.1,1.2,2.2,1.5,3.5
			c0.3,1.2,0.3,2.5,0.2,3.7l0.3,0.1c0,0.1,0.2,0.3,0.3,0.3c0.5,0.1,1,0.2,1.4,0.3h0c0.1,0,0.2,0,0.3,0c0.2,0,0.3,0,0.5,0
			c0.1,0,0.2,0,0.2,0c0,0,0,0,0.1,0c0.4,0.1,0.7,0.4,0.8,0.9C271.3,428.5,271,428.7,270.6,428.7z"/>
		<path class="st12" d="M264.3,420.7l-3.2,2.9c-0.1,0.1-0.1,0.2-0.2,0.3c-0.1,0.4,0.1,0.8,0.5,0.8l4,1.1c0.1-0.9,0-1.8-0.2-2.7
			C265.2,422.3,264.8,421.5,264.3,420.7z"/>
		<path class="st12" d="M260.5,427.2c-0.3,0.1-0.5,0.5-0.4,0.8l1.6,4c1-0.6,1.9-1.5,2.5-2.5c0.3-0.5,0.6-1,0.8-1.6l-4.2-0.7
			C260.8,427.1,260.6,427.1,260.5,427.2z"/>
	</g>
</g>
</svg>
