<svg width="41" height="41" viewBox="0 0 41 41" fill="none" xmlns="http://www.w3.org/2000/svg">
<path d="M20.5 39.466C30.9747 39.466 39.466 30.9747 39.466 20.5C39.466 10.0253 30.9747 1.534 20.5 1.534C10.0253 1.534 1.534 10.0253 1.534 20.5C1.534 30.9747 10.0253 39.466 20.5 39.466ZM20.5 41C9.17768 41 0 31.8223 0 20.5C0 9.17768 9.17768 0 20.5 0C31.8223 0 41 9.17768 41 20.5C41 31.8223 31.8223 41 20.5 41Z" fill="#F4815B"/>
<path fill-rule="evenodd" clip-rule="evenodd" d="M34.1642 10.1143C28.3985 2.65165 17.6769 1.27566 10.2143 7.04133C2.75333 12.807 1.37734 23.5286 7.14302 30.9895C12.907 38.4522 23.6286 39.8298 31.0912 34.0641C38.5539 28.3001 39.9299 17.5753 34.1642 10.1143Z" fill="#FF6C37"/>
<path fill-rule="evenodd" clip-rule="evenodd" d="M24.0112 14.7903C22.7816 15.3515 20.7802 17.0485 17.5328 20.2827L18.4562 21.2061L18.7639 21.5155L25.0399 15.2396C25.2357 15.0437 25.4843 14.945 25.7394 14.9006C25.2736 14.5516 24.8259 14.4183 24.0112 14.7903ZM26.7796 17.1851L20.2107 22.9574C20.795 23.5433 21.116 23.8626 21.2806 24.0289C23.8828 21.56 26.3599 19.0417 26.7796 17.1851ZM15.5593 22.2858C15.5692 22.3023 15.5791 22.3006 15.5889 22.299L18.2504 21.7246L17.1723 20.6481L15.5626 22.2562C15.5577 22.2595 15.5494 22.2661 15.5593 22.2858ZM27.6256 13.3666L29.8525 11.1396C29.4032 10.789 28.8584 10.6162 28.3136 10.6162C27.67 10.6162 27.0265 10.8598 26.5426 11.3454C26.0686 11.8194 25.8085 12.4481 25.8085 13.118C25.8085 13.7879 26.0686 14.4183 26.5426 14.8923C27.2701 15.6215 28.3712 15.8305 29.316 15.4174L27.6273 13.7303C27.5795 13.6826 27.5515 13.6167 27.5515 13.5492C27.5499 13.4801 27.5779 13.4159 27.6256 13.3666Z" fill="white"/>
<path fill-rule="evenodd" clip-rule="evenodd" d="M30.0131 13.9476C29.9686 13.9476 29.9242 13.9311 29.8863 13.9015C29.804 13.8324 29.7909 13.7073 29.8617 13.6234C30.0114 13.4423 30.0394 13.1905 29.9324 12.9814C29.8847 12.8843 29.9242 12.7658 30.0213 12.7164C30.1184 12.6687 30.2369 12.7082 30.2863 12.8053C30.4608 13.1543 30.413 13.5756 30.1629 13.8752C30.1266 13.9213 30.0707 13.9476 30.0131 13.9476ZM30.2238 11.4902L28.168 13.5493L29.7744 15.1557C29.8863 15.0767 29.99 14.9878 30.0888 14.8924C30.5628 14.4183 30.8229 13.7879 30.8229 13.1181C30.8229 12.5156 30.6122 11.9462 30.2238 11.4902ZM25.4012 15.6001L19.1434 21.8596L19.8627 22.5788L26.4892 16.7588C26.6554 16.6124 26.7509 16.4083 26.7574 16.1877C26.764 15.9655 26.6817 15.7565 26.5254 15.5985C26.2159 15.2907 25.7123 15.2907 25.4012 15.6001ZM13.725 28.9502C13.725 28.9502 13.7267 28.9502 13.7283 28.9486C16.7124 27.4524 19.1236 25.9135 20.8979 24.3729L19.8857 23.3623L17.2259 23.7754L11.9589 29.0424L13.6444 30.7278C13.6855 30.7673 13.7267 30.7575 13.7546 30.7443C13.7826 30.7278 13.8122 30.6982 13.8007 30.6422L13.5127 29.4094C13.4699 29.2251 13.5571 29.0375 13.725 28.9502ZM13.1144 30.922L11.5968 29.4045L10.3097 30.6916C10.3048 30.6949 10.2998 30.7015 10.3048 30.7147C10.3097 30.7295 10.3196 30.7311 10.3245 30.7311L13.1144 30.922ZM17.9073 23.0957H17.9122C17.9172 23.0957 17.9271 23.0973 17.932 23.0973L19.4281 22.9031L18.7665 22.2381L17.9073 23.0957Z" fill="white"/>
<path fill-rule="evenodd" clip-rule="evenodd" d="M30.2882 12.8052C30.2404 12.708 30.1203 12.6669 30.0215 12.7163C29.9244 12.764 29.8849 12.8825 29.9327 12.9813C30.038 13.1903 30.01 13.4421 29.8602 13.6232C29.7895 13.7071 29.8026 13.8322 29.8866 13.9014C29.9228 13.931 29.9672 13.9474 30.0133 13.9474C30.0709 13.9474 30.1252 13.9211 30.1647 13.875C30.4149 13.5755 30.4626 13.1541 30.2882 12.8052Z" fill="#FF6C37"/>
</svg>
