<svg id="Layer_1" data-name="Layer 1" xmlns="http://www.w3.org/2000/svg" viewBox="0 0 96.53 96.53"><defs><style>.cls-1{fill:#ededed;}.cls-2{fill:#4700e9;}.cls-3{fill:#ffb93e;}</style></defs><rect class="cls-1" x="24.6" y="20.6" width="47.32" height="58.65" rx="2.16"/><path class="cls-2" d="M51.26,31.08h-20a1.6,1.6,0,0,1,0-3.15h20a1.6,1.6,0,0,1,0,3.15Z"/><path class="cls-2" d="M61.6,38.08H31.91a1.82,1.82,0,0,1-2-1.58,1.81,1.81,0,0,1,2-1.57H61.6a1.81,1.81,0,0,1,2,1.57A1.82,1.82,0,0,1,61.6,38.08Z"/><path class="cls-2" d="M56,45.08H31.56a1.58,1.58,0,1,1,0-3.15H56a1.58,1.58,0,1,1,0,3.15Z"/><path class="cls-2" d="M44.66,52.08H30.85c-.51,0-.92-.71-.92-1.58s.41-1.57.92-1.57H44.66c.51,0,.92.7.92,1.57S45.17,52.08,44.66,52.08Z"/><path class="cls-2" d="M60.66,59.08H31.85a1.61,1.61,0,1,1,0-3.15H60.66a1.61,1.61,0,1,1,0,3.15Z"/><path class="cls-2" d="M59.72,66.08H31.79a1.6,1.6,0,1,1,0-3.15H59.72a1.6,1.6,0,1,1,0,3.15Z"/><path class="cls-2" d="M40,73.08H30.56c-.35,0-.63-.71-.63-1.58s.28-1.57.63-1.57H40c.35,0,.63.7.63,1.57S40.3,73.08,40,73.08Z"/><path class="cls-3" d="M52.12,51.34A13.62,13.62,0,0,0,69.39,72.26l5,5A2.58,2.58,0,0,0,78,73.61l-5-5A13.62,13.62,0,0,0,52.12,51.34ZM70,65.52a9.42,9.42,0,0,1-3.65,3.65A9.37,9.37,0,1,1,70,65.52Z"/></svg>