<svg id="Layer_1" data-name="Layer 1" xmlns="http://www.w3.org/2000/svg" viewBox="0 0 96.53 96.53"><defs><style>.cls-1{fill:#4700e9;}.cls-2{fill:#ffb93e;}</style></defs><rect class="cls-1" x="24.76" y="47.07" width="33.54" height="10.05" rx="5.03"/><rect class="cls-1" x="65.96" y="31.48" width="9.66" height="45.13" rx="4.83" transform="translate(48.59 -32.2) rotate(38.2)"/><path class="cls-1" d="M34.26,58.56H61.94a1.71,1.71,0,0,1,1.71,1.71v8.51A4.22,4.22,0,0,1,59.43,73H34.26A4.22,4.22,0,0,1,30,68.77v-6a4.22,4.22,0,0,1,4.22-4.22Z"/><path class="cls-1" d="M31.45,46.67h2.31A14.32,14.32,0,0,1,48.09,61V74a0,0,0,0,1,0,0h-31a0,0,0,0,1,0,0V61A14.32,14.32,0,0,1,31.45,46.67Z" transform="translate(44.3 -7.24) rotate(38.2)"/><path class="cls-2" d="M60.44,26.22V21.31a9.74,9.74,0,0,0-19.47,0v4.91A2.77,2.77,0,0,0,38.54,29V41.24A2.79,2.79,0,0,0,41.33,44H60.08a2.79,2.79,0,0,0,2.8-2.79V29A2.78,2.78,0,0,0,60.44,26.22ZM50.71,39.74a2.34,2.34,0,0,1-1.17-4.36V33.26a1,1,0,0,1,1-1h.33a1,1,0,0,1,1,1v2.12a2.34,2.34,0,0,1-1.17,4.36ZM57.2,26.18h-13V21.31a6.49,6.49,0,1,1,13,0Z"/></svg>