<svg id="Layer_1" data-name="Layer 1" xmlns="http://www.w3.org/2000/svg" viewBox="0 0 96.53 96.53"><defs><style>.cls-1{fill:#ededed;}.cls-2{fill:#1d012d;}.cls-3{fill:#ea2f2f;}.cls-4{fill:#ffb93e;}.cls-5{fill:#70e831;}.cls-6{fill:#4700e9;}</style></defs><path class="cls-1" d="M16.31,69.89c0,2.2,1.4,4,3.14,4H77c1.74,0,3.15-1.78,3.15-4V33.26H16.31Z"/><path class="cls-2" d="M77.65,22.66H18.84c-1.33,0-2.41,1.37-2.41,3.05v7.68H80.22V25.91C80.22,24.11,79.07,22.66,77.65,22.66Z"/><circle class="cls-3" cx="22.38" cy="28.25" r="2.34"/><circle class="cls-4" cx="28.64" cy="28.25" r="2.34"/><circle class="cls-5" cx="34.89" cy="28.25" r="2.34"/><path class="cls-6" d="M40,62.47,24,55.39V53.08l16.05-8v3.88L28.94,54.07,40,58.61Z"/><path class="cls-6" d="M54.94,42.12,46.13,65.75H41.65l8.81-23.63Z"/><path class="cls-6" d="M56.52,58.61l11.06-4.54L56.52,48.94V45.06l16.06,8v2.31L56.52,62.47Z"/></svg>