<?xml version="1.0" encoding="utf-8"?>
<!-- Generator: Adobe Illustrator 24.2.3, SVG Export Plug-In . SVG Version: 6.00 Build 0)  -->
<svg version="1.1" id="Calque_1" xmlns="http://www.w3.org/2000/svg" xmlns:xlink="http://www.w3.org/1999/xlink" x="0px" y="0px"
	 viewBox="0 0 3685.5 3195.2" style="enable-background:new 0 0 3685.5 3195.2;" xml:space="preserve">
<style type="text/css">
	.st0{opacity:0.63;fill:#292991;enable-background:new    ;}
	.st1{opacity:0.75;fill:#19034F;enable-background:new    ;}
	.st2{fill-rule:evenodd;clip-rule:evenodd;fill:#1873EA;}
	.st3{fill:#E01E5A;}
	.st4{fill:#36C5F0;}
	.st5{fill:#2EB67D;}
	.st6{fill:#ECB22E;}
	.st7{fill:#19034F;}
	.st8{fill:#FFFFFF;}
	.st9{fill:#5558AF;}
</style>
<circle class="st0" cx="1842.7" cy="1677.6" r="1517.7"/>
<circle class="st1" cx="2386.9" cy="306.4" r="306.4"/>
<circle class="st1" cx="1298.6" cy="306.4" r="306.4"/>
<path id="path24" class="st2" d="M1423.3,134.6l2.2,45.1c36.5,40.4,50.9,97.5,32.8,151.2c-27.1,80.2-116.6,122.3-199.9,94.1
	s-128.8-116-101.6-196.2c18.2-53.9,64.7-90.6,118.4-100.3l29-34.3c-90.6-2.4-176.1,53.8-206.7,144.1c-37.6,111,22,231.5,133,269.1
	s231.5-22,269.1-133C1530.1,284.2,1496.6,187.8,1423.3,134.6"/>
<path id="path26" class="st2" d="M1371.3,267.6l-1.5-63l-1.2-36.2l-0.8-31.4c0,0,0.2-15.1-0.4-18.7c-0.1-0.7-0.3-1.3-0.6-1.9
	l-0.1-0.2l-0.1-0.2c-1.3-2.2-3.9-3-6.2-2h-0.1l-0.4,0.2c-0.6,0.3-1.1,0.6-1.6,1.1c-2.6,2.5-11.6,14.6-11.6,14.6l-19.7,24.4l-23,28
	l-39.5,49.1c0,0-18.1,22.6-14.1,50.4s24.7,41.4,40.8,46.8s40.7,7.2,60.8-12.5S1371.3,267.6,1371.3,267.6"/>
<circle class="st1" cx="306.4" cy="943.9" r="306.4"/>
<path class="st3" d="M185.4,999c0,24.2-19.6,43.9-43.9,43.9s-43.9-19.6-43.9-43.9c0-24.2,19.6-43.9,43.9-43.9h0h43.9V999z"/>
<path class="st3" d="M207.5,999c0-24.2,19.6-43.9,43.9-43.9s43.9,19.6,43.9,43.9c0,0,0,0,0,0v109.8c0,24.2-19.6,43.9-43.9,43.9
	s-43.9-19.6-43.9-43.9c0,0,0,0,0,0V999z"/>
<path class="st4" d="M251.3,822.9c-24.2,0-43.9-19.6-43.9-43.9s19.6-43.9,43.9-43.9c24.2,0,43.9,19.6,43.9,43.9v43.9L251.3,822.9z"
	/>
<path class="st4" d="M251.3,845c24.2,0,43.8,19.7,43.8,43.9c0,24.2-19.6,43.8-43.8,43.8H141.5c-24.2,0-43.9-19.6-43.9-43.8
	s19.6-43.9,43.8-43.9c0,0,0,0,0.1,0H251.3z"/>
<path class="st5" d="M427.4,888.8c0-24.2,19.6-43.9,43.9-43.9c24.2,0,43.9,19.6,43.9,43.9c0,24.2-19.6,43.9-43.9,43.9h0h-43.9V888.8
	z"/>
<path class="st5" d="M405.3,888.8c0.4,24.2-19,44.2-43.2,44.5c-24.2,0.4-44.2-19-44.5-43.2c0-0.4,0-0.9,0-1.3V779
	c0.4-24.2,20.3-43.6,44.5-43.2c23.7,0.4,42.8,19.5,43.2,43.2V888.8z"/>
<path class="st6" d="M361.5,1064.9c24.2,0,43.9,19.6,43.9,43.9s-19.6,43.9-43.9,43.9s-43.9-19.6-43.9-43.9l0,0v-43.9H361.5z"/>
<path class="st6" d="M361.5,1042.8c-24.2,0-43.8-19.7-43.8-43.9c0-24.2,19.6-43.8,43.8-43.8h109.8c24.2,0,43.8,19.7,43.8,43.9
	c0,24.2-19.6,43.8-43.8,43.8H361.5z"/>
<circle class="st7" cx="3379.1" cy="946.2" r="306.4"/>
<rect x="3381.2" y="1028.7" class="st8" width="186.2" height="43"/>
<polygon class="st8" points="3198.6,820.9 3190.7,820.8 3190.7,864 3320.9,915.3 3191.2,966.2 3190.7,966 3190.7,1009.3 
	3198.7,1009.4 3387.5,935.3 3387.5,895.3 "/>
<g>
	<path class="st9" d="M2524.8,260c13.9,13.9,36.5,13.8,50.4-0.1c13.9-13.9,13.8-36.5-0.1-50.4c-13.9-13.9-36.5-13.8-50.4,0.1
		c-10.2,10.3-13.2,25.7-7.6,39C2519,252.9,2521.6,256.7,2524.8,260z M2514.4,293.1v107.4h17.9c6.1,0,12.3-0.6,18.3-1.7
		c6.1-1.1,11.9-3.1,17.3-6.1c5.1-2.8,9.5-6.7,12.9-11.4c3.6-5.2,5.4-11.5,5.1-17.8v-70.4H2514.4z M2456.4,248
		c4.8,0,9.5-0.9,13.8-2.8c18.2-7.7,26.6-28.6,19-46.8c-3.6-8.6-10.4-15.4-19-19c-4.4-1.9-9.1-2.8-13.9-2.8c-4.7,0-9.4,0.9-13.8,2.8
		c-3.2,1.4-4.3,3.2-8.7,5.4v55c4.5,2.2,5.5,4,8.7,5.4C2446.9,247.1,2451.6,248.1,2456.4,248z M2433.8,428.8c4.5,1,6.1,1.7,9.3,2.2
		c3.5,0.5,7,0.8,10.5,0.8c5.4,0,10.8-0.6,16.1-1.7c5.4-1.1,10.6-3.1,15.3-6c4.6-2.8,8.5-6.7,11.4-11.3c3.2-5.4,4.7-11.6,4.5-17.8
		V270.7h-67.1L2433.8,428.8L2433.8,428.8z M2187.7,463.1l232.7,40.3V109.6l-232.7,40.3V463.1z"/>
	<path class="st8" d="M2357.8,230.4l-107.4,6.5v24.8l40.3-1.6v114.8l26.8,1.6V259l40.3-1.8V230.4z"/>
</g>
</svg>
