<svg id="Layer_1" data-name="Layer 1" xmlns="http://www.w3.org/2000/svg" viewBox="0 0 96.53 96.53"><defs><style>.cls-1{fill:#4700e9;}.cls-2{fill:#ffb93e;}</style></defs><path class="cls-1" d="M48.26,25.48a36.79,36.79,0,0,0,6.17,5.62,34.22,34.22,0,0,0,15.93,6.42v0c0,1.4,0,2.78,0,4.37,0,11.24-1.79,18.59-7.79,25.59S50.19,76.76,48.26,77.2c-1.84-.42-6.68-1.67-12.68-7.67-6-7-9.43-16.45-9.43-27.59,0-1.59,0-3,0-4.37v0A34.19,34.19,0,0,0,42.09,31.1a36.41,36.41,0,0,0,6.17-5.62m0-7.95a.33.33,0,0,0-.3.18,30.28,30.28,0,0,1-8.66,9.53A28.45,28.45,0,0,1,23,32.94q-.6,0-1.2,0h0a.36.36,0,0,0-.36.36c0,3.24,0,5.54,0,8.67,0,29.58,21.36,38.93,26,40a3.7,3.7,0,0,0,.87.11c.11,0,.55,0,.67-.07,4.35-.92,26.18-10.08,26.18-40,0-3.13,0-5.43,0-8.67a.36.36,0,0,0-.36-.36h0q-.59,0-1.2,0a28.42,28.42,0,0,1-16.29-5.7,30.28,30.28,0,0,1-8.66-9.53.36.36,0,0,0-.31-.18Z"/><path class="cls-2" d="M44.43,65.65a2.71,2.71,0,0,1-1.88-.76l-8.83-8.4a2.73,2.73,0,1,1,3.77-4L44.33,59,61.09,41.24a2.74,2.74,0,0,1,4,3.76L46.43,64.79a2.74,2.74,0,0,1-1.92.86Z"/></svg>