<svg id="Layer_1" data-name="Layer 1" xmlns="http://www.w3.org/2000/svg" viewBox="0 0 96.53 96.53"><defs><style>.cls-1{fill:#ededed;}.cls-2{fill:#4700e9;}.cls-3{fill:#ffb93e;}</style></defs><rect class="cls-1" x="24.6" y="20.6" width="47.32" height="58.65" rx="2.16"/><path class="cls-2" d="M38.89,39.93H31.65a1.72,1.72,0,0,1-1.72-1.71V31a1.72,1.72,0,0,1,1.72-1.71h7.24A1.72,1.72,0,0,1,40.6,31v7.24A1.72,1.72,0,0,1,38.89,39.93ZM31.65,30.6a.38.38,0,0,0-.38.38v7.24a.39.39,0,0,0,.38.38h7.24a.38.38,0,0,0,.37-.38V31a.38.38,0,0,0-.37-.38Z"/><path class="cls-2" d="M38.89,55.26H31.65a1.72,1.72,0,0,1-1.72-1.71V46.31a1.71,1.71,0,0,1,1.72-1.71h7.24a1.71,1.71,0,0,1,1.71,1.71v7.24A1.72,1.72,0,0,1,38.89,55.26Zm-7.24-9.33a.38.38,0,0,0-.38.38v7.24a.39.39,0,0,0,.38.38h7.24a.38.38,0,0,0,.37-.38V46.31a.38.38,0,0,0-.37-.38Z"/><path class="cls-2" d="M38.89,70.59H31.65a1.72,1.72,0,0,1-1.72-1.71V61.64a1.71,1.71,0,0,1,1.72-1.71h7.24a1.71,1.71,0,0,1,1.71,1.71v7.24A1.72,1.72,0,0,1,38.89,70.59Zm-7.24-9.33a.38.38,0,0,0-.38.38v7.24a.39.39,0,0,0,.38.38h7.24a.38.38,0,0,0,.37-.38V61.64a.38.38,0,0,0-.37-.38Z"/><path class="cls-2" d="M65.26,35.93h-20a1.33,1.33,0,0,1,0-2.66h20a1.33,1.33,0,1,1,0,2.66Z"/><path class="cls-2" d="M65.26,51.26h-20a1.33,1.33,0,0,1,0-2.66h20a1.33,1.33,0,1,1,0,2.66Z"/><path class="cls-2" d="M65.26,66.59h-20a1.33,1.33,0,0,1,0-2.66h20a1.33,1.33,0,0,1,0,2.66Z"/><path class="cls-3" d="M35.23,38.06a1,1,0,0,1-.7-.28l-3.31-3.15a1,1,0,0,1,0-1.45,1,1,0,0,1,1.44,0l2.56,2.43,6.28-6.66A1,1,0,0,1,43,30.33l-7,7.41a1,1,0,0,1-.72.32Z"/><path class="cls-2" d="M38.6,17.27H59.93a3.33,3.33,0,0,1,3.33,3.33v3.33a0,0,0,0,1,0,0h-28a0,0,0,0,1,0,0V20.6A3.33,3.33,0,0,1,38.6,17.27Z"/></svg>