<svg id="Layer_1" data-name="Layer 1" xmlns="http://www.w3.org/2000/svg" viewBox="0 0 96.53 96.53"><defs><style>.cls-1{fill:#4700e9;}.cls-2{fill:#ffb93e;}</style></defs><path class="cls-1" d="M52.49,70.88l.93-4.1a18.93,18.93,0,0,0,4.93-2L61.91,67a.87.87,0,0,0,1.23,0l4.15-4.15a.88.88,0,0,0,0-1.24L65.05,58a19.22,19.22,0,0,0,2-4.94l4.09-.93a.86.86,0,0,0,.87-.87V45.43a.86.86,0,0,0-.87-.87l-4.09-.93a19.37,19.37,0,0,0-2-4.94l2.24-3.55a.87.87,0,0,0,0-1.23l-3.48-3.48L55.45,41.68a9.52,9.52,0,1,1-13.54,0L33.55,30.43l-3.48,3.48a.87.87,0,0,0,0,1.23l2.24,3.55a18.68,18.68,0,0,0-2.05,4.94l-4.1.93a.87.87,0,0,0-.87.87V51.3a.87.87,0,0,0,.87.87l4.1.93A18.54,18.54,0,0,0,32.31,58l-2.24,3.55a.88.88,0,0,0,0,1.24L34.22,67a.87.87,0,0,0,1.23,0L39,64.74a18.79,18.79,0,0,0,4.93,2l.93,4.1a.87.87,0,0,0,.87.87h5.88A.87.87,0,0,0,52.49,70.88Z"/><polygon class="cls-2" points="48.68 44.64 57.91 32.22 54.13 32.22 54.13 13.63 43.22 13.63 43.22 32.22 39.45 32.22 48.68 44.64"/><path class="cls-1" d="M78.79,48.37A30.14,30.14,0,0,1,52.66,78.2V76.05l-8,3,8,3V79.84a31.73,31.73,0,0,0,4.16-62.15v1.69A30.16,30.16,0,0,1,78.79,48.37Z"/><path class="cls-1" d="M18.57,48.37a30.16,30.16,0,0,1,22-29V17.69a31.73,31.73,0,0,0,2.12,61.83L43.11,78A30.16,30.16,0,0,1,18.57,48.37Z"/></svg>