<svg width="48" height="48" viewBox="0 0 48 48" fill="none" xmlns="http://www.w3.org/2000/svg">
<path d="M10.7206 21.5382C11.9736 21.5382 12.9893 20.5225 12.9893 19.2695C12.9893 18.0166 11.9736 17.0009 10.7206 17.0009C9.46771 17.0009 8.45201 18.0166 8.45201 19.2695C8.45201 20.5225 9.46771 21.5382 10.7206 21.5382Z" fill="#005968"/>
<path d="M16.905 17.405C15.8752 17.405 15.0404 18.2398 15.0404 19.2696C15.0404 20.2994 15.8752 21.1342 16.905 21.1342H32.1949C33.2246 21.1342 34.0595 20.2994 34.0595 19.2696C34.0595 18.2398 33.2246 17.405 32.1949 17.405H16.905Z" fill="#005968"/>
<path d="M10.7206 28.9967C11.9736 28.9967 12.9893 27.981 12.9893 26.7281C12.9893 25.4752 11.9736 24.4595 10.7206 24.4595C9.46771 24.4595 8.45201 25.4752 8.45201 26.7281C8.45201 27.981 9.46771 28.9967 10.7206 28.9967Z" fill="#005968"/>
<path d="M2.48616 34.1207V12.6848H38.1606V23.8153C39.0304 23.9307 39.865 24.1591 40.6468 24.4898V4.35618C40.6468 3.66963 40.09 3.1131 39.4037 3.1131H1.24308C0.556528 3.1131 0 3.66963 0 4.35618V35.3637C0 36.0503 0.556528 36.6068 1.24308 36.6068H27.7195C27.4451 35.819 27.2704 34.9855 27.2088 34.1207H2.48616Z" fill="#005968"/>
<path d="M32.3204 24.8697C32.2789 24.8671 32.2374 24.8634 32.1949 24.8634H16.905C15.8752 24.8634 15.0404 25.6983 15.0404 26.728C15.0404 27.7578 15.8752 28.5927 16.905 28.5927H28.4773C29.3846 27.0217 30.718 25.727 32.3204 24.8697Z" fill="#005968"/>
<path d="M47.361 41.1826L43.6118 37.4536L43.8245 37.0476C44.4144 35.9212 44.7135 34.7031 44.7135 33.4267C44.7135 29.107 41.1992 25.5926 36.8796 25.5926C32.56 25.5926 29.0458 29.1069 29.0458 33.4267C29.0458 37.7462 32.56 41.2604 36.8796 41.2604C37.9804 41.2604 39.0479 41.0342 40.0527 40.5878L40.4416 40.415L44.3033 44.256C44.7122 44.6629 45.2551 44.8869 45.8322 44.8869C46.4134 44.8869 46.959 44.66 47.3689 44.2479C47.777 43.8377 48.0011 43.2924 47.9997 42.7127C47.9983 42.1339 47.7714 41.5904 47.361 41.1826ZM36.8797 39.0204C33.7953 39.0204 31.2859 36.5112 31.2859 33.4267C31.2859 30.342 33.7953 27.8326 36.8797 27.8326C39.9643 27.8326 42.4736 30.3422 42.4736 33.4267C42.4736 36.5112 39.9642 39.0204 36.8797 39.0204Z" fill="#005968"/>
</svg>
