<svg id="Layer_1" data-name="Layer 1" xmlns="http://www.w3.org/2000/svg" viewBox="0 0 96.53 96.53"><defs><style>.cls-1{fill:#9dbc59;}.cls-2{fill:#698b48;}.cls-3{fill:#fff;}</style></defs><path class="cls-1" d="M80,18.79a.87.87,0,0,0-.82-.76L72,17.89s-5.73-5.51-6.28-6.13a2.27,2.27,0,0,0-2.07-.28l-2.89.9A20.8,20.8,0,0,0,59.4,9c-2-3.86-5-5.93-8.62-5.93h0a2.8,2.8,0,0,0-.76.07c-.14-.14-.21-.28-.34-.35a7.68,7.68,0,0,0-6-2.41c-4.62.14-9.24,3.52-13,9.45a38.78,38.78,0,0,0-5.24,13.51c-5.31,1.65-9,2.83-9.17,2.83-2.69.82-2.76.89-3.11,3.44C13,31.54,6,86,6,86l59,10.2,25.58-6.34C90.49,89.81,80.08,19.27,80,18.79Zm-22.2-5.45c-1.38.42-2.89.9-4.55,1.45a25.38,25.38,0,0,0-1.38-8.41C55.4,6.93,57.12,10.93,57.81,13.34Zm-7.65,2.35-9.86,3a23.78,23.78,0,0,1,5-9.65,10.14,10.14,0,0,1,3.31-2.42C50,9.34,50.23,13.14,50.16,15.69ZM43.82,3.48a4.46,4.46,0,0,1,2.75.76A12.19,12.19,0,0,0,43,7.07a26.83,26.83,0,0,0-6.14,12.82c-2.83.9-5.58,1.73-8.07,2.48C30.44,14.86,36.71,3.69,43.82,3.48Z"/><path class="cls-2" d="M79.19,18,72,17.89s-5.73-5.51-6.28-6.13a1.1,1.1,0,0,0-.76-.35V96.15l25.58-6.34-10.48-71A1,1,0,0,0,79.19,18Z"/><path class="cls-3" d="M50.78,31.2l-3,11.1a16.42,16.42,0,0,0-7.24-1.24c-5.79.34-5.79,4-5.79,4.89.35,5,13.38,6.07,14.14,17.72.55,9.17-4.83,15.45-12.69,15.93a19.35,19.35,0,0,1-14.55-5l2-8.48s5.24,3.93,9.38,3.65a3.65,3.65,0,0,0,3.58-3.93c-.41-6.48-11-6.07-11.72-16.75-.55-9,5.31-18,18.28-18.83C48.23,29.89,50.78,31.2,50.78,31.2Z"/></svg>