<svg id="Calque_1" data-name="Calque 1" xmlns="http://www.w3.org/2000/svg" viewBox="0 0 858.1 858.1"><defs><style>.cls-1{fill:#e01e5a;}.cls-2{fill:#36c5f0;}.cls-3{fill:#2eb67d;}.cls-4{fill:#ecb22e;}</style></defs><path class="cls-1" d="M180.28,542.25a90.14,90.14,0,1,1-90.14-90.14h90.14Z"/><path class="cls-1" d="M225.71,542.25a90.14,90.14,0,0,1,180.28,0V768a90.14,90.14,0,0,1-180.28,0Z"/><path class="cls-2" d="M315.85,180.28A90.14,90.14,0,1,1,406,90.14v90.14Z"/><path class="cls-2" d="M315.85,225.71a90.14,90.14,0,0,1,0,180.28H90.14a90.14,90.14,0,0,1,0-180.28Z"/><path class="cls-3" d="M677.82,315.85A90.14,90.14,0,1,1,768,406H677.82Z"/><path class="cls-3" d="M632.39,315.85a90.14,90.14,0,0,1-180.28,0V90.14a90.14,90.14,0,1,1,180.28,0Z"/><path class="cls-4" d="M542.25,677.82A90.14,90.14,0,1,1,452.11,768V677.82Z"/><path class="cls-4" d="M542.25,632.39a90.14,90.14,0,0,1,0-180.28H768a90.14,90.14,0,0,1,0,180.28Z"/></svg>