<svg width="98" height="98" viewBox="0 0 98 98" fill="none" xmlns="http://www.w3.org/2000/svg">
<circle cx="49" cy="49" r="49" fill="#48A8B9"/>
<path d="M50.9383 40.6238C52.7282 38.8339 55.6302 38.8339 57.4201 40.6238C59.21 42.4137 59.21 45.3157 57.4201 47.1056C55.6302 48.8955 52.7282 48.8955 50.9383 47.1056C49.1484 45.3157 49.1484 42.4137 50.9383 40.6238ZM55.4755 42.5683C54.7596 41.8523 53.5988 41.8523 52.8828 42.5683C52.1668 43.2843 52.1668 44.4451 52.8828 45.161C53.5988 45.877 54.7596 45.877 55.4755 45.161C56.1915 44.4451 56.1915 43.2843 55.4755 42.5683ZM63.1126 31.6058C64.6982 32.0979 65.94 33.3392 66.4327 34.9246L66.8112 36.1425C68.1754 40.5318 66.9944 45.3156 63.7442 48.5657L61.9147 50.3953C63.7982 52.9063 63.5979 56.4851 61.3139 58.7691L59.0359 61.0471C58.499 61.584 57.6284 61.584 57.0914 61.0471L54.1771 58.1328L53.853 58.4569C52.6001 59.7099 50.5687 59.7099 49.3158 58.4569L48.4228 57.5639L46.9355 60.113C46.7206 60.4812 46.3471 60.729 45.9242 60.7837C45.5014 60.8384 45.0771 60.6938 44.7756 60.3923L37.6456 53.2623C37.346 52.9627 37.2012 52.5417 37.2532 52.1212C37.3053 51.7007 37.5482 51.3277 37.9118 51.1101L40.45 49.5911L39.587 48.7282C38.3341 47.4753 38.3341 45.4439 39.587 44.1909L39.9167 43.8613L36.9999 40.9445C36.4629 40.4075 36.4629 39.5369 36.9999 39L39.2779 36.722C41.5628 34.4371 45.1434 34.2375 47.6546 36.1234L49.4804 34.2976C52.7292 31.0487 57.5107 29.8673 61.8988 31.2291L63.1126 31.6058ZM63.8066 35.7408C63.5826 35.0201 63.0182 34.4559 62.2975 34.2323L61.0837 33.8556C57.6707 32.7964 53.9518 33.7152 51.4249 36.2421L41.5316 46.1355C41.3526 46.3145 41.3526 46.6047 41.5316 46.7837L51.2603 56.5124C51.4393 56.6914 51.7295 56.6914 51.9085 56.5124L61.7997 46.6212C64.3276 44.0933 65.2461 40.3726 64.1851 36.9587L63.8066 35.7408ZM39.2651 60.7234C39.8021 60.1864 39.8021 59.3158 39.2651 58.7788C38.7281 58.2419 37.8575 58.2419 37.3205 58.7788L32.7833 63.3161C32.2463 63.8531 32.2463 64.7237 32.7833 65.2607C33.3202 65.7976 34.1908 65.7976 34.7278 65.2607L39.2651 60.7234ZM35.7 55.2139C36.237 55.7508 36.237 56.6214 35.7 57.1584L33.7555 59.1029C33.2185 59.6399 32.3479 59.6399 31.8109 59.1029C31.274 58.566 31.274 57.6954 31.8109 57.1584L33.7555 55.2139C34.2924 54.6769 35.163 54.6769 35.7 55.2139ZM42.8264 64.2922C43.3633 63.7553 43.3633 62.8847 42.8264 62.3477C42.2894 61.8107 41.4188 61.8107 40.8818 62.3477L38.9411 64.2884C38.4041 64.8253 38.4041 65.6959 38.941 66.2329C39.478 66.7699 40.3486 66.7699 40.8856 66.2329L42.8264 64.2922Z" fill="white"/>
</svg>
