<svg id="Layer_1" data-name="Layer 1" xmlns="http://www.w3.org/2000/svg" viewBox="0 0 523.4 334.87"><defs><style>.cls-1{fill:#f4e9de;opacity:0.6;}.cls-2{fill:#05a0b5;}.cls-3{fill:#586163;}.cls-4{fill:#ffa13b;}.cls-4,.cls-5{stroke:#fff;stroke-miterlimit:10;}.cls-5{fill:#ed8d2e;}</style></defs><circle class="cls-1" cx="221.37" cy="174" r="143"/><circle class="cls-1" cx="359.37" cy="140" r="91"/><path class="cls-2" d="M160.84,143.51l-11.41-2.6a52.58,52.58,0,0,0-5.69-13.73l6.23-9.9a2.42,2.42,0,0,0,0-3.43l-11.56-11.56a2.41,2.41,0,0,0-3.42,0l-9.91,6.23a52.58,52.58,0,0,0-13.73-5.69l-2.59-11.41A2.42,2.42,0,0,0,106.33,89H90a2.42,2.42,0,0,0-2.42,2.42L85,102.83a52.78,52.78,0,0,0-13.74,5.69l-9.9-6.23a2.42,2.42,0,0,0-3.43,0L46.34,113.85a2.44,2.44,0,0,0,0,3.43l6.24,9.9a52.24,52.24,0,0,0-5.69,13.73l-11.41,2.6a2.42,2.42,0,0,0-2.43,2.42v16.35a2.42,2.42,0,0,0,2.43,2.42l11.41,2.6A52.52,52.52,0,0,0,52.58,181l-6.24,9.9a2.44,2.44,0,0,0,0,3.43L57.9,205.92a2.42,2.42,0,0,0,3.43,0l9.9-6.23A52.76,52.76,0,0,0,85,205.37l2.59,11.41A2.42,2.42,0,0,0,90,219.21h16.35a2.43,2.43,0,0,0,2.43-2.43l2.59-11.41a52.55,52.55,0,0,0,13.73-5.68l9.91,6.23a2.41,2.41,0,0,0,3.42,0L150,194.36a2.42,2.42,0,0,0,0-3.43l-6.23-9.9a52.86,52.86,0,0,0,5.69-13.73l11.41-2.6a2.42,2.42,0,0,0,2.42-2.42V145.93A2.42,2.42,0,0,0,160.84,143.51ZM98.16,180.6a26.5,26.5,0,1,1,26.49-26.5A26.49,26.49,0,0,1,98.16,180.6Z"/><path class="cls-3" d="M17.67,242.9A4.2,4.2,0,0,1,16,246.43a7.13,7.13,0,0,1-4.45,1.26,11.26,11.26,0,0,1-4.69-.78V245a12.89,12.89,0,0,0,2.3.7,12.25,12.25,0,0,0,2.46.26,4.91,4.91,0,0,0,3-.76,2.47,2.47,0,0,0,1-2.1,2.68,2.68,0,0,0-.36-1.46,3.33,3.33,0,0,0-1.2-1,16.59,16.59,0,0,0-2.54-1.09,8.1,8.1,0,0,1-3.42-2,4.49,4.49,0,0,1-1-3.06,3.81,3.81,0,0,1,1.49-3.15,6.22,6.22,0,0,1,3.94-1.17,11.54,11.54,0,0,1,4.7.94l-.62,1.73a10.72,10.72,0,0,0-4.13-.89,4,4,0,0,0-2.47.68,2.24,2.24,0,0,0-.89,1.89,2.89,2.89,0,0,0,.33,1.46,3.12,3.12,0,0,0,1.11,1A13.22,13.22,0,0,0,13,238,9.5,9.5,0,0,1,16.66,240,4,4,0,0,1,17.67,242.9Z"/><path class="cls-3" d="M25,246.09a6.43,6.43,0,0,0,1-.08,5.43,5.43,0,0,0,.76-.16v1.49a3.36,3.36,0,0,1-.93.25,6.61,6.61,0,0,1-1.11.1c-2.48,0-3.73-1.31-3.73-3.92v-7.64H19.19v-.94l1.83-.81.83-2.74H23v3H26.7v1.51H23v7.56a2.6,2.6,0,0,0,.55,1.78A1.93,1.93,0,0,0,25,246.09Z"/><path class="cls-3" d="M37.26,247.46l-.39-1.83h-.1a5.38,5.38,0,0,1-1.91,1.64,6,6,0,0,1-2.39.42,4.26,4.26,0,0,1-3-1,3.6,3.6,0,0,1-1.08-2.8c0-2.6,2.07-3.95,6.22-4.08l2.18-.07V239a3.28,3.28,0,0,0-.65-2.23,2.69,2.69,0,0,0-2.08-.72,8.54,8.54,0,0,0-3.63,1l-.6-1.48a8.5,8.5,0,0,1,2.08-.81,8.79,8.79,0,0,1,2.27-.3,4.88,4.88,0,0,1,3.4,1,4.25,4.25,0,0,1,1.11,3.27v8.77Zm-4.4-1.37a3.92,3.92,0,0,0,2.85-1,3.64,3.64,0,0,0,1-2.79v-1.16l-1.94.08a7.07,7.07,0,0,0-3.35.73,2.16,2.16,0,0,0-1,2,2,2,0,0,0,.63,1.61A2.72,2.72,0,0,0,32.86,246.09Z"/><path class="cls-3" d="M46.85,246.09a6.43,6.43,0,0,0,1-.08,5.43,5.43,0,0,0,.76-.16v1.49a3.36,3.36,0,0,1-.93.25,6.61,6.61,0,0,1-1.11.1q-3.72,0-3.72-3.92v-7.64H41v-.94l1.84-.81.82-2.74h1.12v3h3.73v1.51H44.79v7.56a2.6,2.6,0,0,0,.55,1.78A1.93,1.93,0,0,0,46.85,246.09Z"/><path class="cls-3" d="M56.6,247.69A5.88,5.88,0,0,1,52.11,246a6.71,6.71,0,0,1-1.65-4.82A7.44,7.44,0,0,1,52,236.21a5.08,5.08,0,0,1,4.11-1.83A4.84,4.84,0,0,1,59.92,236a6.07,6.07,0,0,1,1.41,4.19v1.23H52.48a5.09,5.09,0,0,0,1.14,3.43A4,4,0,0,0,56.67,246a10.26,10.26,0,0,0,4.1-.86v1.73a9.84,9.84,0,0,1-2,.64A10.86,10.86,0,0,1,56.6,247.69ZM56.08,236a3.17,3.17,0,0,0-2.47,1,4.66,4.66,0,0,0-1.09,2.79h6.72a4.25,4.25,0,0,0-.82-2.82A2.9,2.9,0,0,0,56.08,236Z"/><path class="cls-3" d="M66.59,247.46h-2V229.22h2Z"/><path class="cls-3" d="M76.14,247.69a5.9,5.9,0,0,1-4.5-1.73A6.75,6.75,0,0,1,70,241.14a7.44,7.44,0,0,1,1.53-4.93,5.08,5.08,0,0,1,4.1-1.83A4.83,4.83,0,0,1,79.45,236a6.07,6.07,0,0,1,1.41,4.19v1.23H72a5,5,0,0,0,1.15,3.43,4,4,0,0,0,3,1.17,10.3,10.3,0,0,0,4.1-.86v1.73a10.28,10.28,0,0,1-2,.64A10.86,10.86,0,0,1,76.14,247.69ZM75.61,236a3.2,3.2,0,0,0-2.47,1,4.66,4.66,0,0,0-1.08,2.79h6.71A4.25,4.25,0,0,0,78,237,2.87,2.87,0,0,0,75.61,236Z"/><path class="cls-3" d="M92.46,244a3.21,3.21,0,0,1-1.33,2.76,6.27,6.27,0,0,1-3.75,1,8.17,8.17,0,0,1-4-.81v-1.8a9.83,9.83,0,0,0,2,.74,8.3,8.3,0,0,0,2,.27,4.6,4.6,0,0,0,2.35-.49,1.67,1.67,0,0,0,.17-2.76,10,10,0,0,0-2.54-1.26,13.9,13.9,0,0,1-2.55-1.17,3.44,3.44,0,0,1-1.12-1.13,2.91,2.91,0,0,1-.37-1.51,2.87,2.87,0,0,1,1.27-2.48,6,6,0,0,1,3.51-.91,10.28,10.28,0,0,1,4,.84l-.69,1.59A9.36,9.36,0,0,0,88,236a4,4,0,0,0-2.09.43,1.34,1.34,0,0,0-.7,1.2,1.5,1.5,0,0,0,.26.88,2.7,2.7,0,0,0,.85.69,19.7,19.7,0,0,0,2.25.95,8.38,8.38,0,0,1,3.09,1.67A3,3,0,0,1,92.46,244Z"/><path class="cls-3" d="M103.91,244a3.21,3.21,0,0,1-1.33,2.76,6.27,6.27,0,0,1-3.75,1,8.14,8.14,0,0,1-4-.81v-1.8a9.83,9.83,0,0,0,2,.74,8.24,8.24,0,0,0,2,.27,4.6,4.6,0,0,0,2.35-.49,1.67,1.67,0,0,0,.17-2.76,10,10,0,0,0-2.54-1.26,13.9,13.9,0,0,1-2.55-1.17,3.44,3.44,0,0,1-1.12-1.13,2.91,2.91,0,0,1-.37-1.51,2.87,2.87,0,0,1,1.27-2.48,6,6,0,0,1,3.51-.91,10.28,10.28,0,0,1,4,.84l-.69,1.59a9.36,9.36,0,0,0-3.5-.8,4,4,0,0,0-2.09.43,1.34,1.34,0,0,0-.7,1.2,1.5,1.5,0,0,0,.26.88,2.7,2.7,0,0,0,.85.69,19.7,19.7,0,0,0,2.25.95,8.47,8.47,0,0,1,3.09,1.67A3,3,0,0,1,103.91,244Z"/><path class="cls-3" d="M123.27,242.9a4.22,4.22,0,0,1-1.64,3.53,7.13,7.13,0,0,1-4.45,1.26,11.22,11.22,0,0,1-4.69-.78V245a12.64,12.64,0,0,0,2.3.7,12.17,12.17,0,0,0,2.46.26,4.91,4.91,0,0,0,3-.76,2.47,2.47,0,0,0,1-2.1,2.68,2.68,0,0,0-.36-1.46,3.33,3.33,0,0,0-1.2-1,17.26,17.26,0,0,0-2.55-1.09,8.12,8.12,0,0,1-3.41-2,4.44,4.44,0,0,1-1-3.06,3.81,3.81,0,0,1,1.49-3.15,6.2,6.2,0,0,1,3.94-1.17,11.54,11.54,0,0,1,4.7.94l-.62,1.73a10.72,10.72,0,0,0-4.13-.89,4,4,0,0,0-2.47.68,2.22,2.22,0,0,0-.89,1.89,2.89,2.89,0,0,0,.33,1.46,3,3,0,0,0,1.1,1,13.38,13.38,0,0,0,2.39,1,9.5,9.5,0,0,1,3.71,2.06A4.09,4.09,0,0,1,123.27,242.9Z"/><path class="cls-3" d="M131.91,247.69a5.9,5.9,0,0,1-4.5-1.73,6.75,6.75,0,0,1-1.64-4.82,7.44,7.44,0,0,1,1.53-4.93,5.08,5.08,0,0,1,4.1-1.83,4.83,4.83,0,0,1,3.82,1.59,6.07,6.07,0,0,1,1.41,4.19v1.23h-8.85a5,5,0,0,0,1.15,3.43,4,4,0,0,0,3,1.17,10.3,10.3,0,0,0,4.1-.86v1.73a10.28,10.28,0,0,1-2,.64A10.93,10.93,0,0,1,131.91,247.69ZM131.38,236a3.2,3.2,0,0,0-2.47,1,4.66,4.66,0,0,0-1.08,2.79h6.71a4.25,4.25,0,0,0-.82-2.82A2.87,2.87,0,0,0,131.38,236Z"/><path class="cls-3" d="M145.81,234.38a7.82,7.82,0,0,1,1.53.14l-.27,1.81a6.46,6.46,0,0,0-1.4-.18,3.42,3.42,0,0,0-2.67,1.27,4.59,4.59,0,0,0-1.11,3.15v6.89H140V234.62h1.6l.22,2.37h.1a5.71,5.71,0,0,1,1.72-1.93A3.9,3.9,0,0,1,145.81,234.38Z"/><path class="cls-3" d="M152.56,247.46l-4.88-12.84h2.09l2.76,7.61a34.58,34.58,0,0,1,1.1,3.47h.1a26.35,26.35,0,0,1,.81-2.57c.46-1.3,1.48-4.14,3.08-8.51h2.08l-4.87,12.84Z"/><path class="cls-3" d="M161.6,231.13a1.26,1.26,0,0,1,.33-1,1.13,1.13,0,0,1,.82-.31,1.16,1.16,0,0,1,.81.31,1.57,1.57,0,0,1,0,2,1.13,1.13,0,0,1-.81.33,1.11,1.11,0,0,1-.82-.33A1.3,1.3,0,0,1,161.6,231.13Zm2.11,16.33h-1.94V234.62h1.94Z"/><path class="cls-3" d="M173,247.69a5.5,5.5,0,0,1-4.32-1.71,7.08,7.08,0,0,1-1.53-4.86,7.25,7.25,0,0,1,1.56-5,5.59,5.59,0,0,1,4.42-1.76,9,9,0,0,1,1.85.2,5.86,5.86,0,0,1,1.45.47l-.59,1.65a10.18,10.18,0,0,0-1.41-.43,6.54,6.54,0,0,0-1.35-.17q-3.92,0-3.91,5a6,6,0,0,0,1,3.63,3.33,3.33,0,0,0,2.83,1.26,8.72,8.72,0,0,0,3.3-.69V247A7.12,7.12,0,0,1,173,247.69Z"/><path class="cls-3" d="M184.69,247.69a5.9,5.9,0,0,1-4.5-1.73,6.75,6.75,0,0,1-1.64-4.82,7.44,7.44,0,0,1,1.53-4.93,5.08,5.08,0,0,1,4.11-1.83A4.86,4.86,0,0,1,188,236a6.11,6.11,0,0,1,1.4,4.19v1.23h-8.85a5,5,0,0,0,1.15,3.43,4,4,0,0,0,3,1.17,10.3,10.3,0,0,0,4.1-.86v1.73a10.28,10.28,0,0,1-2,.64A10.86,10.86,0,0,1,184.69,247.69ZM184.16,236a3.2,3.2,0,0,0-2.47,1,4.66,4.66,0,0,0-1.08,2.79h6.72a4.31,4.31,0,0,0-.82-2.82A2.91,2.91,0,0,0,184.16,236Z"/><path class="cls-3" d="M430.14,238.73q0,4.25-2.3,6.48t-6.63,2.25h-4.75V230.33h5.25a7.69,7.69,0,0,1,8.43,8.4Zm-2.11.07a6.89,6.89,0,0,0-1.68-5.05,6.76,6.76,0,0,0-5-1.7h-2.9v13.69h2.43a7.38,7.38,0,0,0,5.36-1.76A6.93,6.93,0,0,0,428,238.8Z"/><path class="cls-3" d="M441.56,247.46l-.38-1.83h-.1a5.46,5.46,0,0,1-1.91,1.64,6,6,0,0,1-2.39.42,4.26,4.26,0,0,1-3-1,3.61,3.61,0,0,1-1.09-2.8c0-2.6,2.08-3.95,6.23-4.08l2.18-.07V239a3.28,3.28,0,0,0-.65-2.23,2.69,2.69,0,0,0-2.08-.72,8.61,8.61,0,0,0-3.64,1l-.59-1.48a8.5,8.5,0,0,1,2.08-.81,8.78,8.78,0,0,1,2.26-.3,4.91,4.91,0,0,1,3.41,1,4.25,4.25,0,0,1,1.11,3.27v8.77Zm-4.39-1.37a3.92,3.92,0,0,0,2.85-1,3.68,3.68,0,0,0,1-2.79v-1.16l-1.95.08a7.06,7.06,0,0,0-3.34.73,2.17,2.17,0,0,0-1,2,2,2,0,0,0,.64,1.61A2.7,2.7,0,0,0,437.17,246.09Z"/><path class="cls-3" d="M451.16,246.09a6.43,6.43,0,0,0,1-.08,5.43,5.43,0,0,0,.76-.16v1.49a3.36,3.36,0,0,1-.93.25,6.61,6.61,0,0,1-1.11.1c-2.48,0-3.73-1.31-3.73-3.92v-7.64h-1.84v-.94l1.84-.81.82-2.74h1.13v3h3.73v1.51H449.1v7.56a2.6,2.6,0,0,0,.55,1.78A1.93,1.93,0,0,0,451.16,246.09Z"/><path class="cls-3" d="M463.38,247.46l-.38-1.83h-.1a5.46,5.46,0,0,1-1.91,1.64,6,6,0,0,1-2.39.42,4.26,4.26,0,0,1-3-1,3.61,3.61,0,0,1-1.09-2.8c0-2.6,2.08-3.95,6.23-4.08l2.18-.07V239a3.28,3.28,0,0,0-.65-2.23,2.69,2.69,0,0,0-2.08-.72,8.61,8.61,0,0,0-3.64,1l-.59-1.48a8.5,8.5,0,0,1,2.08-.81,8.78,8.78,0,0,1,2.26-.3,4.89,4.89,0,0,1,3.41,1,4.25,4.25,0,0,1,1.11,3.27v8.77ZM459,246.09a3.92,3.92,0,0,0,2.85-1,3.68,3.68,0,0,0,1-2.79v-1.16l-1.94.08a7.07,7.07,0,0,0-3.35.73,2.17,2.17,0,0,0-1,2,2,2,0,0,0,.64,1.61A2.7,2.7,0,0,0,459,246.09Z"/><path class="cls-3" d="M474.81,234.4a4.77,4.77,0,0,1,3.93,1.73,9.26,9.26,0,0,1,0,9.81,4.75,4.75,0,0,1-3.92,1.75,5.51,5.51,0,0,1-2.29-.46,4.33,4.33,0,0,1-1.74-1.42h-.14l-.41,1.65h-1.4V229.22h1.95v4.43c0,1,0,1.89-.09,2.68h.09A4.61,4.61,0,0,1,474.81,234.4Zm-.28,1.63a3.36,3.36,0,0,0-2.87,1.15,8.82,8.82,0,0,0,0,7.72,3.43,3.43,0,0,0,2.9,1.16,3,3,0,0,0,2.67-1.3,6.78,6.78,0,0,0,.88-3.76,6.51,6.51,0,0,0-.88-3.74A3.12,3.12,0,0,0,474.53,236Z"/><path class="cls-3" d="M491.44,247.46l-.39-1.83H491a5.4,5.4,0,0,1-1.92,1.64,5.9,5.9,0,0,1-2.38.42,4.29,4.29,0,0,1-3-1,3.6,3.6,0,0,1-1.08-2.8c0-2.6,2.07-3.95,6.22-4.08l2.18-.07V239a3.23,3.23,0,0,0-.65-2.23,2.68,2.68,0,0,0-2.08-.72,8.54,8.54,0,0,0-3.63,1l-.6-1.48a8.65,8.65,0,0,1,2.08-.81,8.79,8.79,0,0,1,2.27-.3,4.88,4.88,0,0,1,3.4,1,4.25,4.25,0,0,1,1.11,3.27v8.77Zm-4.4-1.37a3.92,3.92,0,0,0,2.86-1,3.68,3.68,0,0,0,1-2.79v-1.16l-1.95.08a7.1,7.1,0,0,0-3.35.73,2.16,2.16,0,0,0-1,2,2,2,0,0,0,.64,1.61A2.67,2.67,0,0,0,487,246.09Z"/><path class="cls-3" d="M505.17,244a3.21,3.21,0,0,1-1.33,2.76,6.27,6.27,0,0,1-3.75,1,8.17,8.17,0,0,1-4-.81v-1.8a9.83,9.83,0,0,0,2,.74,8.3,8.3,0,0,0,2,.27,4.6,4.6,0,0,0,2.35-.49,1.67,1.67,0,0,0,.17-2.76,10,10,0,0,0-2.54-1.26,14.59,14.59,0,0,1-2.55-1.17,3.44,3.44,0,0,1-1.12-1.13,2.91,2.91,0,0,1-.37-1.51,2.86,2.86,0,0,1,1.28-2.48,5.89,5.89,0,0,1,3.5-.91,10.28,10.28,0,0,1,4,.84l-.69,1.59a9.31,9.31,0,0,0-3.5-.8,4,4,0,0,0-2.09.43,1.34,1.34,0,0,0-.7,1.2,1.5,1.5,0,0,0,.26.88,2.7,2.7,0,0,0,.85.69,19.7,19.7,0,0,0,2.25.95,8.29,8.29,0,0,1,3.09,1.67A3,3,0,0,1,505.17,244Z"/><path class="cls-3" d="M513.76,247.69a5.88,5.88,0,0,1-4.49-1.73,6.71,6.71,0,0,1-1.65-4.82,7.44,7.44,0,0,1,1.53-4.93,5.08,5.08,0,0,1,4.11-1.83,4.84,4.84,0,0,1,3.82,1.59,6.07,6.07,0,0,1,1.41,4.19v1.23h-8.85a5.09,5.09,0,0,0,1.14,3.43,4,4,0,0,0,3.05,1.17,10.35,10.35,0,0,0,4.11-.86v1.73a10.14,10.14,0,0,1-2,.64A10.86,10.86,0,0,1,513.76,247.69ZM513.24,236a3.17,3.17,0,0,0-2.47,1,4.6,4.6,0,0,0-1.08,2.79h6.71a4.25,4.25,0,0,0-.82-2.82A2.9,2.9,0,0,0,513.24,236Z"/><ellipse class="cls-2" cx="466.92" cy="116.46" rx="53.56" ry="23.46"/><path class="cls-2" d="M466.92,146.56c-29.4,0-53.26-10.37-53.55-23.22h0v19h0C414.49,155.47,438,166,466.92,166s52.44-10.53,53.52-23.7h0v-19h0C520.19,136.19,496.32,146.56,466.92,146.56Z"/><path class="cls-2" d="M466.92,170.74c-29.4,0-53.26-10.38-53.55-23.23h0v19h0c1.09,13.17,24.63,23.7,53.52,23.7s52.44-10.53,53.52-23.7h0v-19h0C520.19,160.36,496.32,170.74,466.92,170.74Z"/><path class="cls-2" d="M466.92,194.91c-29.4,0-53.26-10.38-53.55-23.22h0v19h0c1.09,13.17,24.63,23.7,53.52,23.7s52.44-10.53,53.52-23.7h0v-19h0C520.19,184.53,496.32,194.91,466.92,194.91Z"/><polygon class="cls-4" points="248.8 139.78 248.8 122.35 204.37 148.6 248.8 174.84 248.8 157.42 323.94 157.42 323.94 139.78 248.8 139.78"/><polygon class="cls-5" points="323.94 156.98 323.94 139.55 368.37 165.8 323.94 192.05 323.94 174.62 248.8 174.62 248.8 156.98 323.94 156.98"/></svg>