<svg id="Layer_1" data-name="Layer 1" xmlns="http://www.w3.org/2000/svg" viewBox="0 0 96.53 96.53"><defs><style>.cls-1{fill:none;}.cls-2{fill:#3fa9f5;}.cls-3{fill:#fbb03b;}</style></defs><path class="cls-1" d="M45.64,90.86v-19A88.07,88.07,0,0,0,33.4,73.2C36.44,82.71,41,89.07,45.64,90.86Z"/><path class="cls-1" d="M32.09,68.48A92.78,92.78,0,0,1,45.64,67V50.46H29.85A86.21,86.21,0,0,0,32.09,68.48Z"/><path class="cls-1" d="M29.86,45.59H45.64V29.54a92.46,92.46,0,0,1-13.59-1.33A86.21,86.21,0,0,0,29.86,45.59Z"/><path class="cls-1" d="M71.54,45.59H91.17a42.8,42.8,0,0,0-8.49-23.08,62.65,62.65,0,0,1-13.45,4.73A90.48,90.48,0,0,1,71.54,45.59Z"/><path class="cls-1" d="M33.35,23.49a87.71,87.71,0,0,0,12.29,1.17v-19C41,7.47,36.38,13.89,33.35,23.49Z"/><path class="cls-1" d="M50.52,5.53V24.67a88.43,88.43,0,0,0,12.66-1.18C60.06,13.64,55.28,7.13,50.52,5.53Z"/><path class="cls-1" d="M17.45,78.16l0,0a43,43,0,0,0,19,11.4,46.14,46.14,0,0,1-7.75-15.37A58.19,58.19,0,0,0,17.45,78.16Z"/><path class="cls-1" d="M64.47,28.21a94.43,94.43,0,0,1-13.95,1.34v16H66.66A84.81,84.81,0,0,0,64.47,28.21Z"/><path class="cls-1" d="M25,50.46H5.32a42.82,42.82,0,0,0,8.82,23.92,60,60,0,0,1,13.22-4.86A90,90,0,0,1,25,50.46Z"/><path class="cls-1" d="M79.41,18.67A43,43,0,0,0,60.13,6.94a46.48,46.48,0,0,1,7.81,15.59A59.13,59.13,0,0,0,79.41,18.67Z"/><path class="cls-1" d="M27.3,27.24a62.26,62.26,0,0,1-13.45-4.73,42.81,42.81,0,0,0-8.5,23.08H25A90.46,90.46,0,0,1,27.3,27.24Z"/><path class="cls-1" d="M36.4,6.94A43.13,43.13,0,0,0,17.11,18.67a59.59,59.59,0,0,0,11.47,3.86A46.3,46.3,0,0,1,36.4,6.94Z"/><path class="cls-2" d="M56.5,86.37a13.8,13.8,0,0,1-6,4.62V71.84c1.54,0,3,.09,4.52.18a22.08,22.08,0,0,1,1.66-4.77c-2-.16-4.08-.26-6.18-.29V50.46H66.67q-.08,3.48-.39,6.73a22.13,22.13,0,0,1,5-2c.11-1.56.19-3.14.22-4.74H91.2A42.52,42.52,0,0,1,90,58.58a22.86,22.86,0,0,1,4.15,3.77A48,48,0,0,0,87.05,20c-1-1.32-2-2.59-3.08-3.8a48,48,0,0,0-71.41,0A46.88,46.88,0,0,0,9.48,20a48,48,0,0,0,.33,57,44.86,44.86,0,0,0,3.13,3.76A47.95,47.95,0,0,0,62.35,94.14,22.53,22.53,0,0,1,56.5,86.37ZM82.68,22.51a42.8,42.8,0,0,1,8.49,23.08H71.54a90.48,90.48,0,0,0-2.31-18.35A62.65,62.65,0,0,0,82.68,22.51Zm-3.27-3.84a59.13,59.13,0,0,1-11.47,3.86A46.48,46.48,0,0,0,60.13,6.94,43,43,0,0,1,79.41,18.67ZM50.52,5.53c4.76,1.6,9.54,8.11,12.66,18a88.43,88.43,0,0,1-12.66,1.18Zm0,24a94.43,94.43,0,0,0,13.95-1.34,84.81,84.81,0,0,1,2.19,17.38H50.52ZM36.4,6.94a46.3,46.3,0,0,0-7.82,15.59,59.59,59.59,0,0,1-11.47-3.86A43.13,43.13,0,0,1,36.4,6.94ZM13.85,22.51A62.26,62.26,0,0,0,27.3,27.24,90.46,90.46,0,0,0,25,45.59H5.35A42.81,42.81,0,0,1,13.85,22.51Zm.29,51.87A42.82,42.82,0,0,1,5.32,50.46H25a90,90,0,0,0,2.39,19.06A60,60,0,0,0,14.14,74.38Zm3.28,3.8,0,0a58.19,58.19,0,0,1,11.2-4A46.14,46.14,0,0,0,36.4,89.58,43,43,0,0,1,17.42,78.18ZM45.64,90.86C41,89.07,36.44,82.71,33.4,73.2a88.07,88.07,0,0,1,12.24-1.3Zm0-23.84a92.78,92.78,0,0,0-13.55,1.46,86.21,86.21,0,0,1-2.24-18H45.64Zm0-21.43H29.86a86.21,86.21,0,0,1,2.19-17.38,92.46,92.46,0,0,0,13.59,1.33Zm0-20.93a87.71,87.71,0,0,1-12.29-1.17c3-9.6,7.65-16,12.29-17.82Z"/><path class="cls-3" d="M77,61.93A15.1,15.1,0,1,1,61.93,77,15.11,15.11,0,0,1,77,61.93m0-3.63A18.73,18.73,0,1,0,95.75,77,18.74,18.74,0,0,0,77,58.3Z"/><path class="cls-3" d="M77,78.34a1.81,1.81,0,0,1-1.82-1.81v-11a1.82,1.82,0,1,1,3.63,0v11A1.81,1.81,0,0,1,77,78.34Z"/><path class="cls-3" d="M82.13,83.5A1.77,1.77,0,0,1,80.85,83l-5.11-5.1a1.81,1.81,0,0,1,2.57-2.56l5.1,5.1a1.82,1.82,0,0,1-1.28,3.1Z"/></svg>