<svg id="Layer_1" data-name="Layer 1" xmlns="http://www.w3.org/2000/svg" viewBox="0 0 96.53 96.53"><defs><style>.cls-1{fill:#29abe2;}.cls-2{fill:#fbb03b;}</style></defs><path class="cls-1" d="M55.24,29.23A10.78,10.78,0,0,1,66,40V56.16A10.79,10.79,0,0,1,55.24,66.93H46.06A5.39,5.39,0,0,0,42.78,68l-6.66,5.1-7.25-5.2a5.39,5.39,0,0,0-3.14-1H17.55A10.79,10.79,0,0,1,6.78,56.16V40A10.78,10.78,0,0,1,17.55,29.23H55.24m0-5.38H17.55A16.2,16.2,0,0,0,1.39,40V56.16A16.2,16.2,0,0,0,17.55,72.31h8.18l10.5,7.54,9.83-7.54h9.18A16.2,16.2,0,0,0,71.39,56.16V40A16.2,16.2,0,0,0,55.24,23.85Z"/><path class="cls-1" d="M68.24,10.85H30.55a16.21,16.21,0,0,0-15.26,10.9,16.09,16.09,0,0,1,5.26-.9h1.17a10.76,10.76,0,0,1,8.83-4.62H68.24A10.78,10.78,0,0,1,79,27V43.16A10.74,10.74,0,0,1,74.39,52v1.18a16,16,0,0,1-.9,5.25,16.21,16.21,0,0,0,10.9-15.25V27A16.2,16.2,0,0,0,68.24,10.85Z"/><path class="cls-1" d="M42.24,56.91l-1.13-3h-9.6l-1.13,3a10.69,10.69,0,0,1-1.13,2.4,1.8,1.8,0,0,1-1.53.62,2.23,2.23,0,0,1-1.59-.66,2,2,0,0,1-.7-1.5,3.59,3.59,0,0,1,.16-1c.11-.34.29-.82.54-1.43l6-15.34c.17-.45.38-1,.62-1.59a8.16,8.16,0,0,1,.77-1.54,3.21,3.21,0,0,1,1.08-1,3.82,3.82,0,0,1,3.32,0,3.17,3.17,0,0,1,1.08,1,6.33,6.33,0,0,1,.69,1.28q.29.69.72,1.83l6.17,15.25a7.52,7.52,0,0,1,.73,2.53,2.08,2.08,0,0,1-.69,1.5A2.22,2.22,0,0,1,45,60a2.16,2.16,0,0,1-1-.2,2,2,0,0,1-.68-.55,5.18,5.18,0,0,1-.59-1.07C42.57,57.7,42.39,57.27,42.24,56.91Zm-9.47-6.56h7L36.26,40.6Z"/><path class="cls-2" d="M95.13,57.17l-5.34-3.83-4-2.9-.32,3.27-.81,8.22,2.76-1.25c0,5.53-2.11,12.64-7.68,17-4.14,3.22-10,4-14.69,4h-.12a15,15,0,0,1-7.1-1.74l3.15-3.15-8.2-2.2-3-.79,1.62,6L52.77,85l2.1-2.09a18.59,18.59,0,0,0,10,2.82H65c5.58,0,12.31-1.08,17.15-4.85,7.14-5.57,9.78-14.7,9.12-21.92Z"/></svg>