<svg id="Layer_1" data-name="Layer 1" xmlns="http://www.w3.org/2000/svg" viewBox="0 0 96.53 96.53"><defs><style>.cls-1{fill:#d0f2fc;}.cls-2{fill:#6cb7f8;}.cls-3{fill:#307df3;}</style></defs><path class="cls-1" d="M33.8,9.53a4.76,4.76,0,0,0-4-2.27H5.34A4.78,4.78,0,0,0,.57,12h0a4.81,4.81,0,0,0,.73,2.55l6.29,9.24L39,17Z"/><path class="cls-2" d="M39.18,17.19a4.8,4.8,0,0,0-4-2.27H10.79a4.74,4.74,0,0,0-4.18,7.35l7,11.13,32.5-5.09Z"/><path class="cls-3" d="M13.33,33a4.91,4.91,0,0,1-.43-4.27,4.79,4.79,0,0,1,4.55-3H41.79a4.73,4.73,0,0,1,4,2.27L67.7,62.58a4.8,4.8,0,0,1,0,5.09L55.48,87a4.79,4.79,0,0,1-8.08,0Z"/><path class="cls-3" d="M74.92,44a4.8,4.8,0,0,0,6.62,1.47A4.91,4.91,0,0,0,83,44l4.2-6.65,8-12.72a4.86,4.86,0,0,0,0-5.09l-6.36-10a4.8,4.8,0,0,0-4-2.27H60.39A4.78,4.78,0,0,0,55.62,12h0a4.53,4.53,0,0,0,.75,2.55Z"/></svg>