<svg id="Layer_1" data-name="Layer 1" xmlns="http://www.w3.org/2000/svg" viewBox="0 0 96.53 96.53"><defs><style>.cls-1{fill:#52bfd2;}.cls-2{fill:#ffa13b;}</style></defs><path class="cls-1" d="M42.26,27.21a15.88,15.88,0,0,1,14,8.39l2.95,5.48,5.37-3.14a7.21,7.21,0,0,1,3.72-1,7.35,7.35,0,0,1,6.62,10.61l-3.9,8,8.85.65a10.57,10.57,0,0,1-.8,21.11h-53l-.7-.06a13.42,13.42,0,0,1-3-26.05L27,49.6l-.51-4.77c-.06-.6-.1-1.17-.1-1.71A15.93,15.93,0,0,1,42.26,27.21m0-6A21.91,21.91,0,0,0,20.35,43.12a22.82,22.82,0,0,0,.13,2.35,19.42,19.42,0,0,0,4.37,37.7v.09H79.09a16.57,16.57,0,0,0,1.24-33.09A13.36,13.36,0,0,0,61.57,32.76,21.9,21.9,0,0,0,42.26,21.21Z"/><path class="cls-2" d="M20.48,45.47a22.82,22.82,0,0,1-.13-2.35A21.91,21.91,0,0,1,37.23,21.8,20,20,0,1,0,12,51.19,19.53,19.53,0,0,1,20.48,45.47Z"/></svg>